<svg xmlns="http://www.w3.org/2000/svg" viewBox="0 0 500 500">
<g fill="none" stroke="#000000" stroke-width="16" stroke-linecap="round" stroke-linejoin="round">

  <path d="M 120 340
           C 100 280 120 220 175 195
           C 190 170 215 150 250 150
           C 270 150 280 165 275 180
           C 300 175 320 185 320 210
           C 355 205 385 225 390 260
           C 400 290 385 315 355 320
           C 375 350 360 385 320 388
           C 285 392 260 375 250 345
           C 210 345 175 340 160 320
           C 145 340 130 350 120 340 Z"/>
  <path d="M 250 195 L 240 225"/>
  <path d="M 275 190 L 268 218"/>

</g>
</svg>