<svg xmlns="http://www.w3.org/2000/svg" viewBox="0 0 500 500">
<g fill="none" stroke="#000000" stroke-width="16" stroke-linecap="round" stroke-linejoin="round">

  <path d="M 250 80
           C 300 150 200 190 230 250
           C 200 240 190 270 200 300
           C 150 270 150 190 200 150
           C 190 190 220 200 220 170
           C 250 190 240 130 250 80 Z"/>
  <path d="M 250 200
           C 280 240 290 280 260 320
           C 270 300 250 290 250 270
           C 220 300 220 340 250 370
           C 190 350 170 300 200 260
           C 210 280 230 280 230 260
           C 235 235 245 215 250 200 Z"/>

</g>
</svg>