<svg xmlns="http://www.w3.org/2000/svg" viewBox="0 0 500 500">
<g fill="none" stroke="#000000" stroke-width="16" stroke-linecap="round" stroke-linejoin="round">

  <path d="M 150 90 C 130 120 110 150 110 190 C 110 230 130 260 150 290"/>
  <path d="M 350 90 C 370 120 390 150 390 190 C 390 230 370 260 350 290"/>
  <path d="M 190 210 C 205 230 225 240 250 240 C 275 240 295 230 310 210"/>
  <rect x="205" y="255" width="35" height="30" rx="6"/>
  <rect x="260" y="255" width="35" height="30" rx="6"/>
  <rect x="205" y="295" width="35" height="30" rx="6"/>
  <rect x="260" y="295" width="35" height="30" rx="6"/>
  <rect x="205" y="335" width="35" height="30" rx="6"/>
  <rect x="260" y="335" width="35" height="30" rx="6"/>

</g>
</svg>