<?xml version="1.0" encoding="UTF-8"?>
<svg version="1.1" xmlns="http://www.w3.org/2000/svg" width="500" height="500">
<path d="M0 0 C0.84452728 -0.00953201 1.68905457 -0.01906403 2.55917358 -0.02888489 C3.46857697 -0.02797348 4.37798035 -0.02706207 5.31494141 -0.02612305 C6.25326813 -0.03040817 7.19159485 -0.0346933 8.15835571 -0.03910828 C10.14381097 -0.04485219 12.12928727 -0.04535139 14.11474609 -0.04101562 C17.14799081 -0.03786105 20.18025519 -0.06129535 23.21337891 -0.08666992 C25.14306518 -0.08894349 27.07275407 -0.08964615 29.00244141 -0.08862305 C29.90779633 -0.09783279 30.81315125 -0.10704254 31.74594116 -0.11653137 C40.1731645 -0.05483713 40.1731645 -0.05483713 43.79150391 3.2746582 C44.80224609 5.83081055 44.80224609 5.83081055 45.33837891 8.8605957 C45.54333984 9.95629883 45.74830078 11.05200195 45.95947266 12.1809082 C46.24757813 13.89793945 46.24757813 13.89793945 46.54150391 15.6496582 C46.74904297 16.78661133 46.95658203 17.92356445 47.17041016 19.0949707 C47.55606262 21.21481524 47.93299503 23.33627811 48.29833984 25.4597168 C48.54245605 26.85311279 48.54245605 26.85311279 48.79150391 28.2746582 C48.91211182 29.18465576 49.03271973 30.09465332 49.15698242 31.03222656 C49.36637451 31.772229 49.5757666 32.51223145 49.79150391 33.2746582 C52.24989108 34.61752567 54.36562753 35.55800429 56.97900391 36.4621582 C57.63964844 36.70901367 58.30029297 36.95586914 58.98095703 37.21020508 C60.2918935 37.69549745 61.61005265 38.16173837 62.93481445 38.60791016 C64.79150391 39.2746582 64.79150391 39.2746582 67.82275391 40.7668457 C71.22221153 41.34833188 71.61549377 41.09007221 74.34228516 39.23950195 C75.61057478 38.24852539 76.86399738 37.23830485 78.10400391 36.2121582 C79.43094534 35.18160593 80.76036115 34.15423143 82.09228516 33.13012695 C82.72859863 32.63432129 83.36491211 32.13851562 84.02050781 31.62768555 C88.60438944 28.12563537 92.53797402 25.43280065 98.35400391 25.0246582 C106.75622575 28.0800116 113.37260977 36.64467988 119.60400391 42.8371582 C120.44898438 43.66151367 121.29396484 44.48586914 122.16455078 45.33520508 C130.28040734 53.39949146 130.28040734 53.39949146 131.79150391 58.2746582 C131.76873446 63.85317325 128.92983326 67.81593039 125.97900391 72.3371582 C125.54007813 73.03131836 125.10115234 73.72547852 124.64892578 74.44067383 C122.70916437 77.47569429 120.75613749 80.31775173 118.46728516 83.10668945 C116.52394238 85.16411533 116.52394238 85.16411533 116.79150391 87.8996582 C117.9681515 91.87084383 119.36335902 95.72744442 120.85400391 99.59106445 C121.74719872 102.1478346 122.32891955 104.60997955 122.79150391 107.2746582 C123.52111328 107.37262695 124.25072266 107.4705957 125.00244141 107.5715332 C131.88918608 108.55778306 138.68043825 109.80388682 145.47900391 111.2746582 C146.26903809 111.440625 147.05907227 111.6065918 147.87304688 111.77758789 C153.55344665 113.03660095 153.55344665 113.03660095 155.79150391 115.2746582 C157.103015 119.72660526 156.95298778 124.29768225 156.95947266 128.8996582 C156.96280106 129.7241748 156.96612946 130.54869141 156.96955872 131.39819336 C156.97460683 133.1363062 156.9769677 134.87442867 156.97680664 136.61254883 C156.97899652 139.26570599 156.99718375 141.91844932 157.01611328 144.5715332 C157.019047 146.26424012 157.02103194 147.956949 157.02197266 149.6496582 C157.03275093 150.83422607 157.03275093 150.83422607 157.04374695 152.04272461 C157.02659623 156.19168185 156.89725057 159.63804532 154.79150391 163.2746582 C149.24282879 166.04899576 143.65970451 166.88535434 137.56103516 167.8059082 C134.49856556 168.32423874 131.70504962 169.20872685 128.79150391 170.2746582 C127.88400391 170.3777832 126.97650391 170.4809082 126.04150391 170.5871582 C125.29900391 170.8140332 124.55650391 171.0409082 123.79150391 171.2746582 C122.73678467 173.52061593 122.73678467 173.52061593 121.79150391 176.2746582 C120.50405371 179.36293438 119.20875751 182.44784102 117.91259766 185.5324707 C117.14042678 187.42119529 116.436758 189.33889592 115.79150391 191.2746582 C117.0475085 193.66397156 117.0475085 193.66397156 118.93994141 196.16918945 C119.95314453 197.60294922 119.95314453 197.60294922 120.98681641 199.06567383 C122.4317071 201.06858235 123.87701483 203.07119009 125.32275391 205.07348633 C126.00080078 206.03319336 126.67884766 206.99290039 127.37744141 207.98168945 C128.0069873 208.852854 128.6365332 209.72401855 129.28515625 210.62158203 C131.05126577 213.73216748 131.74918669 215.684748 131.79150391 219.2746582 C129.45157642 224.4329797 126.30418923 228.19108079 122.25634766 232.13793945 C121.73641739 232.65599655 121.21648712 233.17405365 120.68080139 233.70780945 C119.59092741 234.79101347 118.49748787 235.87064096 117.40063477 236.94677734 C115.72286758 238.59317981 114.05620215 240.25020915 112.39111328 241.90942383 C111.3259817 242.96539178 110.26024748 244.02075228 109.19384766 245.07543945 C108.69690903 245.5681282 108.1999704 246.06081696 107.68797302 246.56843567 C102.02745407 252.11259121 102.02745407 252.11259121 97.60400391 252.69262695 C92.69799108 252.15477514 89.81778172 250.3060527 85.79150391 247.5871582 C85.11861328 247.15209961 84.44572266 246.71704102 83.75244141 246.26879883 C81.06567008 244.51824801 78.42368926 242.79407265 75.94384766 240.7565918 C73.98152102 239.10125188 73.98152102 239.10125188 70.79150391 237.2746582 C67.73800267 237.77100354 67.73800267 237.77100354 64.79150391 239.2746582 C63.57333984 239.45899414 62.35517578 239.64333008 61.10009766 239.83325195 C54.74398726 241.2710899 54.74398726 241.2710899 49.79150391 245.2746582 C46.78270084 252.87296192 46.09780961 261.24040098 45.35302734 269.32373047 C44.73403872 272.57665024 43.74727558 274.61653759 41.79150391 277.2746582 C39.47900391 278.05200195 39.47900391 278.05200195 36.79150391 278.2746582 C35.84275391 278.37907227 34.89400391 278.48348633 33.91650391 278.59106445 C23.49149742 279.41203371 13.16856013 279.47766049 2.72900391 278.9621582 C1.50052734 278.90415039 0.27205078 278.84614258 -0.99365234 278.78637695 C-4.49079332 278.22972389 -5.6926905 277.69381469 -8.20849609 275.2746582 C-9.08984375 272.734375 -9.08984375 272.734375 -9.62255859 269.72387695 C-9.92806641 268.08708984 -9.92806641 268.08708984 -10.23974609 266.41723633 C-10.43568359 265.27706055 -10.63162109 264.13688477 -10.83349609 262.9621582 C-11.23895585 260.71544922 -11.64770906 258.46933163 -12.06005859 256.22387695 C-12.23359863 255.22702881 -12.40713867 254.23018066 -12.5859375 253.203125 C-13.5166422 247.46450421 -13.5166422 247.46450421 -16.84082031 243.05859375 C-17.4752002 242.84501221 -18.10958008 242.63143066 -18.76318359 242.41137695 C-19.46056641 242.16452148 -20.15794922 241.91766602 -20.87646484 241.66333008 C-21.96894531 241.31625 -21.96894531 241.31625 -23.08349609 240.9621582 C-23.80408203 240.71143555 -24.52466797 240.46071289 -25.26708984 240.20239258 C-27.23956787 239.52492084 -29.21142891 238.87563466 -31.20849609 238.2746582 C-31.87212158 238.04020996 -32.53574707 237.80576172 -33.21948242 237.56420898 C-35.87615952 237.17746306 -36.70868178 237.88042822 -38.85302734 239.44262695 C-39.53042969 239.9240918 -40.20783203 240.40555664 -40.90576172 240.90161133 C-41.95280273 241.67408203 -41.95280273 241.67408203 -43.02099609 242.4621582 C-55.78837217 251.6810429 -55.78837217 251.6810429 -61.52099609 253.0871582 C-66.88824868 251.90454323 -69.63316095 248.88112139 -73.44873047 245.0402832 C-75.61380688 242.86799788 -77.81049841 240.72932674 -80.00537109 238.5871582 C-81.74120062 236.88030282 -83.47556033 235.17195148 -85.20849609 233.4621582 C-86.05831055 232.62579834 -86.908125 231.78943848 -87.78369141 230.92773438 C-88.58387695 230.12827393 -89.3840625 229.32881348 -90.20849609 228.50512695 C-90.93037109 227.78736084 -91.65224609 227.06959473 -92.39599609 226.33007812 C-95.07847018 223.28808603 -96.17356812 221.28756931 -96.31396484 217.21606445 C-95.08466145 210.40496099 -89.36096642 204.65838978 -85.31591797 199.28051758 C-84.63722656 198.33885742 -83.95853516 197.39719727 -83.25927734 196.42700195 C-82.62675049 195.58129639 -81.99422363 194.73559082 -81.3425293 193.86425781 C-79.885674 191.24470148 -79.885674 191.24470148 -80.94824219 188.16259766 C-81.36412598 187.20957764 -81.78000977 186.25655762 -82.20849609 185.2746582 C-82.57587891 184.16606445 -82.94326172 183.0574707 -83.32177734 181.9152832 C-83.71751953 180.79637695 -84.11326172 179.6774707 -84.52099609 178.5246582 C-85.10300781 176.83083008 -85.10300781 176.83083008 -85.69677734 175.1027832 C-87.55806804 171.62067865 -88.54464022 171.47894384 -92.20849609 170.2746582 C-94.1499861 169.77101583 -96.10170387 169.30577245 -98.06005859 168.87231445 C-99.15833984 168.6215918 -100.25662109 168.37086914 -101.38818359 168.11254883 C-103.69166403 167.59413515 -105.99637095 167.0811424 -108.30224609 166.57348633 C-109.39794922 166.32147461 -110.49365234 166.06946289 -111.62255859 165.80981445 C-112.6223877 165.58688721 -113.6222168 165.36395996 -114.65234375 165.13427734 C-117.35532639 164.22528003 -118.54216584 163.5656492 -120.20849609 161.2746582 C-121.59444823 153.51973528 -121.39199947 145.63201284 -121.39599609 137.7746582 C-121.40824219 136.50750977 -121.42048828 135.24036133 -121.43310547 133.93481445 C-121.44385325 127.0490719 -121.03629673 120.92120599 -119.20849609 114.2746582 C-112.66117093 112.24109132 -105.99410129 110.96446672 -99.27099609 109.6496582 C-98.11019531 109.42020508 -96.94939453 109.19075195 -95.75341797 108.9543457 C-92.90561847 108.39181741 -90.05731416 107.83200103 -87.20849609 107.2746582 C-86.92361328 106.06165039 -86.63873047 104.84864258 -86.34521484 103.59887695 C-85.29545781 99.39151007 -83.71622487 95.60781761 -81.91552734 91.66918945 C-81.0162165 88.62345715 -81.17125655 87.28927355 -82.20849609 84.2746582 C-83.69002428 81.67191363 -85.36852621 79.22808538 -87.08349609 76.7746582 C-96.12077079 63.62242845 -96.12077079 63.62242845 -95.84912109 57.7043457 C-94.62005198 53.04287627 -91.2102057 50.12480412 -87.82324219 46.85131836 C-85.93467958 45.00730002 -84.09788868 43.11768606 -82.25927734 41.22387695 C-80.84777988 39.78123393 -79.43501367 38.3398312 -78.02099609 36.8996582 C-77.34423828 36.20928467 -76.66748047 35.51891113 -75.97021484 34.80761719 C-66.81455067 25.64409889 -66.81455067 25.64409889 -61.14990234 24.84106445 C-57.76825867 25.33955376 -55.96236868 26.29249776 -53.14599609 28.2121582 C-52.18822266 28.83219727 -51.23044922 29.45223633 -50.24365234 30.09106445 C-48.04968973 31.66947514 -46.17361509 33.1773864 -44.20458984 34.98950195 C-40.94420184 37.84652705 -38.34480885 39.79931389 -34.20849609 41.2746582 C-28.67203034 40.53687471 -23.69949056 37.7993782 -18.90332031 35.06005859 C-17.20849609 34.2746582 -17.20849609 34.2746582 -14.20849609 34.2746582 C-14.10303467 33.62505127 -13.99757324 32.97544434 -13.88891602 32.30615234 C-13.39888547 29.31518458 -12.89751652 26.32621995 -12.39599609 23.3371582 C-12.23035156 22.31557617 -12.06470703 21.29399414 -11.89404297 20.24145508 C-9.68983236 7.22413584 -9.68983236 7.22413584 -7.20849609 2.2746582 C-4.13184286 0.22355604 -3.47613208 0.02158048 0 0 Z M2.79150391 11.2746582 C-0.49593097 19.37429216 -1.60395132 27.58893837 -2.74365234 36.2355957 C-3.20849609 39.2746582 -3.20849609 39.2746582 -4.20849609 42.2746582 C-6.03100586 43.28613281 -6.03100586 43.28613281 -8.39990234 44.17700195 C-9.26292969 44.51022461 -10.12595703 44.84344727 -11.01513672 45.18676758 C-11.92457031 45.52514648 -12.83400391 45.86352539 -13.77099609 46.2121582 C-15.54444386 46.88448793 -17.31659964 47.56023617 -19.08740234 48.23950195 C-19.95510254 48.56934082 -20.82280273 48.89917969 -21.71679688 49.23901367 C-24.06572023 50.21531515 -26.20789236 51.34731384 -28.42333984 52.59106445 C-32.40189093 54.5986132 -34.86069815 54.64890711 -39.20849609 53.2746582 C-42.29900733 51.51514445 -45.11771335 49.47146356 -47.95849609 47.3371582 C-48.71259766 46.78608398 -49.46669922 46.23500977 -50.24365234 45.66723633 C-51.63978463 44.64679506 -53.03189622 43.62081167 -54.41845703 42.58740234 C-57.40891514 40.11244543 -57.40891514 40.11244543 -61.03271484 39.3293457 C-64.23789906 40.7219033 -66.52844855 43.01445653 -69.02099609 45.3996582 C-69.54781982 45.89739746 -70.07464355 46.39513672 -70.61743164 46.90795898 C-71.66757485 47.9028315 -72.7149238 48.9006629 -73.75927734 49.90161133 C-75.01082989 51.08738146 -76.29443859 52.2391466 -77.58349609 53.3840332 C-78.22287109 53.96668945 -78.86224609 54.5493457 -79.52099609 55.1496582 C-80.07400391 55.64208008 -80.62701172 56.13450195 -81.19677734 56.6418457 C-82.45201463 58.29018595 -82.45201463 58.29018595 -81.9375 60.61328125 C-81.17562715 63.39465296 -80.20693393 65.1407665 -78.55615234 67.48950195 C-78.02699219 68.25842773 -77.49783203 69.02735352 -76.95263672 69.81958008 C-76.39769531 70.60913086 -75.84275391 71.39868164 -75.27099609 72.2121582 C-68.05075484 82.50627994 -68.05075484 82.50627994 -67.20849609 87.2746582 C-67.89990234 90.22387695 -67.89990234 90.22387695 -69.20849609 93.2746582 C-69.67126953 94.37422852 -70.13404297 95.47379883 -70.61083984 96.60668945 C-71.39491802 98.38433235 -72.17951338 100.16177806 -72.97558594 101.93408203 C-74.51855299 105.4337236 -75.56799545 108.72651508 -76.33349609 112.4621582 C-77.02490234 114.5793457 -77.02490234 114.5793457 -78.20849609 116.2746582 C-82.03069052 118.12171512 -86.04515571 118.59519413 -90.20849609 119.2746582 C-93.44576734 119.94720439 -96.66981762 120.67608023 -99.89599609 121.3996582 C-100.69851807 121.57086182 -101.50104004 121.74206543 -102.32788086 121.91845703 C-106.07633816 122.44751231 -106.07633816 122.44751231 -109.20849609 124.2746582 C-109.47745515 127.26010373 -109.68312432 130.22018144 -109.83349609 133.2121582 C-109.87853271 134.07429932 -109.92356934 134.93644043 -109.9699707 135.82470703 C-110.23886513 141.75659629 -110.07706012 147.38772425 -109.20849609 153.2746582 C-104.6272075 155.23181968 -100.56070805 156.46779053 -95.60693359 157.0637207 C-80.22209456 159.06473388 -80.22209456 159.06473388 -76.64599609 162.98950195 C-74.38282234 167.13595958 -73.49862125 171.57820128 -72.66357422 176.19213867 C-71.82071067 180.04923421 -69.88187668 183.39471298 -68.09130859 186.88012695 C-66.90367244 190.10145864 -66.64977303 191.84015468 -67.20849609 195.2746582 C-69.06173114 198.50589127 -71.29951767 201.40027034 -73.58349609 204.3371582 C-74.78356154 205.90775668 -75.97903578 207.48187602 -77.16943359 209.05981445 C-77.70358887 209.74954346 -78.23774414 210.43927246 -78.78808594 211.14990234 C-80.31787464 213.43827482 -81.27330285 215.69258908 -82.20849609 218.2746582 C-76.01131132 225.73381515 -69.10433017 232.47215121 -62.20849609 239.2746582 C-58.50368516 237.93453255 -55.5389751 236.26843675 -52.33740234 233.98168945 C-50.98098633 233.03712891 -50.98098633 233.03712891 -49.59716797 232.07348633 C-47.71013019 230.74721306 -45.8298939 229.41121041 -43.95654297 228.06567383 C-43.05097656 227.43983398 -42.14541016 226.81399414 -41.21240234 226.16918945 C-40.39586182 225.59015869 -39.57932129 225.01112793 -38.73803711 224.41455078 C-35.44458491 222.93041524 -33.65420732 223.3428789 -30.20849609 224.2746582 C-28.21728516 225.07495117 -28.21728516 225.07495117 -26.47412109 226.0168457 C-25.48798828 226.53311523 -25.48798828 226.53311523 -24.48193359 227.05981445 C-23.14834831 227.77809687 -21.81500893 228.49683606 -20.48193359 229.21606445 C-15.22721671 231.96610111 -9.93006129 233.73310422 -4.20849609 235.2746582 C-4.09779785 235.85844238 -3.98709961 236.44222656 -3.87304688 237.04370117 C-3.36037143 239.74578354 -2.84693696 242.44772118 -2.33349609 245.1496582 C-2.07246094 246.52637695 -2.07246094 246.52637695 -1.80615234 247.9309082 C-1.27719027 250.7128569 -0.74287516 253.49374563 -0.20849609 256.2746582 C0.06075684 257.70600098 0.06075684 257.70600098 0.33544922 259.16625977 C0.50915039 260.07085937 0.68285156 260.97545898 0.86181641 261.9074707 C1.01666504 262.7236084 1.17151367 263.53974609 1.33105469 264.38061523 C1.617466 266.2739734 1.617466 266.2739734 2.79150391 267.2746582 C5.01005655 267.36249362 7.23138887 267.38160429 9.45166016 267.37231445 C10.11612656 267.37089951 10.78059296 267.36948456 11.4651947 267.36802673 C13.5948429 267.36241338 15.7243873 267.34985874 17.85400391 267.3371582 C19.2947576 267.33214492 20.73551294 267.32758171 22.17626953 267.32348633 C25.71471493 267.31243965 29.25309929 267.29516612 32.79150391 267.2746582 C34.13952122 263.44735871 35.16593861 259.7650545 35.82666016 255.76293945 C35.99617187 254.75811523 36.16568359 253.75329102 36.34033203 252.71801758 C36.50984375 251.68483398 36.67935547 250.65165039 36.85400391 249.5871582 C37.19697519 247.52040557 37.54193729 245.45398205 37.88916016 243.38793945 C38.03877197 242.47826416 38.18838379 241.56858887 38.3425293 240.63134766 C38.79150391 238.2746582 38.79150391 238.2746582 39.79150391 235.2746582 C42.67822266 234.1340332 42.67822266 234.1340332 46.47900391 233.0246582 C53.39925723 230.92503029 59.4594686 228.04705084 65.76806641 224.5324707 C69.24102815 223.08764682 70.26329596 223.22693744 73.79150391 224.2746582 C76.1315918 225.6574707 76.1315918 225.6574707 78.51416016 227.3996582 C79.38234375 228.02356445 80.25052734 228.6474707 81.14501953 229.2902832 C82.03898438 229.94512695 82.93294922 230.5999707 83.85400391 231.2746582 C85.63253801 232.57185177 87.41494579 233.86375522 89.20166016 235.1496582 C90.3793396 236.01204102 90.3793396 236.01204102 91.58081055 236.8918457 C94.48343345 238.74130082 94.48343345 238.74130082 97.79150391 239.2746582 C100.10618501 237.72084782 100.10618501 237.72084782 102.30322266 235.3918457 C103.14304687 234.55395508 103.98287109 233.71606445 104.84814453 232.8527832 C105.71632813 231.96075195 106.58451172 231.0687207 107.47900391 230.1496582 C108.79868164 228.84641602 108.79868164 228.84641602 110.14501953 227.5168457 C115.76297491 222.31778542 115.76297491 222.31778542 117.79150391 215.2746582 C116.79102044 213.01814705 116.79102044 213.01814705 115.11572266 210.9543457 C114.535 210.17188477 113.95427734 209.38942383 113.35595703 208.58325195 C112.7365625 207.78016602 112.11716797 206.97708008 111.47900391 206.1496582 C110.27456887 204.54289333 109.07014147 202.93612273 107.86572266 201.3293457 C107.05494263 200.26949463 107.05494263 200.26949463 106.2277832 199.18823242 C102.77788549 194.59188731 102.77788549 194.59188731 102.92431641 191.1809082 C103.77328914 186.44060296 105.73425045 182.15858808 107.66650391 177.7746582 C108.01841797 176.95868164 108.37033203 176.14270508 108.73291016 175.30200195 C109.42368842 173.70216977 110.12316308 172.1060595 110.83203125 170.51416016 C111.44242585 169.08944013 112.01068808 167.6453662 112.52050781 166.18164062 C113.19775391 164.28637695 113.19775391 164.28637695 114.79150391 161.2746582 C117.33056641 160.07543945 117.33056641 160.07543945 120.41650391 159.5871582 C121.55732422 159.3809082 122.69814453 159.1746582 123.87353516 158.9621582 C125.16646484 158.7352832 126.45939453 158.5084082 127.79150391 158.2746582 C130.90499674 157.58381223 134.00393577 156.83564136 137.10400391 156.0871582 C138.57906522 155.73865815 140.05430955 155.39093131 141.52978516 155.04418945 C142.60615234 154.79024414 143.68251953 154.53629883 144.79150391 154.2746582 C145.5981802 147.60517383 145.89935115 140.98638847 145.91650391 134.2746582 C145.92101562 133.5328833 145.92552734 132.7911084 145.93017578 132.02685547 C145.92140979 128.84443685 145.80503239 126.31524366 144.79150391 123.2746582 C139.86416226 121.09165874 134.58480839 120.52378839 129.29150391 119.7746582 C126.11402835 119.32496882 122.95310759 118.82428536 119.79150391 118.2746582 C118.68033203 118.11223633 117.56916016 117.94981445 116.42431641 117.7824707 C112.11504942 115.31455222 111.51796078 111.23542692 110.16650391 106.6496582 C109.61714427 104.88496994 109.06250468 103.12191618 108.50244141 101.3605957 C108.23270508 100.50046875 107.96296875 99.6403418 107.68505859 98.75415039 C106.5888204 95.71223916 105.12809242 93.00398409 103.45019531 90.24584961 C102.46391666 87.29432485 103.00708778 85.25487039 103.79150391 82.2746582 C105.20605469 79.82104492 105.20605469 79.82104492 106.98681641 77.4543457 C107.61974609 76.58938477 108.25267578 75.72442383 108.90478516 74.83325195 C110.25249156 73.03543778 111.60146267 71.23857102 112.95166016 69.44262695 C113.58201172 68.58024414 114.21236328 67.71786133 114.86181641 66.8293457 C115.73990967 65.66121338 115.73990967 65.66121338 116.63574219 64.46948242 C118.00718442 62.36251427 118.00718442 62.36251427 117.55004883 60.09741211 C114.0700007 51.73499199 104.18526946 44.57393461 97.79150391 38.2746582 C93.83482807 40.43714992 90.09302876 42.71261917 86.41650391 45.32543945 C85.27955078 46.12498047 85.27955078 46.12498047 84.11962891 46.94067383 C82.5582837 48.04488021 81.00620422 49.16229799 79.46337891 50.29223633 C75.75646611 52.86753204 73.7143564 54.26780049 69.11181641 54.30200195 C64.57741931 52.89900615 60.53285432 50.95582797 56.29150391 48.8449707 C52.84050562 47.18040559 52.84050562 47.18040559 49.16650391 46.3293457 C45.50733508 45.35737898 42.8597832 44.5073793 39.79150391 42.2746582 C37.92781678 37.69485888 37.42955762 33.31948288 37.01416016 28.4230957 C36.65881271 24.99430454 35.91139557 21.70296497 35.16650391 18.3371582 C34.92673828 17.19375977 34.68697266 16.05036133 34.43994141 14.87231445 C34.04994925 12.36150383 34.04994925 12.36150383 32.79150391 11.2746582 C30.57295126 11.18682279 28.35161894 11.16771212 26.13134766 11.17700195 C25.46688126 11.1784169 24.80241486 11.17983185 24.11781311 11.18128967 C21.98816492 11.18690302 19.85862051 11.19945767 17.72900391 11.2121582 C16.28825021 11.21717149 14.84749488 11.22173469 13.40673828 11.22583008 C9.86829289 11.23687675 6.32990852 11.25415029 2.79150391 11.2746582 Z " fill="#020001" transform="translate(232.20849609375,113.725341796875)"/>
<path d="M0 0 C11.02558796 10.55992961 20.33060748 24.36183192 21.34082031 40.06298828 C21.38673042 42.9366404 21.4149491 45.80960591 21.4296875 48.68359375 C21.460625 50.15699219 21.460625 50.15699219 21.4921875 51.66015625 C21.57835558 68.03209219 14.70085667 83.83430867 3.38208008 95.59985352 C-9.35977048 108.18889792 -25.07758352 114.52155477 -42.953125 114.62109375 C-61.03684747 114.30557208 -76.14074842 107.57805959 -89.3984375 95.20703125 C-103.72721392 79.5378209 -107.72405597 61.62696827 -106.96386719 40.98144531 C-105.92609186 23.46633926 -96.02104881 9.76124807 -83.46484375 -1.56640625 C-59.64108914 -21.13140119 -23.2371709 -20.11527952 0 0 Z M-82.8203125 14.55859375 C-86.44545962 18.57863914 -86.44545962 18.57863914 -87.8203125 23.55859375 C-88.4803125 23.88859375 -89.1403125 24.21859375 -89.8203125 24.55859375 C-95.6810804 34.32654025 -97.50565893 48.64409154 -95.01171875 59.76171875 C-90.84821531 75.20844416 -81.93398096 87.73375263 -68.0703125 95.93359375 C-55.30596283 103.07590054 -42.21798554 104.15779356 -28.20703125 100.67578125 C-20.42675574 98.10927745 -12.9394331 94.03655649 -6.8203125 88.55859375 C-6.8203125 87.89859375 -6.8203125 87.23859375 -6.8203125 86.55859375 C-6.1603125 86.55859375 -5.5003125 86.55859375 -4.8203125 86.55859375 C5.26419754 74.31311727 10.79484288 60.49262998 10.02734375 44.35546875 C8.04681663 29.94477619 1.00435922 17.1675356 -9.8203125 7.55859375 C-10.56023437 6.89859375 -11.30015625 6.23859375 -12.0625 5.55859375 C-15.30353856 3.20815219 -18.66825579 1.7772927 -22.3828125 0.37109375 C-23.04216797 0.11134766 -23.70152344 -0.14839844 -24.38085938 -0.41601562 C-46.33159802 -8.9536396 -66.64884247 -1.96304591 -82.8203125 14.55859375 Z " fill="#020001" transform="translate(292.8203125,203.44140625)"/>
</svg>
