<?xml version="1.0" encoding="UTF-8"?>
<svg version="1.1" xmlns="http://www.w3.org/2000/svg" width="500" height="500">
<path d="M0 0 C6.01776077 6.21646042 7.11930492 10.47402272 7.62109375 19.08984375 C7.82961277 21.94734056 7.82961277 21.94734056 9.046875 24.07421875 C10.8967954 27.81196775 9.77539842 32.03475115 9 36 C7.625 39.1875 7.625 39.1875 6 42 C3.7743703 46.28639795 2.83578487 49.45988296 2.91796875 54.234375 C2.92981201 55.12866211 2.94165527 56.02294922 2.95385742 56.94433594 C2.976698 57.96188965 2.976698 57.96188965 3 59 C5.95583072 60.42193027 8.9149094 61.83696056 11.875 63.25 C12.74745361 63.66822021 13.61990723 64.08644043 14.51879883 64.51733398 C18.85710367 66.57947515 23.14133535 68.49461015 27.6875 70.0625 C33.86735069 72.46757278 38.33532739 76.74303186 41.34765625 82.63671875 C42.3390389 85.0707586 43.21204698 87.49368617 44 90 C44.33 90.99 44.66 91.98 45 93 C45.09412246 95.0853354 45.1831812 97.17110085 45.23901367 99.2578125 C45.67697194 114.4830461 46.74125193 130.74972321 54.53222656 144.15356445 C58.83902034 152.50567833 59.70427603 162.61793858 61.0625 171.8125 C62.53752355 184.79464942 62.53752355 184.79464942 68.875 195.8125 C73.79519374 201.69884087 76.58696316 207.28266842 77.4375 214.9375 C77 218 77 218 75.625 219.9375 C74 221 74 221 72 221 C72.11859375 221.58007812 72.2371875 222.16015625 72.359375 222.7578125 C73.06548037 227.03681102 73.30193964 229.34781038 71.4375 233.375 C67.78573699 237.30766786 64.81822576 238.77272178 59.5 239.4375 C55.28505848 238.91063231 53.32344009 237.60095312 50 235 C49.071875 234.29875 48.14375 233.5975 47.1875 232.875 C43.18664073 229.44569205 43.46075404 225.28341336 42.9375 220.3125 C42.84227051 219.45615967 42.74704102 218.59981934 42.64892578 217.7175293 C42.10967822 212.47766172 42.0551947 207.56403968 42.375 202.3125 C42.50075588 193.94075143 39.19478694 188.13596683 35.15527344 181.05566406 C33.19846603 177.57377091 31.41636059 174.00646074 29.625 170.4375 C29.29177734 169.79498291 28.95855469 169.15246582 28.61523438 168.49047852 C25.50298588 162.37382381 23.93637133 156.30978916 22.875 149.5625 C22.70742188 148.51191406 22.53984375 147.46132812 22.3671875 146.37890625 C22.24601563 145.59386719 22.12484375 144.80882812 22 144 C21.71240356 159.99921092 22.03553634 175.01216332 26.20703125 190.5546875 C32.66019522 218.59257231 33.8139868 250.04979688 27.375 278.125 C24.7710553 290.71958966 24.91971194 303.97738221 27.5 316.5625 C31.13143065 334.88735696 28.33824871 352.32123191 25.13500977 370.4987793 C23.63709387 379.09558761 22.57743402 387.23570113 23 396 C23.01909424 396.8453833 23.03818848 397.6907666 23.05786133 398.56176758 C23.28737465 406.04223254 27.55677818 410.29959693 32.375 415.625 C34 418 34 418 34.625 421 C33.72015854 425.34323901 31.62880876 426.60361685 28 429 C23.42561031 430.32482324 18.72578522 430.21931308 14 430.25 C12.80890625 430.2809375 12.80890625 430.2809375 11.59375 430.3125 C6.89814912 430.34380401 3.79381021 430.07528555 0 427 C-5.97076558 418.04385162 -3.7739802 406.6569383 -3.14794922 396.46728516 C-2.17967366 380.31977226 -4.77023184 365.6769014 -8.75 350.0625 C-10.8859001 341.00534985 -10.49977251 332.3341483 -8.75 323.25 C-7.7538777 316.9319376 -8.67155381 311.83283319 -10.25585938 305.75830078 C-12.16705201 298.12471613 -12.97760678 290.44674618 -13.75 282.625 C-13.94082153 280.70675415 -13.94082153 280.70675415 -14.13549805 278.74975586 C-14.57604468 274.1429761 -15 269.63023114 -15 265 C-15.66 265 -16.32 265 -17 265 C-17.07516846 266.07930786 -17.07516846 266.07930786 -17.15185547 267.18041992 C-19.30883525 297.7327424 -19.30883525 297.7327424 -21.86328125 307.19921875 C-23.78257062 314.34371 -23.92262775 319.48092069 -22.57421875 326.73828125 C-20.23813816 340.00785468 -23.51533808 352.007527 -26.58984375 364.90234375 C-28.19716534 371.70885864 -29.13987572 378.11853589 -29.125 385.125 C-29.1245166 385.79732666 -29.1240332 386.46965332 -29.12353516 387.16235352 C-29.09676738 391.24905418 -28.9434918 395.31481155 -28.703125 399.39453125 C-28.62360596 400.77390869 -28.62360596 400.77390869 -28.54248047 402.18115234 C-28.43362862 403.9726063 -28.31348366 405.76342238 -28.18017578 407.55322266 C-27.74114822 414.65835713 -27.79873583 421.358483 -32.5 427 C-36.82876959 430.46301567 -40.38898279 430.18325869 -45.75 430.1875 C-46.54921875 430.19974609 -47.3484375 430.21199219 -48.171875 430.22460938 C-54.14290085 430.23934052 -58.68622548 429.40838449 -63.875 426.25 C-66 424 -66 424 -66.41015625 421.21875 C-65.87945177 417.05398345 -64.32441941 415.36954704 -61.5625 412.25 C-54.25009438 403.87334756 -54.39607552 394.83430335 -55 384 C-55.64988487 378.65410316 -56.63163577 373.35529574 -57.56594849 368.05331421 C-60.7464446 349.80196694 -62.8035455 332.83013513 -59.08398438 314.51391602 C-56.47603757 300.96372413 -57.12081311 287.03442144 -60.48852539 273.69189453 C-67.80225728 244.68219406 -63.2472862 209.30035779 -55.9140625 180.66015625 C-52.94631263 168.77647409 -53.89540774 156.16005682 -54 144 C-54.17015625 144.95519531 -54.3403125 145.91039062 -54.515625 146.89453125 C-57.38452066 162.20039479 -63.10046978 174.28458945 -70.82666016 187.77099609 C-73.39494056 192.64998071 -74.19627087 196.09261493 -74 201.625 C-73.93279488 207.8323096 -74.14790348 213.93993457 -74.6875 220.125 C-74.74099609 220.93018066 -74.79449219 221.73536133 -74.84960938 222.56494141 C-75.25540477 226.75257349 -75.65108409 228.57881672 -78.4140625 231.9140625 C-79.26742187 232.60242188 -80.12078125 233.29078125 -81 234 C-81.886875 234.7425 -82.77375 235.485 -83.6875 236.25 C-87.62829249 239.23222134 -90.02953475 239.48101277 -95 239 C-98.6830172 237.34098324 -101.97757004 235.52886724 -104.25390625 232.125 C-105.1492879 229.57480304 -105.01637319 227.91133772 -104.625 225.25 C-104.51414063 224.45078125 -104.40328125 223.6515625 -104.2890625 222.828125 C-104.19367188 222.22484375 -104.09828125 221.6215625 -104 221 C-104.639375 220.87625 -105.27875 220.7525 -105.9375 220.625 C-106.618125 220.41875 -107.29875 220.2125 -108 220 C-109.86183649 216.27632702 -109.40802257 212.62106263 -108.421875 208.703125 C-106.58515928 203.4601365 -104.19937104 199.95546598 -100.4375 195.875 C-94.77961477 189.24481044 -93.97658238 182.34011801 -93 174 C-92.5375605 170.39351516 -92.05494018 166.79000471 -91.5625 163.1875 C-91.44011963 162.28708984 -91.31773926 161.38667969 -91.19165039 160.45898438 C-90.06337894 152.5952302 -88.28751532 145.6196566 -84.0078125 138.84765625 C-81.44485469 134.40844908 -80.65474956 129.82220393 -79.8125 124.8125 C-79.64234375 123.85432373 -79.4721875 122.89614746 -79.296875 121.90893555 C-78.2045608 115.36633905 -77.69280905 108.93691323 -77.5 102.3125 C-77.16519469 91.81955924 -75.41734074 83.50846814 -67.90625 75.7109375 C-62.50430929 70.86247432 -56.77878792 68.43556517 -49.96484375 66.11328125 C-44.7763675 64.16503918 -39.90436991 61.56773294 -35 59 C-34.57533903 51.18309245 -35.65146634 46.06476979 -39.625 39.1875 C-41.46822871 34.91456072 -42.16140154 30.6575874 -42 26 C-41.33764481 24.66451963 -40.67069789 23.33131009 -40 22 C-39.78522828 20.0480241 -39.64487519 18.0870273 -39.5625 16.125 C-39.0242189 8.96238864 -37.42566865 5.13140673 -32.125 0.25 C-29.20711499 -2.16737189 -26.71426469 -4.02256192 -23 -5 C-22.13375 -5.2475 -21.2675 -5.495 -20.375 -5.75 C-12.92058827 -6.30217865 -5.75171221 -4.94914772 0 0 Z M-28.3125 6.75 C-32.2305449 11.97405987 -32.10992028 17.48114276 -31.921875 23.71484375 C-32 26 -32 26 -33.25 28.6875 C-34.37506962 31.22834102 -34.37506962 31.22834102 -32.3125 34.3125 C-31.92578125 34.90289062 -31.5390625 35.49328125 -31.140625 36.1015625 C-29.94217452 38.09624378 -29.26958725 39.97579685 -28.5625 42.1875 C-26.96685419 46.71141888 -24.25764081 48.87117959 -20 51 C-15.29223 51.39231417 -12.92920303 51.47336758 -8.6875 49.3125 C-4.074834 45.34346181 -2.24960841 40.5751165 0 35 C0.433125 33.9275 0.86625 32.855 1.3125 31.75 C1.6528125 30.38875 1.6528125 30.38875 2 29 C1.34 28.01 0.68 27.02 0 26 C-0.08984375 23.80078125 -0.08984375 23.80078125 0.0625 21.3125 C0.1789677 15.17554794 -1.07373309 10.52407388 -4.8125 5.625 C-12.49500517 -0.08200384 -20.93550777 1.16741129 -28.3125 6.75 Z M-26 55 C-26.144375 56.19625 -26.28875 57.3925 -26.4375 58.625 C-27.39550265 62.35202403 -28.65192866 63.94848933 -31.8125 66.125 C-39.44170766 70.63149827 -47.48184807 74.25202226 -55.9375 76.875 C-60.62286851 78.52785595 -63.02742727 80.58176671 -65.87890625 84.609375 C-68.67756552 90.57724774 -69.22580587 96.49993403 -69.375 103 C-70.05234841 118.37825707 -71.43926747 133.65982074 -79.13793945 147.20458984 C-83.01357757 154.27391423 -83.6922678 161.56667502 -84.65820312 169.46777344 C-85.26583381 173.96944876 -86.12635063 178.41857172 -87 182.875 C-87.15436523 183.71321289 -87.30873047 184.55142578 -87.46777344 185.41503906 C-88.33987821 189.85171344 -89.330059 193.25808767 -92 197 C-92.50660156 197.72703125 -93.01320312 198.4540625 -93.53515625 199.203125 C-94.29119141 200.21632812 -94.29119141 200.21632812 -95.0625 201.25 C-95.56910156 201.93578125 -96.07570312 202.6215625 -96.59765625 203.328125 C-98 205 -98 205 -100 206 C-100 206.66 -100 207.32 -100 208 C-100.66 208 -101.32 208 -102 208 C-102 209.32 -102 210.64 -102 212 C-101.01 212 -100.02 212 -99 212 C-98.67 211.01 -98.34 210.02 -98 209 C-97.01 209 -96.02 209 -95 209 C-95 211.64 -95 214.28 -95 217 C-94.34 217 -93.68 217 -93 217 C-93 221.29 -93 225.58 -93 230 C-92.34 230 -91.68 230 -91 230 C-91 226.37 -91 222.74 -91 219 C-90.34 219 -89.68 219 -89 219 C-89 222.63 -89 226.26 -89 230 C-88.34 230 -87.68 230 -87 230 C-87 225.71 -87 221.42 -87 217 C-86.01 217 -85.02 217 -84 217 C-84 219.97 -84 222.94 -84 226 C-83.34 226 -82.68 226 -82 226 C-82.04189453 225.08412109 -82.08378906 224.16824219 -82.12695312 223.22460938 C-83.42370018 190.60895876 -83.42370018 190.60895876 -75.15527344 178.72265625 C-73.05217047 175.58666839 -71.37636955 172.21548466 -69.625 168.875 C-69.29177734 168.27026855 -68.95855469 167.66553711 -68.61523438 167.04248047 C-65.5043181 161.35883005 -63.85093426 156.60161505 -63.75 150.125 C-63.19103163 141.08834468 -59.64268164 133.1846859 -56.12475586 124.95166016 C-54.39230369 120.70692564 -53.67338698 117.64809468 -54.3125 113 C-54.43238281 112.05125 -54.55226562 111.1025 -54.67578125 110.125 C-54.78277344 109.42375 -54.88976562 108.7225 -55 108 C-50.53113201 109.58762415 -48.94685074 111.31643658 -46 115 C-41.9012062 117.27710767 -37.59764425 117.53244296 -33 118 C-33 119.32 -33 120.64 -33 122 C-37.42529333 124.21264666 -42.96526141 123.29045294 -47.5625 122 C-48.366875 121.67 -49.17125 121.34 -50 121 C-49.41236419 126.18032342 -48.55987608 131.15321974 -47.4375 136.25 C-45.50879103 145.82139005 -45.66195057 155.28107878 -46 165 C-46.04640625 166.7634375 -46.04640625 166.7634375 -46.09375 168.5625 C-46.38565202 174.40054038 -47.37916927 179.84638227 -48.8125 185.5 C-56.47056149 216.31373349 -60.24456638 255.26630087 -50 286 C-49.26419185 295.69037038 -49.19783405 305.8540729 -51.5 315.3125 C-55.63450105 333.48045174 -52.81967018 351.87393478 -49.19140625 369.875 C-47.42412441 378.65146708 -46.75894131 387.05545399 -47 396 C-46.99033203 397.25490234 -46.99033203 397.25490234 -46.98046875 398.53515625 C-47.22715397 405.94745989 -50.4722155 411.23831579 -55 417 C-55.66 417.33 -56.32 417.66 -57 418 C-57 418.99 -57 419.98 -57 421 C-51.07069473 422.05409871 -45.01157788 422.5881975 -39 422 C-36.59925157 419.59925157 -36.62458272 418.68000719 -36.3125 415.375 C-36.18294922 414.14910156 -36.18294922 414.14910156 -36.05078125 412.8984375 C-35.9990052 409.94321993 -36.34243877 407.15137742 -36.73999023 404.22753906 C-38.96133722 385.19695698 -35.80038124 366.02172964 -30.84765625 347.65234375 C-29.20146528 340.55930894 -29.49034178 332.94930212 -30.5 325.75 C-31.56803869 317.73970985 -30.9412643 310.52093921 -29.125 302.6875 C-27.44552081 294.90897464 -26.433124 287.27115573 -25.78955078 279.34594727 C-25.16919107 272.05038365 -24.12913357 264.85780751 -23 257.625 C-21.10977014 245.4499007 -19.87700284 233.28695239 -19 221 C-17.02 221 -15.04 221 -13 221 C-12.93006836 221.80816162 -12.86013672 222.61632324 -12.78808594 223.44897461 C-11.46806985 238.45832152 -9.96236546 253.3209869 -7.41333008 268.18066406 C-6.1428037 275.70472495 -5.34768861 283.19663856 -4.72290039 290.79858398 C-4.17928068 297.03899886 -3.03124945 302.88683945 -1.6015625 308.98828125 C-0.46495287 314.67870997 -0.73743233 320.0307425 -1.5 325.75 C-3.13146737 338.28263568 -1.17016763 349.11464943 1.7109375 361.2890625 C4.17007386 371.95203153 5.30268629 381.98267732 5.1875 392.9375 C5.1865332 394.72510742 5.1865332 394.72510742 5.18554688 396.54882812 C5.1603702 401.53101172 5.04269522 406.12047951 4 411 C4.01402152 413.37724088 4.01402152 413.37724088 4.3125 415.6875 C4.39113281 416.45449219 4.46976562 417.22148437 4.55078125 418.01171875 C4.86366011 420.21958746 4.86366011 420.21958746 7 422 C9.70631694 422.1720611 12.2971394 422.23239017 15 422.1875 C16.10601562 422.1865332 16.10601562 422.1865332 17.234375 422.18554688 C21.2479229 422.22791704 21.2479229 422.22791704 25 421 C25 420.01 25 419.02 25 418 C24.2575 417.2575 23.515 416.515 22.75 415.75 C16.61314133 409.61314133 15.29909609 404.41207757 15 396 C14.92265625 394.80310547 14.92265625 394.80310547 14.84375 393.58203125 C14.44595835 382.8913806 16.75857668 372.0925971 18.8671875 361.65234375 C22.10737656 345.12416394 22.54579261 328.26804846 18.68359375 311.83984375 C16.16366775 297.68505941 17.97029286 283.50581116 21.02734375 269.6015625 C23.03155541 260.33859844 23.27954369 251.2715021 23.3125 241.8125 C23.31511841 241.09223633 23.31773682 240.37197266 23.32043457 239.62988281 C23.3277703 220.60729085 20.97758283 201.92871788 16.29882812 183.47387695 C14.74855622 177.29397221 14.17497525 171.35510108 14 165 C13.96890137 164.28005859 13.93780273 163.56011719 13.90576172 162.81835938 C13.39491242 150.38341465 14.69503539 139.06273897 17.6328125 126.97265625 C18.12199696 124.67901402 18.12199696 124.67901402 18 121 C17.195625 121.33 16.39125 121.66 15.5625 122 C10.96526141 123.29045294 5.42529333 124.21264666 1 122 C1 120.68 1 119.36 1 118 C2.10408203 117.85304688 2.10408203 117.85304688 3.23046875 117.703125 C10.89570247 116.56689786 10.89570247 116.56689786 17 112 C17.66 111.01 18.32 110.02 19 109 C21.125 108.3125 21.125 108.3125 23 108 C23.06801114 110.92447891 23.11847364 113.53389851 22.39501953 116.38012695 C21.91770427 119.54580688 22.48972157 121.25081505 23.6171875 124.23046875 C24.15666016 125.68163086 24.15666016 125.68163086 24.70703125 127.16210938 C25.09246094 128.16048828 25.47789062 129.15886719 25.875 130.1875 C26.25269531 131.19748047 26.63039063 132.20746094 27.01953125 133.24804688 C28.84144839 138.19632716 28.84144839 138.19632716 31 143 C31.1051674 144.95728222 31.18423015 146.91599816 31.25 148.875 C32.07251145 159.91842585 37.20524488 168.75382098 42.70117188 178.13012695 C43.83242718 180.07044773 44.91625094 182.03282832 46 184 C46.38236816 184.62398682 46.76473633 185.24797363 47.15869141 185.89086914 C51.25872426 193.44026562 50.43860579 201.73804536 50.25 210.0625 C50.22990039 211.61130498 50.21165574 213.1601352 50.1953125 214.70898438 C50.15159863 218.47328817 50.08276632 222.23636063 50 226 C50.66 226 51.32 226 52 226 C52 223.03 52 220.06 52 217 C52.99 217 53.98 217 55 217 C55 221.29 55 225.58 55 230 C55.66 230 56.32 230 57 230 C57 226.37 57 222.74 57 219 C57.66 219 58.32 219 59 219 C59 222.63 59 226.26 59 230 C59.66 230 60.32 230 61 230 C61 225.71 61 221.42 61 217 C61.66 217 62.32 217 63 217 C63 214.36 63 211.72 63 209 C63.99 209 64.98 209 66 209 C66.33 209.99 66.66 210.98 67 212 C67.99 212 68.98 212 70 212 C70 210.68 70 209.36 70 208 C69.34 208 68.68 208 68 208 C68 207.34 68 206.68 68 206 C66.24140911 204.173771 64.4637656 202.3980448 62.5390625 200.74609375 C53.99738611 192.44289056 53.54928814 177.20880697 52.03833008 166.00317383 C50.99254559 158.30679267 49.66453202 151.77371308 45.625 145 C38.51073641 131.86540635 37.91203429 115.56712458 37.35302734 100.91015625 C36.97836619 92.27091074 35.55506822 85.07892894 29 79 C25.7899122 77.29343712 25.7899122 77.29343712 22.1875 76.125 C16.38849206 73.98707001 10.79475814 71.60893118 5.25 68.875 C4.57090576 68.55031738 3.89181152 68.22563477 3.19213867 67.89111328 C-0.41399539 66.0914737 -3.01723266 64.56755988 -5 61 C-5.6875 57.75 -5.6875 57.75 -6 55 C-6.969375 55.350625 -7.93875 55.70125 -8.9375 56.0625 C-14.6840407 57.72105443 -20.32770593 56.49810024 -26 55 Z M-97 217 C-97 220.96 -97 224.92 -97 229 C-96.34 229 -95.68 229 -95 229 C-95 225.04 -95 221.08 -95 217 C-95.66 217 -96.32 217 -97 217 Z M63 217 C63 220.96 63 224.92 63 229 C63.66 229 64.32 229 65 229 C65 225.04 65 221.08 65 217 C64.34 217 63.68 217 63 217 Z " fill="#020001" transform="translate(277,42)"/>
</svg>
