<?xml version="1.0" encoding="UTF-8"?>
<svg version="1.1" xmlns="http://www.w3.org/2000/svg" width="500" height="500">
<path d="M0 0 C1.73636719 -0.01836914 1.73636719 -0.01836914 3.5078125 -0.03710938 C5.16296875 -0.04000977 5.16296875 -0.04000977 6.8515625 -0.04296875 C7.86299316 -0.04707764 8.87442383 -0.05118652 9.91650391 -0.05541992 C12.375 0.1875 12.375 0.1875 14.375 2.1875 C14.63037109 4.70605469 14.63037109 4.70605469 14.6484375 7.859375 C14.6690625 8.99890625 14.6896875 10.1384375 14.7109375 11.3125 C14.73681004 13.71347147 14.7551399 16.11453703 14.765625 18.515625 C14.84581148 27.19190921 14.84581148 27.19190921 19.375 34.1875 C23.32915028 37.06679032 26.13949143 37.57165438 30.99609375 37.5859375 C32.89391602 37.59173828 32.89391602 37.59173828 34.83007812 37.59765625 C36.80137695 37.58025391 36.80137695 37.58025391 38.8125 37.5625 C40.12283203 37.57410156 41.43316406 37.58570313 42.78320312 37.59765625 C44.04970703 37.59378906 45.31621094 37.58992188 46.62109375 37.5859375 C47.77279053 37.58255371 48.9244873 37.57916992 50.11108398 37.57568359 C53.94250378 37.12000572 56.15139967 36.32059274 59.375 34.1875 C66.93930081 24.95592726 66.93930081 24.95592726 65.375 0.1875 C90.455 0.1875 115.535 0.1875 141.375 0.1875 C141.705 8.7675 142.035 17.3475 142.375 26.1875 C143.365 28.1675 144.355 30.1475 145.375 32.1875 C145.375 32.8475 145.375 33.5075 145.375 34.1875 C152.90913909 37.24188071 159.08550943 37.40494554 167.1875 37.4375 C169.09499023 37.4684375 169.09499023 37.4684375 171.04101562 37.5 C172.27142578 37.50515625 173.50183594 37.5103125 174.76953125 37.515625 C176.45332886 37.52964355 176.45332886 37.52964355 178.17114258 37.54394531 C183.29913919 36.9734298 186.45251162 35.31550087 189.70703125 31.3359375 C192.46453013 25.91223819 192.0136759 19.75602072 192.0625 13.8125 C192.10436229 11.45045215 192.14973386 9.08846295 192.19921875 6.7265625 C192.21041748 5.68709473 192.22161621 4.64762695 192.2331543 3.57666016 C192.375 1.1875 192.375 1.1875 193.375 0.1875 C197.36748309 -0.09644815 201.37364473 -0.04445556 205.375 -0.0625 C206.48746094 -0.083125 207.59992188 -0.10375 208.74609375 -0.125 C218.13137626 -0.16921806 225.8267292 0.93743071 232.87109375 7.5078125 C238.71758983 14.03766526 239.52423385 20.4563583 239.51544189 28.92204285 C239.51989858 30.25909121 239.51989858 30.25909121 239.5244453 31.62315065 C239.53313127 34.6162082 239.53464047 37.60922575 239.53613281 40.60229492 C239.54076109 42.74589117 239.54578577 44.88948659 239.55117798 47.03308105 C239.56430385 52.86177468 239.57074742 58.69045679 239.57518864 64.51916289 C239.57811933 68.16091743 239.58222415 71.80266882 239.58669281 75.44442177 C239.60036882 86.83915416 239.61003472 98.23387935 239.6138947 109.62861937 C239.61837452 122.78092249 239.63591853 135.93312163 239.6648953 149.08539313 C239.68651625 159.25198682 239.69659922 169.41855127 239.69793582 179.58516771 C239.69898363 185.65691359 239.70488645 191.72856176 239.72275543 197.80028343 C239.73924294 203.51383697 239.74138821 209.22721941 239.73261642 214.94078827 C239.73184639 217.03495301 239.73618425 219.12912698 239.74607468 221.22326851 C239.75881002 224.08839474 239.75290859 226.95291641 239.74249268 229.81803894 C239.75457728 231.05279938 239.75457728 231.05279938 239.76690602 232.31250447 C239.69789431 240.46337069 237.7560948 247.6160891 232.125 253.68359375 C225.63523235 259.26073783 218.57441319 260.336396 210.27391052 260.33467102 C209.33101876 260.33834771 208.38812699 260.3420244 207.41666275 260.3458125 C204.24318313 260.35686437 201.06973624 260.36069576 197.89624023 260.36450195 C195.62633662 260.37076555 193.35643404 260.37741226 191.08653259 260.38441467 C184.90855344 260.40183589 178.73058204 260.41237987 172.55258441 260.4206202 C168.69289754 260.42576884 164.83321308 260.43184469 160.97352791 260.43813133 C150.2822198 260.45500359 139.5909151 260.46963744 128.89959621 260.47688007 C126.12536556 260.4787899 123.35113492 260.48071024 120.5769043 260.48266602 C119.88740128 260.48314976 119.19789826 260.4836335 118.48750121 260.4841319 C107.32670498 260.49242598 96.16601615 260.51775175 85.00526678 260.55024669 C73.54000858 260.58335524 62.07483043 260.60099985 50.60951954 260.60452431 C44.174961 260.60687461 37.74057212 260.61583246 31.30605888 260.64098549 C25.24940043 260.66427816 19.1930232 260.6684944 13.13633156 260.65822411 C10.91680338 260.65772891 8.69726131 260.66404462 6.47777557 260.67778015 C3.43984043 260.69552425 0.40291172 260.68837999 -2.63502502 260.67524719 C-3.94231287 260.69170106 -3.94231287 260.69170106 -5.27601057 260.70848733 C-12.65789803 260.63181999 -19.30004119 258.68989076 -25.24609375 254.21484375 C-25.84550781 253.52519531 -26.44492188 252.83554687 -27.0625 252.125 C-27.98869141 251.11759766 -27.98869141 251.11759766 -28.93359375 250.08984375 C-35.07666169 239.54873641 -34.05185949 227.31664439 -34.01318359 215.54467773 C-34.01725383 213.46078212 -34.02259824 211.37688867 -34.02911377 209.29299927 C-34.0427385 203.6588071 -34.03750895 198.02478056 -34.02797651 192.39058566 C-34.0203558 186.48158255 -34.02743212 180.57259317 -34.03213501 174.66358948 C-34.03758511 164.74355536 -34.03042005 154.82358837 -34.01611328 144.90356445 C-33.99978375 133.44900844 -34.00508055 121.99461261 -34.0215925 110.54006046 C-34.03522321 100.68836997 -34.03711939 90.83672759 -34.02927649 80.98503071 C-34.02460929 75.10843186 -34.02394901 69.23190822 -34.03388596 63.35531425 C-34.04257655 57.83041921 -34.03649539 52.30572999 -34.01920319 46.78085709 C-34.01524973 44.7580671 -34.01635275 42.73525968 -34.02299118 40.71247673 C-34.09704746 15.84720083 -34.09704746 15.84720083 -25.52734375 6.87890625 C-17.68512154 -0.09374717 -10.0162163 0.00561447 0 0 Z M-20.625 61.1875 C-20.73088536 63.45205146 -20.76469882 65.71997097 -20.77217102 67.98698425 C-20.77584771 68.70639405 -20.7795244 69.42580385 -20.7833125 70.16701394 C-20.79439224 72.59596883 -20.79820043 75.024881 -20.80200195 77.45385742 C-20.80826347 79.18809141 -20.81490999 80.92232404 -20.82191467 82.65655518 C-20.83935587 87.38195005 -20.84988534 92.10733478 -20.8581202 96.8327539 C-20.86326473 99.78349151 -20.86934076 102.73422594 -20.87563133 105.68496132 C-20.89469381 114.91244918 -20.90892156 124.13992899 -20.9172433 133.36743277 C-20.92701461 144.02724206 -20.95332693 154.68684364 -20.99374419 165.34657973 C-21.02389019 173.57932373 -21.03871082 181.81200817 -21.04202431 190.0448063 C-21.04437695 194.9646333 -21.05336467 199.88423867 -21.07848549 204.80400658 C-21.10174409 209.43414319 -21.10600837 214.06391194 -21.09572411 218.6940918 C-21.09522806 220.39283279 -21.10156875 222.09159175 -21.11528015 223.79027748 C-21.13296785 226.11165872 -21.12590938 228.43171539 -21.11274719 230.75309753 C-21.11513555 232.05152682 -21.1175239 233.34995611 -21.11998463 234.68773174 C-20.35110651 240.12405253 -18.01658695 242.96586145 -13.95576382 246.53075409 C-9.58970124 248.70246506 -6.14285643 248.74528371 -1.33277893 248.69543457 C-0.40562496 248.70167453 0.52152902 248.7079145 1.47677857 248.71434355 C4.57909848 248.73028012 7.68063343 248.7176664 10.78295898 248.70507812 C13.00891579 248.71049897 15.23486901 248.71762141 17.46081543 248.72631836 C23.50421524 248.74456 29.54734203 248.73748025 35.59074664 248.72480202 C41.91492116 248.71467755 48.23907225 248.72406628 54.56324768 248.73034668 C65.8653249 248.73809149 77.16726348 248.72565657 88.46931297 248.70530933 C98.71015368 248.68744308 108.95081297 248.69053935 119.19165039 248.70898438 C131.09110223 248.73040682 142.99044391 248.73834949 154.88992172 248.72653532 C161.18626101 248.72030013 167.48247543 248.7194655 173.77880669 248.73268127 C179.69929051 248.7442399 185.61943198 248.73621333 191.53987885 248.71310425 C193.71227767 248.70781705 195.88470533 248.70933108 198.05709267 248.71815491 C201.02371527 248.72909334 203.98924239 248.71536663 206.95579529 248.69543457 C207.81455794 248.70435746 208.6733206 248.71328034 209.55810636 248.72247362 C215.31261399 248.64753279 218.74954266 247.70748037 223.375 244.1875 C227.14134015 239.67905389 227.87359344 235.52970098 227.86274719 229.67080688 C227.86687046 228.94682626 227.87099372 228.22284564 227.87524194 227.47692621 C227.88412125 225.06837094 227.86456796 222.66092026 227.8449707 220.25244141 C227.84547983 218.51906198 227.84773762 216.78568231 227.85160828 215.05230713 C227.85701699 210.35843355 227.83764773 205.66495623 227.81350732 200.97115374 C227.79219262 196.06023934 227.79280553 191.1493261 227.79081726 186.2383728 C227.78437537 177.99852688 227.76314395 169.75882973 227.73168945 161.51904297 C227.69131822 150.92921815 227.67398962 140.33949 227.66438007 129.74959755 C227.65609295 120.65388587 227.63885607 111.55819481 227.61934257 102.46250105 C227.61326851 99.5329201 227.60812975 96.60333837 227.6029911 93.67375565 C227.59423376 89.08221369 227.57995 84.4907201 227.5612812 79.89920807 C227.55514036 78.20966751 227.55070044 76.52011984 227.54803848 74.83057022 C227.54407975 72.53443062 227.5339844 70.23840189 227.52217102 67.94229126 C227.5157608 66.01048476 227.5157608 66.01048476 227.50922108 64.03965187 C227.70042152 61.28855961 227.70042152 61.28855961 226.375 60.1875 C223.2170166 60.08719929 220.08082177 60.05312772 216.92236328 60.06051636 C215.91766054 60.05895637 214.9129578 60.05739638 213.87780952 60.05578911 C210.48362929 60.0517744 207.08949313 60.05497057 203.6953125 60.05810547 C201.27317275 60.05675164 198.8510332 60.05497181 196.42889404 60.05279541 C190.51643117 60.04869503 184.60397991 60.04931437 178.69151735 60.05220805 C173.88843971 60.05446191 169.08536562 60.05477468 164.2822876 60.05368423 C163.59997295 60.053531 162.91765829 60.05337777 162.21466744 60.05321989 C160.8287727 60.05290018 159.44287797 60.05257597 158.05698323 60.0522473 C145.04635085 60.04939238 132.0357255 60.05267972 119.02509427 60.05804767 C107.84940828 60.06251572 96.67373268 60.06173979 85.49804688 60.05712891 C72.53553789 60.05178336 59.57303507 60.04966707 46.61052513 60.05274117 C45.22958756 60.05305974 43.84864998 60.05337411 42.4677124 60.05368423 C41.78817698 60.05383851 41.10864155 60.05399279 40.40851414 60.05415174 C35.60846187 60.05501695 30.80841349 60.05355392 26.00836182 60.05120468 C19.55375874 60.04811526 13.09917072 60.0502992 6.6445694 60.05609894 C4.26807946 60.05742725 1.89158787 60.05703122 -0.48490143 60.05483627 C-3.71407819 60.05212757 -6.94319068 60.05550246 -10.17236328 60.06051636 C-11.1259416 60.05828564 -12.07951992 60.05605491 -13.06199455 60.05375659 C-17.16781681 59.64595574 -17.16781681 59.64595574 -20.625 61.1875 Z " fill="#020001" transform="translate(148.625,134.8125)"/>
<path d="M0 0 C0.95068359 -0.02900391 1.90136719 -0.05800781 2.88085938 -0.08789062 C7.07965219 -0.12603479 9.91551169 -0.09727099 13.66796875 1.89453125 C18.39124711 7.54967497 19.14172919 12.9596539 19.0859375 20.0625 C19.08880768 20.87944336 19.09167786 21.69638672 19.09463501 22.53808594 C19.09666573 24.25586648 19.0912057 25.97367067 19.07861328 27.69140625 C19.06254476 30.30521867 19.07849519 32.91748508 19.09765625 35.53125 C19.09567364 37.20833671 19.0918296 38.88542247 19.0859375 40.5625 C19.09504654 41.72217285 19.09504654 41.72217285 19.1043396 42.90527344 C19.02915391 48.77023757 17.85281297 53.35980049 14.3125 58.1875 C9.54307371 61.48941051 2.6911537 60.38432943 -2.8125 60.1875 C-3.74964844 60.1771875 -4.68679687 60.166875 -5.65234375 60.15625 C-6.56113281 60.12273437 -7.46992188 60.08921875 -8.40625 60.0546875 C-9.22802734 60.0326123 -10.04980469 60.01053711 -10.89648438 59.98779297 C-14.64701545 58.93949376 -16.03362465 57.46805718 -18.3125 54.3125 C-19.05119973 50.87608249 -19.03725999 47.51283606 -19.01171875 44.0078125 C-19.01887405 43.01047089 -19.02602936 42.01312927 -19.03340149 40.98556519 C-19.04117333 38.87922051 -19.03617733 36.7727952 -19.01928711 34.66650391 C-19.00010151 31.45449533 -19.03941189 28.24683807 -19.08398438 25.03515625 C-19.08427483 22.98437244 -19.0811323 20.93358468 -19.07421875 18.8828125 C-19.08950119 17.92843292 -19.10478363 16.97405334 -19.12052917 15.99075317 C-19.01749959 10.05089073 -17.96186743 6.86399182 -13.79353333 2.5697937 C-9.83191453 -0.79334356 -4.94296656 0.04966142 0 0 Z " fill="#020001" transform="translate(188.3125,106.6875)"/>
<path d="M0 0 C1.32161133 -0.04253906 1.32161133 -0.04253906 2.66992188 -0.0859375 C7.03044409 -0.09900274 10.09780299 0.03939216 13.56640625 2.84375 C16.77335451 6.25646489 18.30515671 8.23546443 18.36889648 12.8762207 C18.38488388 13.7575618 18.40087128 14.63890289 18.41734314 15.54695129 C18.42270584 16.49696518 18.42806854 17.44697906 18.43359375 18.42578125 C18.44713646 19.89630196 18.44713646 19.89630196 18.46095276 21.39653015 C18.47546513 23.47192324 18.48434444 25.54736219 18.48803711 27.62280273 C18.49991689 30.79034101 18.54907931 33.95592081 18.59960938 37.12304688 C18.6090756 39.1406155 18.61630968 41.15819609 18.62109375 43.17578125 C18.64062607 44.11972244 18.66015839 45.06366364 18.68028259 46.03620911 C18.65104965 50.32080891 18.51021844 53.56978449 15.91845703 57.09765625 C12.57681726 59.90854147 11.12145344 60.26010935 6.80859375 60.26171875 C5.62458984 60.26494141 4.44058594 60.26816406 3.22070312 60.27148438 C1.37895508 60.22991211 1.37895508 60.22991211 -0.5 60.1875 C-1.73169922 60.20232422 -2.96339844 60.21714844 -4.23242188 60.23242188 C-13.13102943 60.14998246 -13.13102943 60.14998246 -16.2890625 57.60473633 C-18.67567557 53.10968917 -18.49201727 49.14203754 -18.43359375 44.125 C-18.43504898 43.12291504 -18.43650421 42.12083008 -18.43800354 41.08837891 C-18.43634648 38.97360318 -18.42480692 36.85881516 -18.40405273 34.74414062 C-18.37510027 31.51119648 -18.38344801 28.27989304 -18.39648438 25.046875 C-18.39024655 22.98957538 -18.38185527 20.93228093 -18.37109375 18.875 C-18.37402939 17.91029785 -18.37696503 16.9455957 -18.37998962 15.95166016 C-18.31054606 11.00002284 -18.19977187 7.49705362 -14.9375 3.5 C-10.47335832 -0.348107 -5.6080589 -0.01633812 0 0 Z " fill="#020001" transform="translate(315.9375,106.5)"/>
<path d="M0 0 C0.98533974 -0.00074776 0.98533974 -0.00074776 1.99058533 -0.00151062 C3.37664827 0.00082637 4.76271574 0.010533 6.14868164 0.02709961 C8.27333359 0.05073664 10.39673397 0.04765317 12.52148438 0.04101562 C22.9356846 0.0841221 22.9356846 0.0841221 25.21484375 2.36328125 C25.45776367 5.40429687 25.45776367 5.40429687 25.4453125 9.26953125 C25.44485428 9.9500354 25.44439606 10.63053955 25.44392395 11.33166504 C25.44090227 12.77076968 25.43301841 14.20987108 25.4206543 15.64892578 C25.40241545 17.85460976 25.4001445 20.05987354 25.40039062 22.265625 C25.36238062 33.06820751 25.36238062 33.06820751 24.21484375 35.36328125 C19.69420985 35.43734642 15.17392775 35.4918417 10.65283203 35.52807617 C9.11435801 35.54317836 7.57592714 35.56366171 6.03759766 35.58959961 C3.82834234 35.62592199 1.61965527 35.64299244 -0.58984375 35.65625 C-1.6243013 35.67947578 -1.6243013 35.67947578 -2.67965698 35.70317078 C-4.62060547 35.70385742 -4.62060547 35.70385742 -7.78515625 35.36328125 C-10.95121111 30.61419897 -10.1190084 25.49842529 -10.10083008 19.91162109 C-10.09766701 17.87022671 -10.12114752 15.83027806 -10.14648438 13.7890625 C-10.14712891 12.50386719 -10.14777344 11.21867188 -10.1484375 9.89453125 C-10.15141846 8.71439453 -10.15439941 7.53425781 -10.1574707 6.31835938 C-9.78515625 3.36328125 -9.78515625 3.36328125 -8.68652344 1.4777832 C-5.79526375 -0.21695235 -3.32858795 -0.00807751 0 0 Z " fill="#030102" transform="translate(178.78515625,238.63671875)"/>
<path d="M0 0 C2.1247854 0.00316805 4.24818866 -0.02033493 6.37280273 -0.0456543 C7.71980618 -0.04792655 9.06681338 -0.04863113 10.41381836 -0.04760742 C11.64108643 -0.05058838 12.86835449 -0.05356934 14.1328125 -0.05664062 C15.10081787 0.06622314 16.06882324 0.18908691 17.06616211 0.31567383 C19.13630258 3.42088453 19.31583433 4.08155966 19.29663086 7.59692383 C19.29550293 8.43441162 19.294375 9.27189941 19.29321289 10.13476562 C19.28016113 11.01946533 19.26710938 11.90416504 19.25366211 12.81567383 C19.2457666 13.71390869 19.23787109 14.61214355 19.22973633 15.53759766 C19.04346665 30.06532108 19.04346665 30.06532108 18.06616211 34.31567383 C13.75943269 36.46903854 7.99291206 35.50152861 3.20776367 35.50097656 C1.07442346 35.50316535 -1.05840155 35.52133302 -3.19165039 35.5402832 C-4.54321112 35.54321676 -5.89477431 35.54520181 -7.24633789 35.54614258 C-8.4799707 35.55025146 -9.71360352 35.55436035 -10.98461914 35.55859375 C-13.93383789 35.31567383 -13.93383789 35.31567383 -15.93383789 33.31567383 C-16.33290179 28.89723834 -16.26287146 24.46447543 -16.24951172 20.0300293 C-16.24634977 17.82396149 -16.26981365 15.61923214 -16.29516602 13.41333008 C-16.29743877 12.01619636 -16.29814261 10.61905902 -16.29711914 9.22192383 C-16.3001001 7.94639648 -16.30308105 6.67086914 -16.30615234 5.35668945 C-16.18328857 4.3531543 -16.0604248 3.34961914 -15.93383789 2.31567383 C-11.13582025 -0.8830046 -5.61085843 -0.01758073 0 0 Z " fill="#020001" transform="translate(315.933837890625,238.684326171875)"/>
<path d="M0 0 C2.10818398 4.21636796 1.18585825 9.73818493 1.18530273 14.3762207 C1.18748791 16.42615557 1.20564534 18.47555109 1.22460938 20.52539062 C1.22654297 21.81509766 1.22847656 23.10480469 1.23046875 24.43359375 C1.23457764 25.62009521 1.23868652 26.80659668 1.24291992 28.02905273 C1 31 1 31 -1 34 C-3.47165848 34.27980316 -5.68978741 34.37255486 -8.16015625 34.328125 C-8.86522812 34.32625183 -9.57029999 34.32437866 -10.29673767 34.32244873 C-11.7871473 34.31572481 -13.27753919 34.30180341 -14.76782227 34.28125 C-17.05696893 34.25007532 -19.34542768 34.24027853 -21.63476562 34.234375 C-23.08073762 34.22520598 -24.52670257 34.21483053 -25.97265625 34.203125 C-26.66118179 34.19887512 -27.34970734 34.19462524 -28.05909729 34.19024658 C-32.88283631 34.11716369 -32.88283631 34.11716369 -34 33 C-34.10023409 30.73225109 -34.13081341 28.46136837 -34.1328125 26.19140625 C-34.13376923 25.50948715 -34.13472595 24.82756805 -34.13571167 24.12498474 C-34.13639339 22.67992053 -34.13453969 21.23485328 -34.13037109 19.78979492 C-34.12503084 17.57528807 -34.13031205 15.36098481 -34.13671875 13.14648438 C-34.13605781 11.74479122 -34.13477631 10.34309819 -34.1328125 8.94140625 C-34.13168457 7.65951416 -34.13055664 6.37762207 -34.12939453 5.05688477 C-34 2 -34 2 -33 0 C-29.4792903 -0.16934717 -25.95841552 -0.33499193 -22.4375 -0.5 C-21.44685547 -0.54769531 -20.45621094 -0.59539062 -19.43554688 -0.64453125 C-3.59177256 -1.38145099 -3.59177256 -1.38145099 0 0 Z " fill="#020001" transform="translate(334,305)"/>
<path d="M0 0 C1.02975197 0.01077827 1.02975197 0.01077827 2.08030701 0.02177429 C2.78537888 0.02223251 3.49045074 0.02269073 4.21688843 0.02316284 C5.70726708 0.02618442 7.1976426 0.03406794 8.68797302 0.0464325 C10.97706709 0.06469849 13.26575703 0.06694213 15.55491638 0.06669617 C17.00088344 0.07161098 18.44684775 0.07743915 19.89280701 0.08427429 C20.92559532 0.08594353 20.92559532 0.08594353 21.97924805 0.08764648 C26.80409576 0.13618805 26.80409576 0.13618805 27.92015076 1.25224304 C28.02038484 3.51999195 28.05096417 5.79087468 28.05296326 8.06083679 C28.05391998 8.74275589 28.05487671 9.42467499 28.05586243 10.1272583 C28.05654414 11.57232251 28.05469044 13.01738976 28.05052185 14.46244812 C28.0451816 16.67695497 28.05046281 18.89125823 28.05686951 21.10575867 C28.05620856 22.50745182 28.05492706 23.90914485 28.05296326 25.31083679 C28.05183533 26.59272888 28.0507074 27.87462097 28.04954529 29.19535828 C27.92015076 32.25224304 27.92015076 32.25224304 26.92015076 34.25224304 C16.03015076 34.25224304 5.14015076 34.25224304 -6.07984924 34.25224304 C-8.23321395 29.94551362 -7.26570403 24.17899299 -7.26515198 19.3938446 C-7.26734077 17.26050439 -7.28550844 15.12767939 -7.30445862 12.99443054 C-7.30739218 11.64286981 -7.30937722 10.29130663 -7.31031799 8.93974304 C-7.31442688 7.70611023 -7.31853577 6.47247742 -7.32276917 5.20146179 C-6.89961949 0.06412699 -4.63575927 0.02238011 0 0 Z " fill="#020001" transform="translate(176.07984924316406,304.7477569580078)"/>
<path d="M0 0 C1.24136719 0.00193359 2.48273438 0.00386719 3.76171875 0.00585938 C5.70111328 0.02422852 5.70111328 0.02422852 7.6796875 0.04296875 C8.98035156 0.04361328 10.28101563 0.04425781 11.62109375 0.04492188 C21.27399554 0.09012277 21.27399554 0.09012277 23.5546875 1.23046875 C23.57934038 5.91186129 23.59752489 10.59321634 23.60961914 15.2746582 C23.61465907 16.86841489 23.621491 18.46216694 23.63012695 20.0559082 C23.64220749 22.34197128 23.64791905 24.62797342 23.65234375 26.9140625 C23.65750504 27.63073593 23.66266632 28.34740936 23.66798401 29.08580017 C23.66818013 30.80110547 23.61660757 32.51628141 23.5546875 34.23046875 C21.07981039 36.70534586 15.0138763 35.40384107 11.54492188 35.41601562 C10.81877686 35.41593506 10.09263184 35.41585449 9.34448242 35.41577148 C7.12984968 35.41795626 4.91571627 35.43610406 2.70117188 35.45507812 C1.29948088 35.45801231 -0.1022125 35.45999694 -1.50390625 35.4609375 C-2.78579834 35.46504639 -4.06769043 35.46915527 -5.38842773 35.47338867 C-8.4453125 35.23046875 -8.4453125 35.23046875 -10.4453125 33.23046875 C-10.67236328 30.15771484 -10.67236328 30.15771484 -10.640625 26.25390625 C-10.6377951 25.56865875 -10.63496521 24.88341125 -10.63204956 24.17739868 C-10.62084531 21.98657848 -10.59574109 19.79616559 -10.5703125 17.60546875 C-10.56028298 16.12109965 -10.55115708 14.63672415 -10.54296875 13.15234375 C-10.52090544 9.51158614 -10.48637426 5.87106719 -10.4453125 2.23046875 C-6.92569045 0.05854668 -4.09123925 -0.01475415 0 0 Z " fill="#020001" transform="translate(245.4453125,238.76953125)"/>
<path d="M0 0 C1.15242188 0.04382813 2.30484375 0.08765625 3.4921875 0.1328125 C11.99372691 0.49372691 11.99372691 0.49372691 13.125 1.625 C13.5130475 5.27761485 13.59655674 8.95590098 13.75 12.625 C13.8015625 13.64207031 13.853125 14.65914063 13.90625 15.70703125 C14.17276461 21.81335134 14.05438946 27.57777259 13.125 33.625 C11.44826351 35.30173649 9.39644924 34.75287817 7.15844727 34.76394653 C6.12095337 34.76091019 6.12095337 34.76091019 5.0625 34.7578125 C4.35601318 34.75876923 3.64952637 34.75972595 2.92163086 34.76071167 C1.42529207 34.76139333 -0.07104967 34.75954005 -1.56738281 34.75537109 C-3.86530157 34.75002257 -6.16302486 34.75531651 -8.4609375 34.76171875 C-9.91145877 34.76105797 -11.36197991 34.7597768 -12.8125 34.7578125 C-13.8499939 34.76084885 -13.8499939 34.76084885 -14.90844727 34.76394653 C-19.76004776 34.73995224 -19.76004776 34.73995224 -20.875 33.625 C-20.9757812 31.26101532 -21.01473215 28.92688689 -21.0078125 26.5625 C-21.00876923 25.85601318 -21.00972595 25.14952637 -21.01071167 24.42163086 C-21.01139333 22.92529207 -21.00954005 21.42895033 -21.00537109 19.93261719 C-21.00002257 17.63469843 -21.00531651 15.33697514 -21.01171875 13.0390625 C-21.01105797 11.58854123 -21.0097768 10.13802009 -21.0078125 8.6875 C-21.00983673 7.9958374 -21.01186096 7.3041748 -21.01394653 6.59155273 C-20.98995224 1.73995224 -20.98995224 1.73995224 -19.875 0.625 C-13.26467732 -0.77945949 -6.71400199 -0.30657543 0 0 Z " fill="#020001" transform="translate(255.875,304.375)"/>
</svg>
