<?xml version="1.0" encoding="UTF-8"?>
<svg version="1.1" xmlns="http://www.w3.org/2000/svg" width="500" height="500">
<path d="M0 0 C1.30076381 -0.00467997 2.60152761 -0.00935994 3.94170851 -0.01418173 C7.52752019 -0.02663522 11.11309049 -0.0205474 14.69890273 -0.01122308 C18.57557042 -0.00440965 22.45219784 -0.0149251 26.32885742 -0.02316284 C33.91320158 -0.0364776 41.4974565 -0.03363263 49.0818041 -0.02492492 C55.24711387 -0.01814038 61.41239868 -0.01723498 67.57771111 -0.02049637 C68.45632257 -0.02095607 69.33493404 -0.02141577 70.2401701 -0.0218894 C72.02522919 -0.0228486 73.81028827 -0.02382124 75.59534734 -0.02480717 C92.31936726 -0.03335432 109.04333778 -0.02353727 125.76734959 -0.00740607 C140.10879469 0.00599884 154.45016693 0.00366628 168.79161072 -0.01016235 C185.45873079 -0.02622606 202.12580762 -0.03253287 218.79293436 -0.02332556 C220.57099592 -0.02236994 222.34905749 -0.02142683 224.12711906 -0.02049637 C225.00188984 -0.02003354 225.87666062 -0.01957072 226.77793961 -0.01909386 C232.93439894 -0.01650652 239.09083077 -0.0208694 245.24728584 -0.02793503 C252.75193231 -0.0363589 260.25648467 -0.03405115 267.76112039 -0.0180928 C271.58808608 -0.01022237 275.414895 -0.00709747 279.24185944 -0.01704025 C283.39404143 -0.02766465 287.54582945 -0.01495688 291.69799805 0 C293.50442523 -0.01003825 293.50442523 -0.01003825 295.34734589 -0.02027929 C305.70608383 0.052111 314.20495816 1.98207081 321.7855072 9.38095093 C325.65400556 14.44935573 327.90677155 18.88273799 327.91972828 25.33487225 C327.92418612 26.3635135 327.92864397 27.39215474 327.9332369 28.45196694 C327.93296035 30.15241834 327.93296035 30.15241834 327.93267822 31.88722229 C327.93635491 33.08878898 327.9400316 34.29035568 327.9438197 35.52833349 C327.95294883 38.86958856 327.95755673 42.2107945 327.96020901 45.55205739 C327.96411162 49.15342607 327.97369 52.75478053 327.98242188 56.35614014 C328.00218766 65.05652009 328.01225271 73.75690121 328.02114967 82.45729801 C328.02553244 86.55412161 328.03089928 90.65094392 328.03613853 94.74776649 C328.05315104 108.36601461 328.06764528 121.98426192 328.07488728 135.60251904 C328.07679718 139.13681731 328.07871751 142.67111557 328.08067322 146.20541382 C328.08115696 147.08385019 328.0816407 147.96228656 328.0821391 148.86734221 C328.09043963 163.09784521 328.11577681 177.32826415 328.1482539 191.55873045 C328.181323 206.16766606 328.19933591 220.77655896 328.20253152 235.3855322 C328.20469677 243.58841082 328.2134476 251.79116687 328.23899269 259.99400902 C328.26069768 266.9799028 328.26875114 273.96564424 328.25902591 280.95156791 C328.25448055 284.51514286 328.25638067 288.07840349 328.27578735 291.64193535 C328.29665955 295.50800781 328.28643569 299.37364713 328.27325439 303.23976135 C328.28970826 304.92348234 328.28970826 304.92348234 328.30649453 306.64121789 C328.23924025 314.80557158 326.58372752 321.11843583 320.6605072 327.13095093 C312.68748085 334.32802074 303.80183 334.96402074 293.4571228 334.88215637 C292.14410834 334.88769077 290.83109388 334.89322517 289.47829109 334.89892727 C285.858204 334.91360518 282.2385553 334.90354692 278.61848271 334.88919055 C274.70499985 334.87804078 270.79157648 334.89003651 266.87809753 334.89903259 C259.22153381 334.9129395 251.56513543 334.90542795 243.90857964 334.89035701 C234.98676233 334.87346632 226.06498585 334.876711 217.14315749 334.88045109 C201.22190543 334.88632492 185.30073254 334.8721764 169.37950134 334.84750366 C153.94001804 334.82358027 138.50064048 334.81650159 123.06114197 334.82699585 C106.23580446 334.83841162 89.41051583 334.84032728 72.58517891 334.82589775 C70.7902664 334.82437196 68.99535388 334.8228516 67.20044136 334.82133675 C65.8758467 334.82020002 65.8758467 334.82020002 64.52449254 334.81904034 C58.3094264 334.81430293 52.09438213 334.81614507 45.87931633 334.82040215 C38.3032982 334.8253347 30.72737994 334.8193181 23.15138464 334.79950785 C19.28796888 334.78965352 15.42470501 334.78451059 11.5612812 334.79240036 C7.3696801 334.80078506 3.17848207 334.78584384 -1.01309204 334.76863098 C-2.83702849 334.77764605 -2.83702849 334.77764605 -4.69781214 334.78684324 C-14.74456525 334.71179915 -22.07713696 333.20347446 -29.4879303 326.22079468 C-33.97132089 321.44324497 -36.3354101 317.0589637 -36.34871387 310.41141224 C-36.35317172 309.37928759 -36.35762956 308.34716295 -36.36222249 307.2837618 C-36.36203813 306.14623659 -36.36185377 305.00871137 -36.36166382 303.8367157 C-36.36534051 302.63106545 -36.36901719 301.4254152 -36.3728053 300.1832301 C-36.38193452 296.8305735 -36.38654235 293.47796586 -36.38919461 290.12530148 C-36.39309718 286.51166277 -36.40267556 282.89803823 -36.41140747 279.28440857 C-36.43117337 270.55436575 -36.44123831 261.82432176 -36.45013526 253.09426215 C-36.45451801 248.98349178 -36.45988486 244.8727227 -36.46512413 240.76195335 C-36.48213665 227.09738209 -36.49663089 213.43281162 -36.50387287 199.76823139 C-36.50578278 196.22190157 -36.50770311 192.67557175 -36.50965881 189.12924194 C-36.51014255 188.24781496 -36.51062629 187.36638797 -36.51112469 186.45825108 C-36.51942525 172.17924927 -36.54476248 157.90033123 -36.57723949 143.621366 C-36.61030837 128.96270985 -36.62832148 114.30409626 -36.63151711 99.64540261 C-36.63368239 91.4145785 -36.64243351 83.18387653 -36.66797829 74.95308876 C-36.68968297 67.94340655 -36.69773689 60.93387616 -36.6880115 53.92416415 C-36.68346606 50.34843801 -36.68536678 46.77302512 -36.70477295 43.19734192 C-36.72564435 39.31813271 -36.71542156 35.4393552 -36.70223999 31.56010437 C-36.71320924 30.43373277 -36.72417848 29.30736116 -36.73548013 28.14685708 C-36.6710152 20.29494919 -35.31815382 15.1307048 -30.2066803 8.95516968 C-29.50800842 8.33255249 -28.80933655 7.7099353 -28.0894928 7.06845093 C-27.06468811 6.11518921 -27.06468811 6.11518921 -26.0191803 5.14266968 C-17.98211407 0.09431749 -9.23504359 -0.05141402 0 0 Z M-25.0894928 15.25595093 C-29.58229276 21.8630097 -29.49720717 27.96104145 -29.4019928 35.69345093 C-29.40134827 36.70729858 -29.40070374 37.72114624 -29.40003967 38.76571655 C-29.8060171 43.41528464 -29.8060171 43.41528464 -28.2144928 47.38095093 C-26.3649373 47.47942055 -24.51156818 47.50650737 -22.65939331 47.50679207 C-20.8389993 47.51070369 -20.8389993 47.51070369 -18.98182964 47.51469433 C-17.61773349 47.51253181 -16.25363748 47.51027513 -14.88954163 47.50793457 C-13.45396033 47.50908542 -12.01837933 47.5106727 -10.58279896 47.51266181 C-6.61923331 47.51686011 -2.65569156 47.51476221 1.3078742 47.5116756 C5.5751293 47.50942374 9.84238013 47.51290003 14.1096344 47.51565552 C22.47656989 47.52011452 30.84349644 47.51913617 39.21043229 47.51624288 C46.00721704 47.51398935 52.80399928 47.5136761 59.6007843 47.51476669 C61.04888655 47.51499654 61.04888655 47.51499654 62.52624339 47.51523104 C64.48711213 47.51555074 66.44798086 47.51587496 68.4088496 47.51620363 C86.81886377 47.5190588 105.22887297 47.51577081 123.63888633 47.51040326 C139.45371297 47.50593519 155.26853226 47.50671111 171.08335876 47.51132202 C189.42511395 47.51666713 207.76686478 47.5187841 226.10862064 47.51570976 C228.06249046 47.51539119 230.01636028 47.51507682 231.9702301 47.51476669 C232.93170478 47.51461242 233.89317945 47.51445814 234.88378972 47.51429919 C241.67658129 47.51343384 248.46937011 47.51489729 255.26216125 47.51724625 C263.53431316 47.52004374 271.80645556 47.51930706 280.07860637 47.5139655 C284.30344843 47.5113278 288.52827464 47.51032458 292.75311661 47.51361465 C296.61435596 47.51657622 300.47556463 47.51498717 304.33680117 47.5096371 C305.73987504 47.50851231 307.14295147 47.50910545 308.54602373 47.51151289 C310.44081666 47.51451673 312.33561677 47.51086355 314.23040771 47.50679207 C315.28662732 47.50662972 316.34284693 47.50646736 317.43107319 47.50630009 C319.74301045 47.64628565 319.74301045 47.64628565 320.7855072 46.38095093 C321.06711638 43.03534856 321.0174276 39.67447622 321.0355072 36.31845093 C321.0561322 35.38839233 321.0767572 34.45833374 321.0980072 33.50009155 C321.13937038 26.14261556 320.03859482 20.11119718 315.5355072 14.06845093 C308.83345489 7.51871799 301.75657881 7.94936361 292.84912109 7.99327087 C291.54204789 7.98788534 290.23497469 7.9824998 288.88829321 7.97695106 C285.27097805 7.96251409 281.65389107 7.96673562 278.03656352 7.97411788 C274.13122656 7.97885158 270.22593882 7.96633793 266.32061768 7.95610046 C258.67403989 7.93891127 251.02754428 7.93807267 243.38095219 7.94331337 C237.16550381 7.94735596 230.95007971 7.94591045 224.73463249 7.94056511 C223.84977511 7.93981669 222.96491772 7.93906827 222.05324648 7.93829716 C220.25562306 7.93676568 218.45799965 7.93522733 216.66037624 7.9336822 C199.80573453 7.9199568 182.95113925 7.9253952 166.0964986 7.93686741 C150.67963638 7.94680054 135.26289416 7.9338578 119.84605045 7.90993322 C104.01204396 7.88554656 88.17809337 7.87593323 72.34406847 7.88258594 C63.45603886 7.88607904 54.56810155 7.88384011 45.68008614 7.86633492 C38.1142015 7.85161839 30.54847418 7.85097031 22.98259265 7.86840583 C19.12332156 7.87692265 15.26433156 7.87904893 11.40507507 7.86375427 C7.21944749 7.84737166 3.03449903 7.86204389 -1.15112305 7.87974548 C-2.36814893 7.87014048 -3.58517482 7.86053547 -4.83908027 7.8506394 C-12.98911374 7.92165683 -19.35657835 8.93955323 -25.0894928 15.25595093 Z M-29.2144928 55.38095093 C-29.31263108 56.72869508 -29.34188105 58.08153512 -29.34312725 59.43284702 C-29.3463517 60.31120356 -29.34957614 61.1895601 -29.3528983 62.0945335 C-29.3513497 63.07057362 -29.3498011 64.04661374 -29.34820557 65.05223083 C-29.35047112 66.08057948 -29.35273668 67.10892813 -29.35507089 68.16843885 C-29.361443 71.64301458 -29.36057946 75.11755162 -29.35975647 78.59213257 C-29.36274606 81.07187959 -29.36614812 83.55162614 -29.36993408 86.03137207 C-29.37787834 92.08655408 -29.38098977 98.14172067 -29.38154646 104.19690645 C-29.38202105 109.12006162 -29.38407296 114.04321357 -29.38724709 118.96636772 C-29.39606065 132.92033059 -29.40066569 146.87428576 -29.39991661 160.82825143 C-29.39987666 161.58129412 -29.3998367 162.33433681 -29.39979553 163.11019897 C-29.39975465 163.86416053 -29.39971377 164.61812208 -29.39967165 165.39493095 C-29.3992656 177.60151135 -29.40882286 189.80806083 -29.4229339 202.01463229 C-29.43730413 214.54428228 -29.44420364 227.07391721 -29.44334012 239.60357565 C-29.44300824 246.63943277 -29.44575109 253.67525755 -29.45651817 260.71110725 C-29.46658551 267.33236043 -29.46628108 273.95355701 -29.45900154 280.57481766 C-29.45795502 283.00480817 -29.46032258 285.43480292 -29.466362 287.86478615 C-29.47407556 291.18353305 -29.46944102 294.50204373 -29.46173096 297.82078552 C-29.46687452 298.78121059 -29.47201808 299.74163566 -29.47731751 300.73116452 C-29.44241424 307.53613009 -29.26933404 314.88487633 -24.4644928 320.19345093 C-23.99527405 320.73614624 -23.5260553 321.27884155 -23.0426178 321.83798218 C-16.65552809 327.22879507 -10.27648527 326.80520505 -2.30897522 326.76190186 C-0.3352797 326.76892181 -0.3352797 326.76892181 1.67828846 326.77608359 C5.32453372 326.78860056 8.97054326 326.78242013 12.61678934 326.77312493 C16.55141194 326.76633761 20.48599398 326.7768141 24.42060852 326.7850647 C32.12614792 326.79840761 39.83159968 326.79552181 47.53714252 326.78682677 C53.79935091 326.78005284 60.06153473 326.77913225 66.32374573 326.78239822 C67.21486677 326.78285792 68.10598781 326.78331762 69.02411252 326.78379125 C70.83438294 326.78475042 72.64465335 326.78572306 74.45492375 326.78670903 C91.43158807 326.79526455 108.4082038 326.78542623 125.38486016 326.76930793 C139.95300382 326.7559046 154.52107577 326.75823264 169.08921814 326.77206421 C186.004953 326.78811714 202.92064527 326.79444057 219.83638668 326.78522742 C221.64001401 326.78427177 223.44364134 326.78332865 225.24726868 326.78239822 C226.13469798 326.7819354 227.02212729 326.78147257 227.9364484 326.78099572 C234.19145308 326.77840497 240.44643077 326.78277866 246.70143127 326.78983688 C254.32373892 326.79824889 261.94595387 326.79597806 269.56825089 326.77999465 C273.45759956 326.77210789 277.34679366 326.76902719 281.2361412 326.77894211 C285.45089204 326.7895241 289.66525227 326.77689266 293.87998962 326.76190186 C295.726963 326.7719401 295.726963 326.7719401 297.61124897 326.78218114 C304.3965425 326.73520086 309.28266557 326.40477149 314.6136322 321.80282593 C315.08285095 321.25110718 315.5520697 320.69938843 316.0355072 320.13095093 C316.51503845 319.58954468 316.9945697 319.04813843 317.4886322 318.49032593 C321.23876065 312.39071941 321.06959472 305.83246857 321.03274536 298.90307617 C321.03636698 297.33932961 321.03636698 297.33932961 321.04006177 295.74399221 C321.04568852 292.25784272 321.03704339 288.77187729 321.02842712 285.28573608 C321.02950022 282.78389435 321.03143931 280.28205286 321.03417969 277.7802124 C321.03852232 271.69609354 321.03359332 265.61204651 321.02432939 259.52793844 C321.01393336 252.44544253 321.01401586 245.36295833 321.01450197 238.28045623 C321.01500216 225.64939218 321.00585075 213.01835349 320.99131775 200.38729858 C320.97721322 188.12231993 320.97014777 175.85736358 320.97080994 163.59237671 C320.97086987 162.4579381 320.97086987 162.4579381 320.97093102 161.30058153 C320.97099155 160.16812583 320.97099155 160.16812583 320.9710533 159.01279223 C320.97174228 145.05407219 320.96586041 131.09536164 320.95690009 117.13664467 C320.95387925 112.19525899 320.95282002 107.25387505 320.95236778 102.31248856 C320.95161631 95.67230717 320.94529291 89.03214636 320.93520164 82.39197159 C320.93226847 79.94775029 320.93105291 77.50352627 320.93162918 75.05930328 C320.93211606 71.7384846 320.92650214 68.41773319 320.91921997 65.09692383 C320.92076857 64.11631064 320.92231717 63.13569745 320.9239127 62.12536871 C320.92068826 61.24291208 320.91746381 60.36045545 320.91414165 59.45125771 C320.91308502 58.30013148 320.91308502 58.30013148 320.91200703 57.12575018 C320.97462955 55.35203199 320.97462955 55.35203199 319.7855072 54.38095093 C317.9359517 54.2824813 316.08258258 54.25539449 314.23040771 54.25510979 C312.4100137 54.25119817 312.4100137 54.25119817 310.55284405 54.24720752 C309.18874789 54.24937004 307.82465189 54.25162672 306.46055603 54.25396729 C305.02497474 54.25281644 303.58939374 54.25122916 302.15381336 54.24924004 C298.19024772 54.24504174 294.22670596 54.24713965 290.2631402 54.25022626 C285.9958851 54.25247812 281.72863427 54.24900182 277.46138 54.24624634 C269.09444451 54.24178734 260.72751796 54.24276568 252.36058211 54.24565898 C245.56379736 54.2479125 238.76701512 54.24822576 231.9702301 54.24713516 C231.0048286 54.24698193 230.03942711 54.2468287 229.04477102 54.24667082 C227.08390228 54.24635111 225.12303354 54.2460269 223.16216481 54.24569823 C204.75215063 54.24284306 186.34214143 54.24613104 167.93212807 54.25149859 C152.11730144 54.25596667 136.30248214 54.25519074 120.48765564 54.25057983 C102.14590045 54.24523473 83.80414962 54.24311775 65.46239376 54.2461921 C63.50852394 54.24651066 61.55465412 54.24682504 59.6007843 54.24713516 C58.63930963 54.24728944 57.67783496 54.24744371 56.68722469 54.24760266 C49.89443311 54.24846801 43.1016443 54.24700456 36.30885315 54.24465561 C28.03670125 54.24185811 19.76455884 54.2425948 11.49240804 54.24793635 C7.26756597 54.25057406 3.04273976 54.25157728 -1.1821022 54.2482872 C-5.04334156 54.24532564 -8.90455023 54.24691469 -12.76578677 54.25226475 C-14.16886064 54.25338954 -15.57193706 54.25279641 -16.97500932 54.25038897 C-18.86980226 54.24738512 -20.76460237 54.2510383 -22.65939331 54.25510979 C-23.71561292 54.25527214 -24.77183252 54.25543449 -25.86005878 54.25560176 C-28.17199605 54.11561621 -28.17199605 54.11561621 -29.2144928 55.38095093 Z " fill="#020001" transform="translate(102.21449279785156,77.61904907226563)"/>
<path d="M0 0 C12.81834216 10.10614886 22.6040976 23.42229146 25 40 C26.29496968 58.15693399 22.96887043 72.91598754 11.953125 87.7578125 C9.78566373 90.24605804 8.12179362 91.04611862 5 92 C-8.74092527 80.52597865 -8.74092527 80.52597865 -9.25 75.5625 C-8.06813198 73.13967056 -6.82109749 71.50861403 -5.125 69.4375 C0.24709784 62.60615443 1.81145978 53.52032767 1 45 C0.15689268 41.28168053 -0.89086313 37.64662562 -2 34 C-2.39826687 32.60485907 -2.7945186 31.20913894 -3.1875 29.8125 C-3.5896875 28.4203125 -3.5896875 28.4203125 -4 27 C-3.01 26.01 -2.02 25.02 -1 24 C1.84434238 25.037063 2.87187804 25.78554249 4.44921875 28.42578125 C5.06216797 29.85470703 5.06216797 29.85470703 5.6875 31.3125 C6.10386719 32.25738281 6.52023437 33.20226562 6.94921875 34.17578125 C10.808192 44.54766845 9.98785176 56.25174888 6.16015625 66.47265625 C5.15008686 68.6730431 4.09163299 70.53812777 2.6875 72.5 C0.79602552 74.79947906 0.79602552 74.79947906 1 77.1875 C2.26211055 79.47507537 3.89585679 80.4940104 6 82 C15.22396553 69.82436551 18.43234002 56.02810054 16.375 40.875 C13.80639803 28.15028105 7.82060427 15.93948774 -2.8125 8.125 C-15.99062312 -0.29043237 -29.48666679 -4.2238684 -44.94824219 -0.82006836 C-59.24812457 2.61289417 -70.84292347 9.84595879 -78.75390625 22.59765625 C-85.6818123 35.95396415 -87.22419463 50.96569662 -83.375 65.5 C-81.41577741 71.54680928 -78.60673713 76.78225362 -75 82 C-73.02 80.35 -71.04 78.7 -69 77 C-69.56589844 75.90300781 -70.13179688 74.80601562 -70.71484375 73.67578125 C-71.45604926 72.22151727 -72.19691695 70.76708107 -72.9375 69.3125 C-73.31068359 68.59126953 -73.68386719 67.87003906 -74.06835938 67.12695312 C-79.08701017 57.22529075 -79.40379625 46.95761162 -76.375 36.25 C-74.39182093 30.47442588 -71.8351175 25.74024255 -68 21 C-67.52175781 20.38640625 -67.04351562 19.7728125 -66.55078125 19.140625 C-60.88495081 12.68985583 -51.41727135 7.76280563 -43 6 C-29.32970584 5.17355011 -18.54929196 5.97990642 -7.36328125 14.6328125 C-6 16 -6 16 -6 18 C-8.375 19.3125 -8.375 19.3125 -12 20 C-14.70440373 18.97096588 -17.11878789 17.69103181 -19.6328125 16.26171875 C-26.79425433 12.44464662 -37.19671917 12.90264472 -44.9921875 14.68359375 C-56.29962862 18.92828738 -62.30482704 26.10234381 -67.875 36.5 C-70.8552986 45.3873575 -70.31298134 57.4011938 -66.2890625 65.83984375 C-64.13388459 69.45139946 -61.6997145 72.77834069 -59 76 C-61.27034596 80.15976138 -64.07860368 83.50733024 -67.375 86.875 C-67.84421875 87.38546875 -68.3134375 87.8959375 -68.796875 88.421875 C-71.01321752 90.68719747 -72.34462897 91.96115582 -75.5703125 92.15234375 C-83.30709193 88.48297087 -88.22678237 77.39014442 -91.0703125 69.78125 C-91.37710937 68.8634375 -91.68390625 67.945625 -92 67 C-92.24492187 66.2884375 -92.48984375 65.576875 -92.7421875 64.84375 C-96.9579437 49.82872791 -93.88582641 33.36435633 -86.72265625 19.8828125 C-78.16335358 5.5590815 -65.3737224 -4.12399818 -49.375 -8.875 C-32.33278837 -12.60019547 -14.48345733 -10.00147054 0 0 Z " fill="#020001" transform="translate(373,162)"/>
<path d="M0 0 C9.7064375 7.74279965 15.82748003 18.78522136 18 31 C19.62951471 46.11187434 16.57520955 59.92531157 7 72 C-1.89883309 81.762498 -13.68803755 88.56657733 -27.04296875 89.3359375 C-42.84048828 89.68116631 -56.00571208 85.64171899 -67.8125 74.6875 C-77.13007603 64.67890756 -82.15376785 51.61699719 -82 38 C-80.92291965 23.86539177 -75.47597427 11.53928021 -65.10546875 1.6953125 C-45.82615857 -13.82828791 -20.06358025 -14.68469278 0 0 Z M-28 -3 C-28 10.2 -28 23.4 -28 37 C-22.245625 36.9690625 -22.245625 36.9690625 -16.375 36.9375 C-7.19893715 36.91307181 1.86311983 37.08467748 11 38 C10.43440876 24.70860585 5.4290182 14.84874133 -4.25 5.75 C-11.57753061 -0.14816926 -18.70471375 -1.96719042 -28 -3 Z M-59 7 C-59.68964844 7.598125 -60.37929687 8.19625 -61.08984375 8.8125 C-68.63096438 15.77785537 -73.40553727 24.77499148 -74.25390625 35.0859375 C-74.71918745 48.68415588 -71.32836385 59.91782897 -62 70 C-53.45225579 77.90866053 -43.60416255 82.05673425 -31.9375 82.4375 C-19.06291439 81.89541218 -8.05119021 77.71134009 0.875 68.1875 C6.54389055 61.13197435 10.22948901 53.08102244 11 44 C9.45769023 42.45769023 7.9959029 42.83752513 5.84741211 42.79467773 C4.96657455 42.77473251 4.085737 42.75478729 3.1782074 42.73423767 C2.22092239 42.71752518 1.26363739 42.70081268 0.27734375 42.68359375 C-0.69786728 42.66281265 -1.67307831 42.64203156 -2.67784119 42.62062073 C-5.8059863 42.55501588 -8.93421822 42.49618972 -12.0625 42.4375 C-14.1777435 42.39432517 -16.29297809 42.35071123 -18.40820312 42.30664062 C-23.60537587 42.19932345 -28.80263577 42.0975778 -34 42 C-34.02505615 41.02764404 -34.0501123 40.05528809 -34.07592773 39.0534668 C-34.17115323 35.39483755 -34.27107716 31.73634828 -34.37231445 28.07788086 C-34.41523351 26.50402128 -34.456932 24.93012787 -34.49731445 23.35620117 C-34.72446632 14.53653929 -35.02141355 5.7760593 -36 -3 C-44.69392953 -3 -52.6897086 1.30888124 -59 7 Z " fill="#020001" transform="translate(183,297)"/>
<path d="M0 0 C2.67382812 -0.37231445 2.67382812 -0.37231445 6.03125 -0.36328125 C7.23394531 -0.36263672 8.43664062 -0.36199219 9.67578125 -0.36132812 C11.56876953 -0.3371582 11.56876953 -0.3371582 13.5 -0.3125 C15.39298828 -0.31733398 15.39298828 -0.31733398 17.32421875 -0.32226562 C26.73319997 -0.26680003 26.73319997 -0.26680003 29 2 C29.25168228 3.94280243 29.25168228 3.94280243 29.25396729 6.3651123 C29.25960693 7.28211411 29.26524658 8.19911591 29.27105713 9.14390564 C29.26700867 10.1528035 29.26296021 11.16170135 29.25878906 12.20117188 C29.2622937 13.26139053 29.26579834 14.32160919 29.26940918 15.41395569 C29.27823999 18.9322863 29.27237252 22.45041721 29.265625 25.96875 C29.26697126 28.40490762 29.26891146 30.84106498 29.27142334 33.27722168 C29.27437644 38.3884537 29.27007097 43.49961592 29.26074219 48.61083984 C29.24934761 55.17523504 29.25590609 61.73946671 29.26788712 68.3038559 C29.27510068 73.33601116 29.2728201 78.3681274 29.26763153 83.40028381 C29.26629364 85.82129434 29.26794759 88.24230837 29.27259064 90.66331482 C29.27764757 94.04191525 29.26995723 97.42024774 29.25878906 100.79882812 C29.26283752 101.80772598 29.26688599 102.81662384 29.27105713 103.85609436 C29.26541748 104.77309616 29.25977783 105.69009796 29.25396729 106.6348877 C29.25321323 107.43424995 29.25245918 108.23361221 29.25168228 109.05719757 C29 111 29 111 27 113 C24.41796875 113.24291992 24.41796875 113.24291992 21.1875 113.23046875 C20.02992188 113.22853516 18.87234375 113.22660156 17.6796875 113.22460938 C16.46539062 113.21236328 15.25109375 113.20011719 14 113.1875 C12.78570312 113.18685547 11.57140625 113.18621094 10.3203125 113.18554688 C1.28049424 113.14024712 1.28049424 113.14024712 -1 112 C-1.9314501 109.20564971 -2.12747006 107.52228378 -2.13371277 104.63525391 C-2.13797775 103.74356506 -2.14224274 102.85187622 -2.14663696 101.9331665 C-2.14618378 100.95748718 -2.14573059 99.98180786 -2.14526367 98.9765625 C-2.14862228 97.94706482 -2.1519809 96.91756714 -2.15544128 95.85687256 C-2.16495775 92.44623618 -2.16689462 89.03564884 -2.16796875 85.625 C-2.17118038 83.25992818 -2.17454438 80.89485656 -2.17805481 78.52978516 C-2.18404749 73.56998229 -2.18589452 68.61019686 -2.18530273 63.65039062 C-2.185201 57.28455088 -2.19886448 50.91882238 -2.21607494 44.55300903 C-2.22717349 39.66837039 -2.22922262 34.78375885 -2.22869301 29.89910889 C-2.22987594 27.55148942 -2.23431511 25.20386931 -2.24202538 22.85626221 C-2.25178378 19.57857376 -2.24896383 16.30112958 -2.24291992 13.0234375 C-2.24853943 12.04775818 -2.25415894 11.07207886 -2.25994873 10.0668335 C-2.25575424 9.17514465 -2.25155975 8.28345581 -2.24723816 7.36474609 C-2.24778293 6.58972748 -2.24832769 5.81470886 -2.24888897 5.01620483 C-2 3 -2 3 0 0 Z M6 6 C4.08073759 7.91926241 4.87320669 10.7783302 4.86447144 13.33251953 C4.86649567 14.24372559 4.8685199 15.15493164 4.87060547 16.09375 C4.86885315 17.04813965 4.86710083 18.0025293 4.86529541 18.98583984 C4.86087513 22.15724477 4.8638155 25.32859445 4.8671875 28.5 C4.86651451 30.69335948 4.86554453 32.8867189 4.86428833 35.08007812 C4.86281112 39.68360095 4.86496666 44.28710442 4.86962891 48.890625 C4.8753262 54.80604595 4.87204732 60.72142154 4.86605644 66.63684082 C4.86245146 71.16797226 4.86358913 75.69909285 4.86618423 80.23022461 C4.86685368 82.41202805 4.86602448 84.59383246 4.86370468 86.77563477 C4.86117918 89.8191999 4.8650173 92.86269046 4.87060547 95.90625 C4.86858124 96.81745605 4.86655701 97.72866211 4.86447144 98.66748047 C4.47697214 102.6512037 4.47697214 102.6512037 6 106 C11.28 106 16.56 106 22 106 C22 73 22 40 22 6 C16.72 6 11.44 6 6 6 Z " fill="#020001" transform="translate(222,154)"/>
<path d="M0 0 C3.69186542 2.59216083 4.82883761 4.04149064 5.625 8.5 C4.82285946 12.99198704 3.71134206 14.37113271 0 17 C-1.14597656 16.99097656 -2.29195312 16.98195313 -3.47265625 16.97265625 C-9.76744858 17.62965449 -13.75980291 22.72090012 -17.94799805 27.03540039 C-19.43455984 28.55948562 -20.9548509 30.04253863 -22.48242188 31.52539062 C-28.40468922 37.12571863 -28.40468922 37.12571863 -31.0546875 44.5625 C-31.03664063 45.696875 -31.01859375 46.83125 -31 48 C-33.09393829 51.02457753 -34.43941876 51.82109109 -37.9375 52.9375 C-41.61049821 53.01245915 -43.09501066 52.178742 -46 50 C-48 48 -48 48 -48.375 44.5 C-48.684375 42.7675 -48.684375 42.7675 -49 41 C-50.77725116 39.93835708 -50.77725116 39.93835708 -53 39 C-53.80695313 38.41863281 -54.61390625 37.83726562 -55.4453125 37.23828125 C-56.32960938 36.60277344 -57.21390625 35.96726562 -58.125 35.3125 C-58.99382812 34.66925781 -59.86265625 34.02601563 -60.7578125 33.36328125 C-65.4284249 31.39937315 -69.16894918 31.51579539 -74 33 C-77.07826757 34.94784023 -79.41633396 37.3295581 -81.875 40 C-82.51179688 40.63550781 -83.14859375 41.27101563 -83.8046875 41.92578125 C-87.67925716 45.95371929 -90.13949107 49.79465652 -92.14355469 55.01342773 C-93.49906716 58.15761388 -95.27063632 59.98546967 -98 62 C-101 62.625 -101 62.625 -104 62 C-108.08047746 58.84690378 -109.73124612 55.95967428 -111 51 C-115.36704405 50.35754846 -118.79943676 50.59681399 -123 52 C-126.67373324 54.84819578 -129.76783874 58.23505717 -132.83422852 61.71508789 C-133.43420654 62.38789795 -134.03418457 63.06070801 -134.65234375 63.75390625 C-135.17820068 64.37595947 -135.70405762 64.9980127 -136.24584961 65.63891602 C-138 67 -138 67 -140.58422852 67.39038086 C-141.38143311 67.26155518 -142.1786377 67.13272949 -143 67 C-143.66 66.01 -144.32 65.02 -145 64 C-144.24323975 63.29822632 -144.24323975 63.29822632 -143.47119141 62.58227539 C-141.17042103 60.42805259 -138.89801041 58.24597865 -136.625 56.0625 C-135.8309375 55.32708984 -135.036875 54.59167969 -134.21875 53.83398438 C-129.69274662 49.44222686 -127.07367094 46.273836 -126.34790039 39.90649414 C-126 38 -126 38 -123.8125 35.375 C-120.02785049 33.5247269 -118.01127415 33.83308388 -114 35 C-110.42048434 37.68463674 -108.83130285 40.97113372 -107 45 C-102.21658054 45.62472102 -97.85456764 46.12569 -93.60839844 43.54833984 C-91.38010037 41.53233302 -89.3713875 39.43295325 -87.375 37.1875 C-86.66988281 36.44951172 -85.96476562 35.71152344 -85.23828125 34.95117188 C-81.36285194 30.82559443 -79.17609263 28.42127369 -78.75 22.5625 C-78 19 -78 19 -75.8125 16.5625 C-72.45611204 14.69784002 -70.7822566 14.3696239 -67 15 C-64.30009338 16.79993774 -62.4581135 18.083773 -61 21 C-60.960008 22.99960012 -60.95653201 25.00047242 -61 27 C-60.25878906 27.26554687 -59.51757812 27.53109375 -58.75390625 27.8046875 C-56.05315071 28.97693033 -54.22478308 30.30046205 -51.9375 32.125 C-47.33224701 35.20026861 -43.52013706 36.12507059 -37.9921875 35.84375 C-32.11309789 34.18593883 -28.75603711 29.57767022 -25 25 C-23.73218529 23.53904164 -22.46167458 22.08041493 -21.1875 20.625 C-20.6409375 19.9753125 -20.094375 19.325625 -19.53125 18.65625 C-18 17 -18 17 -15.1875 15.125 C-12.16864597 12.19239894 -12.10145714 9.43108216 -11.65234375 5.33984375 C-10.06108051 -0.36774116 -5.22014146 -0.73265143 0 0 Z M-5 6 C-5.33 7.32 -5.66 8.64 -6 10 C-4.68 10.33 -3.36 10.66 -2 11 C-1.67 9.35 -1.34 7.7 -1 6 C-2.32 6 -3.64 6 -5 6 Z M-72 21 C-72.33 22.32 -72.66 23.64 -73 25 C-70.525 25.495 -70.525 25.495 -68 26 C-67.67 24.68 -67.34 23.36 -67 22 C-68.65 21.67 -70.3 21.34 -72 21 Z M-120 40 C-120.33 41.32 -120.66 42.64 -121 44 C-118.525 44.495 -118.525 44.495 -116 45 C-116.33 43.35 -116.66 41.7 -117 40 C-117.99 40 -118.98 40 -120 40 Z M-40 41 C-40.99 41.495 -40.99 41.495 -42 42 C-42 43.32 -42 44.64 -42 46 C-40.68 46.33 -39.36 46.66 -38 47 C-37.67 45.35 -37.34 43.7 -37 42 C-37.99 41.67 -38.98 41.34 -40 41 Z M-102 51 C-102.33 52.65 -102.66 54.3 -103 56 C-101.35 55.67 -99.7 55.34 -98 55 C-98.33 53.68 -98.66 52.36 -99 51 C-99.99 51 -100.98 51 -102 51 Z " fill="#020001" transform="translate(392,296)"/>
<path d="M0 0 C3.53571429 0.53571429 3.53571429 0.53571429 5 2 C5.09506198 4.55593815 5.12555454 7.08464306 5.11352539 9.64086914 C5.11364593 10.4537889 5.11376646 11.26670866 5.11389065 12.10426235 C5.11314147 14.74792104 5.10551303 17.3915101 5.09765625 20.03515625 C5.09618685 21.66239386 5.09516613 23.28963194 5.09460449 24.91687012 C5.08935143 30.9654206 5.07539035 37.01396097 5.0625 43.0625 C5.041875 56.571875 5.02125 70.08125 5 84 C57.8 84 110.6 84 165 84 C165.33 85.65 165.66 87.3 166 89 C163.14984536 90.42507732 160.73456389 90.13257245 157.546875 90.14044189 C156.87687469 90.14341302 156.20687439 90.14638414 155.51657104 90.1494453 C153.26103487 90.15814935 151.00555166 90.15964196 148.75 90.16113281 C147.13720587 90.16575967 145.52441284 90.17078415 143.91162109 90.17617798 C139.52331586 90.18931415 135.13502593 90.19574896 130.7467041 90.20018864 C128.00789177 90.20311656 125.26908365 90.20722077 122.53027344 90.21169281 C113.96914692 90.2253691 105.40803 90.2350359 96.84689331 90.2388947 C86.94890454 90.24338011 77.05105355 90.26094979 67.15310669 90.2898953 C59.51148187 90.3114706 51.86989594 90.3215967 44.22824097 90.32293582 C39.65959382 90.32398656 35.09107615 90.32995156 30.52246094 90.34775543 C26.22805982 90.36416522 21.93388652 90.36642645 17.63946533 90.35761642 C16.05999138 90.3568423 14.48050552 90.36123778 12.90106201 90.37107468 C10.75147367 90.38368156 8.60270615 90.37798019 6.453125 90.36749268 C5.24817383 90.36895924 4.04322266 90.3704258 2.80175781 90.3719368 C1.87717773 90.24919765 0.95259766 90.12645851 0 90 C-2.51391215 86.22913177 -2.28142654 83.25484232 -2.25878906 78.88842773 C-2.2622937 78.06214874 -2.26579834 77.23586975 -2.26940918 76.384552 C-2.27821854 73.65081404 -2.2723807 70.91733439 -2.265625 68.18359375 C-2.26697175 66.28695119 -2.26891236 64.39030897 -2.27142334 62.4936676 C-2.27437342 58.51828729 -2.2700802 54.54299683 -2.26074219 50.56762695 C-2.24933997 45.46391124 -2.25591274 40.36040568 -2.26788712 35.25669765 C-2.27510222 31.34058539 -2.27281953 27.42452324 -2.26763153 23.5084095 C-2.26629447 21.62607867 -2.26794472 19.74374334 -2.27259064 17.86141777 C-2.277651 15.23488114 -2.26995301 12.60868863 -2.25878906 9.98217773 C-2.26283752 9.19926865 -2.26688599 8.41635956 -2.27105713 7.60972595 C-2.22853004 2.22853004 -2.22853004 2.22853004 0 0 Z " fill="#020001" transform="translate(234,292)"/>
<path d="M0 0 C1.80887695 -0.03673828 1.80887695 -0.03673828 3.65429688 -0.07421875 C5.38583008 -0.08001953 5.38583008 -0.08001953 7.15234375 -0.0859375 C8.21316162 -0.09415527 9.27397949 -0.10237305 10.36694336 -0.11083984 C13.0625 0.375 13.0625 0.375 14.70671082 1.93244934 C16.54578297 5.24566865 16.48224135 8.25064843 16.45068359 11.94165039 C16.45594055 12.69819412 16.46119751 13.45473785 16.46661377 14.23420715 C16.47979911 16.73056792 16.47108206 19.2262892 16.4609375 21.72265625 C16.46295845 23.45853294 16.46587007 25.19440881 16.46963501 26.93028259 C16.47405619 30.56599013 16.46763322 34.2014764 16.45361328 37.8371582 C16.43650869 42.50029866 16.4463718 47.1629216 16.46433067 51.82604313 C16.47516326 55.40937715 16.47172483 58.99258814 16.4639473 62.57592583 C16.46194449 64.29554747 16.46440739 66.01518024 16.47138596 67.73478889 C16.47899333 70.13607577 16.4674076 72.53652013 16.45068359 74.93774414 C16.45979263 76.00617554 16.45979263 76.00617554 16.46908569 77.09619141 C16.43186266 79.97674471 16.38233534 81.9167456 14.70671082 84.31755066 C12.2019017 85.92848079 10.10259278 85.72911641 7.15234375 85.703125 C5.42081055 85.69539063 5.42081055 85.69539063 3.65429688 85.6875 C2.44837891 85.666875 1.24246094 85.64625 0 85.625 C-1.20978516 85.61984375 -2.41957031 85.6146875 -3.66601562 85.609375 C-12.62907299 85.5292135 -12.62907299 85.5292135 -14.9375 84.375 C-14.9837719 73.71808778 -15.01934295 63.06119932 -15.04112434 52.40420723 C-15.05157654 47.45612168 -15.06576183 42.50810468 -15.08837891 37.56005859 C-15.11005623 32.78792519 -15.1220578 28.01585787 -15.12725449 23.24367905 C-15.13095946 21.4199507 -15.138194 19.59622611 -15.14896011 17.77252579 C-15.16340721 15.22473488 -15.16548081 12.67721958 -15.16455078 10.12939453 C-15.17174133 9.36982452 -15.17893188 8.61025452 -15.18634033 7.82766724 C-15.1467448 -2.14866533 -8.07370716 0.00860278 0 0 Z M-7.9375 7.375 C-7.9600528 16.48459489 -7.97841611 25.59417137 -7.98931217 34.7037878 C-7.99454056 38.93331371 -8.0016374 43.1628196 -8.01293945 47.39233398 C-8.02376991 51.47068543 -8.02977717 55.54901757 -8.03237724 59.62738228 C-8.03423121 61.18677639 -8.03785127 62.7461694 -8.04323006 64.30555534 C-8.05044262 66.48229162 -8.05149085 68.65894714 -8.05102539 70.83569336 C-8.053246 72.07701523 -8.05546661 73.3183371 -8.05775452 74.59727478 C-8.25497011 77.282817 -8.25497011 77.282817 -6.9375 78.375 C-1.9875 78.375 2.9625 78.375 8.0625 78.375 C8.0625 54.945 8.0625 31.515 8.0625 7.375 C2.7825 7.375 -2.4975 7.375 -7.9375 7.375 Z " fill="#020001" transform="translate(193.9375,181.625)"/>
<path d="M0 0 C1.26199219 0.00322266 2.52398437 0.00644531 3.82421875 0.00976562 C5.08621094 -0.00634766 6.34820312 -0.02246094 7.6484375 -0.0390625 C8.85113281 -0.03970703 10.05382812 -0.04035156 11.29296875 -0.04101562 C12.95489258 -0.04548706 12.95489258 -0.04548706 14.65039062 -0.05004883 C15.53275391 0.07281494 16.41511719 0.19567871 17.32421875 0.32226562 C19.56616572 3.68518609 19.58036245 4.82131447 19.59887695 8.75585938 C19.61317497 10.42273804 19.61317497 10.42273804 19.62776184 12.12329102 C19.62685043 13.32332764 19.62593903 14.52336426 19.625 15.75976562 C19.62928513 16.99138428 19.63357025 18.22300293 19.63798523 19.49194336 C19.64520511 22.76564695 19.64209881 26.03916715 19.63641357 29.31286621 C19.63671846 31.32034563 19.64676146 33.32753055 19.66040039 35.33496094 C19.684825 39.18503765 19.68905837 43.0346213 19.6875 46.88476562 C19.69670975 48.08480225 19.70591949 49.28483887 19.71540833 50.52124023 C19.70917953 51.63249268 19.70295074 52.74374512 19.6965332 53.88867188 C19.69716263 54.86779541 19.69779205 55.84691895 19.69844055 56.85571289 C19.32421875 59.32226562 19.32421875 59.32226562 17.96269226 61.13859558 C15.54390127 62.88598449 13.62348281 62.69424786 10.66796875 62.68554688 C9.01087891 62.68458008 9.01087891 62.68458008 7.3203125 62.68359375 C5.58974609 62.65942383 5.58974609 62.65942383 3.82421875 62.63476562 C2.67050781 62.63798828 1.51679688 62.64121094 0.328125 62.64453125 C-8.27520365 62.58931736 -8.27520365 62.58931736 -11.67578125 60.32226562 C-12.05000305 57.89331055 -12.05000305 57.89331055 -12.0480957 54.80273438 C-12.05432449 53.64813721 -12.06055328 52.49354004 -12.06697083 51.30395508 C-12.05776108 50.05187256 -12.04855133 48.79979004 -12.0390625 47.50976562 C-12.039561 46.22996826 -12.04005951 44.9501709 -12.04057312 43.6315918 C-12.04048335 40.9212671 -12.03004578 38.21123961 -12.01196289 35.50097656 C-11.98927517 32.02375308 -11.98873101 28.54696401 -11.99548054 25.06968689 C-11.99962209 21.75799669 -11.98765093 18.44644084 -11.9765625 15.13476562 C-11.97747391 13.88268311 -11.97838531 12.63060059 -11.97932434 11.34057617 C-11.96979233 10.185979 -11.96026031 9.03138184 -11.95043945 7.84179688 C-11.94583206 6.82190674 -11.94122467 5.8020166 -11.93647766 4.7512207 C-11.25346099 -1.61256777 -4.94365539 0.02914266 0 0 Z M-4.67578125 7.32226562 C-4.70042421 13.99747444 -4.71861392 20.67265703 -4.73071289 27.34790039 C-4.7357545 29.62069154 -4.74258762 31.89347942 -4.7512207 34.16625977 C-4.76329386 37.42530114 -4.76901112 40.68429979 -4.7734375 43.94335938 C-4.77859879 44.96626572 -4.78376007 45.98917206 -4.78907776 47.04307556 C-4.78915329 47.98397537 -4.78922882 48.92487518 -4.78930664 49.89428711 C-4.79152725 50.72701645 -4.79374786 51.55974579 -4.79603577 52.41770935 C-4.88582957 54.33259837 -4.88582957 54.33259837 -3.67578125 55.32226562 C-1.16442021 55.42201595 1.3132529 55.46108746 3.82421875 55.44726562 C4.52675781 55.45113281 5.22929687 55.455 5.953125 55.45898438 C9.42850683 55.76617493 9.42850683 55.76617493 12.32421875 54.32226562 C12.41725893 52.84872215 12.4416814 51.37075972 12.43774414 49.89428711 C12.43763084 48.48293739 12.43763084 48.48293739 12.43751526 47.04307556 C12.43235397 46.02016922 12.42719269 44.99726288 12.421875 43.94335938 C12.41975258 42.38066063 12.41975258 42.38066063 12.41758728 40.78639221 C12.41196955 37.44415469 12.39941405 34.10198306 12.38671875 30.75976562 C12.38170603 28.50000096 12.37714273 26.24023526 12.37304688 23.98046875 C12.36199436 18.42770881 12.34471785 12.87499841 12.32421875 7.32226562 C6.71421875 7.32226562 1.10421875 7.32226562 -4.67578125 7.32226562 Z " fill="#020001" transform="translate(148.67578125,204.677734375)"/>
<path d="M0 0 C1.21880859 -0.01224609 2.43761719 -0.02449219 3.69335938 -0.03710938 C5.43649414 -0.04000977 5.43649414 -0.04000977 7.21484375 -0.04296875 C8.28726318 -0.04707764 9.35968262 -0.05118652 10.46459961 -0.05541992 C13.0625 0.1875 13.0625 0.1875 15.0625 2.1875 C15.27455956 4.96067359 15.36647141 7.63148037 15.36328125 10.40625 C15.36756638 11.21993042 15.3718515 12.03361084 15.37626648 12.87194824 C15.38201336 14.59349638 15.3825074 16.31506881 15.37817383 18.03662109 C15.37501236 20.6771768 15.39847264 23.31661407 15.42382812 25.95703125 C15.42610086 27.62760275 15.42680473 29.29817727 15.42578125 30.96875 C15.434991 31.76148315 15.44420074 32.55421631 15.45368958 33.37097168 C15.43481445 35.59570312 15.43481445 35.59570312 15.0625 39.1875 C11.64007307 41.46911795 10.39090656 41.43417895 6.37109375 41.41796875 C5.26185547 41.41603516 4.15261719 41.41410156 3.00976562 41.41210938 C1.27243164 41.39374023 1.27243164 41.39374023 -0.5 41.375 C-2.24313477 41.3740332 -2.24313477 41.3740332 -4.02148438 41.37304688 C-12.6568287 41.32783565 -12.6568287 41.32783565 -14.9375 40.1875 C-16.73066158 33.92390183 -16.12184683 27.13889424 -16.125 20.6875 C-16.13724609 19.36878906 -16.14949219 18.05007812 -16.16210938 16.69140625 C-16.16404297 15.42167969 -16.16597656 14.15195313 -16.16796875 12.84375 C-16.17207764 11.68681641 -16.17618652 10.52988281 -16.18041992 9.33789062 C-15.32001737 -1.82053603 -9.43014818 0.00497108 0 0 Z M-8.9375 7.1875 C-9.03721786 9.10208282 -9.06830589 11.02032317 -9.0703125 12.9375 C-9.07160156 14.1028125 -9.07289062 15.268125 -9.07421875 16.46875 C-9.07035156 17.6959375 -9.06648438 18.923125 -9.0625 20.1875 C-9.06636719 21.4146875 -9.07023437 22.641875 -9.07421875 23.90625 C-9.07292969 25.0715625 -9.07164063 26.236875 -9.0703125 27.4375 C-9.06918457 28.51515625 -9.06805664 29.5928125 -9.06689453 30.703125 C-9.21842371 33.12969997 -9.21842371 33.12969997 -7.9375 34.1875 C-5.24095146 34.26069621 -2.57058542 34.27992537 0.125 34.25 C0.88361328 34.24548828 1.64222656 34.24097656 2.42382812 34.23632812 C4.30341871 34.2245068 6.18296899 34.20657078 8.0625 34.1875 C8.09136338 29.70834672 8.10925187 25.22921709 8.125 20.75 C8.13337891 19.47060547 8.14175781 18.19121094 8.15039062 16.87304688 C8.15361328 15.65810547 8.15683594 14.44316406 8.16015625 13.19140625 C8.16539307 12.06549072 8.17062988 10.9395752 8.17602539 9.77954102 C8.35795448 7.25779129 8.35795448 7.25779129 7.0625 6.1875 C4.55113896 6.08774968 2.07346585 6.04867817 -0.4375 6.0625 C-1.14003906 6.05863281 -1.84257813 6.05476562 -2.56640625 6.05078125 C-6.04178808 5.74359069 -6.04178808 5.74359069 -8.9375 7.1875 Z " fill="#020001" transform="translate(110.9375,225.8125)"/>
<path d="M0 0 C2.475 1.485 2.475 1.485 5 3 C2.89106682 6.84370079 0.48833256 9.6198026 -2.625 12.6875 C-6.73176516 17.11778846 -7.72279932 19.79551359 -7.76953125 25.73046875 C-8.16536381 29.62841314 -10.2256222 31.3609577 -13 34 C-16.22859847 35.61429923 -19.50993653 35.59570657 -23 35 C-26.02508145 33.26397895 -28.41790069 31.16419863 -30 28 C-30.3744411 23.03865547 -30.23898133 19.88677759 -27 16 C-23.51649783 13.731673 -21.36876997 13.01209082 -17.1875 12.875 C-12.00764151 12.43754554 -9.40919011 8.90511282 -6.078125 5.2265625 C-4.17369943 3.18610653 -2.28188201 1.59320591 0 0 Z M-21 20 C-21.66 20.66 -22.32 21.32 -23 22 C-22.67958603 24.60280568 -22.67958603 24.60280568 -22 27 C-19.60280568 27.67958603 -19.60280568 27.67958603 -17 28 C-16.34 27.34 -15.68 26.68 -15 26 C-15.32041397 23.39719432 -15.32041397 23.39719432 -16 21 C-18.39719432 20.32041397 -18.39719432 20.32041397 -21 20 Z " fill="#020001" transform="translate(358,187)"/>
<path d="M0 0 C1.23468018 -0.00637985 2.46936035 -0.0127597 3.74145508 -0.01933289 C5.09456341 -0.02086133 6.44767226 -0.02197542 7.80078125 -0.02270508 C9.18318721 -0.02591704 10.56559282 -0.02928107 11.94799805 -0.03279114 C14.84652495 -0.03878251 17.74502203 -0.04063098 20.64355469 -0.04003906 C24.36286641 -0.03993733 28.08198773 -0.05360127 31.80125427 -0.07081127 C34.6562183 -0.08191254 37.51113598 -0.08395887 40.36611938 -0.08342934 C41.73768776 -0.08461184 43.10925724 -0.08904867 44.48080444 -0.0967617 C46.39603227 -0.10652528 48.31131574 -0.10242874 50.2265625 -0.09765625 C51.31751221 -0.09908127 52.40846191 -0.10050629 53.5324707 -0.10197449 C56.11328125 0.14526367 56.11328125 0.14526367 58.11328125 2.14526367 C57.73828125 4.77026367 57.73828125 4.77026367 57.11328125 7.14526367 C48.80327333 7.19154992 40.49331904 7.22711387 32.18321419 7.24888802 C28.32473328 7.25933711 24.4663404 7.27351667 20.60791016 7.29614258 C16.88615933 7.31783107 13.16449331 7.32982381 9.44268417 7.33501816 C8.02086934 7.33872113 6.59905928 7.34595187 5.17728043 7.35672379 C3.19001011 7.37118487 1.20265494 7.37208013 -0.78466797 7.37231445 C-1.91717987 7.37675568 -3.04969177 7.3811969 -4.21652222 7.38577271 C-6.88671875 7.14526367 -6.88671875 7.14526367 -8.88671875 5.14526367 C-8.63671875 3.08276367 -8.63671875 3.08276367 -7.88671875 1.14526367 C-5.17404307 -0.21107417 -3.03692545 0.01061107 0 0 Z " fill="#020001" transform="translate(103.88671875,152.854736328125)"/>
<path d="M0 0 C0.79006943 -0.0004985 1.58013885 -0.00099701 2.39414978 -0.00151062 C4.0626782 0.00082817 5.73121026 0.01054531 7.3996582 0.02709961 C9.95881539 0.0507256 12.51693312 0.04765533 15.07617188 0.04101562 C16.69662082 0.04659133 18.31706536 0.05370054 19.9375 0.0625 C20.70522232 0.06158859 21.47294464 0.06067719 22.26393127 0.05973816 C27.67130341 0.13224091 27.67130341 0.13224091 29.90234375 2.36328125 C29.57234375 4.01328125 29.24234375 5.66328125 28.90234375 7.36328125 C16.36234375 7.36328125 3.82234375 7.36328125 -9.09765625 7.36328125 C-9.75765625 6.04328125 -10.41765625 4.72328125 -11.09765625 3.36328125 C-8.3719478 -0.68812181 -4.40418726 -0.05297317 0 0 Z " fill="#020001" transform="translate(106.09765625,170.63671875)"/>
<path d="M0 0 C0.969375 0.00064453 1.93875 0.00128906 2.9375 0.00195312 C4.4534375 0.02612305 4.4534375 0.02612305 6 0.05078125 C7.010625 0.04755859 8.02125 0.04433594 9.0625 0.04101562 C16.59928571 0.09613839 16.59928571 0.09613839 20 2.36328125 C19.67 4.01328125 19.34 5.66328125 19 7.36328125 C10.75 7.36328125 2.5 7.36328125 -6 7.36328125 C-6.66 6.04328125 -7.32 4.72328125 -8 3.36328125 C-5.52645554 0.28609837 -3.88443003 -0.01305631 0 0 Z " fill="#020001" transform="translate(332,245.63671875)"/>
<path d="M0 0 C2.4375 1.625 2.4375 1.625 4 4 C4 7.55053329 3.64301849 9.28808667 1.25 11.9375 C-1 13 -1 13 -3.5625 12.875 C-6.24955992 11.91041439 -7.43467041 11.38918727 -9 9 C-9.39365568 5.85075452 -9.52854531 3.88090884 -7.875 1.125 C-5.07553259 -0.55468045 -3.20195936 -0.45742277 0 0 Z " fill="#020001" transform="translate(149,100)"/>
<path d="M0 0 C1.875 1.125 1.875 1.125 3 3 C3.5 5.9375 3.5 5.9375 3 9 C0.875 11.5 0.875 11.5 -2 13 C-5.1875 12.4375 -5.1875 12.4375 -8 11 C-10 8 -10 8 -9.8125 4.9375 C-8.34378834 -0.37245753 -4.92850383 -0.51338582 0 0 Z " fill="#020001" transform="translate(101,100)"/>
<path d="M0 0 C1.875 1.125 1.875 1.125 3 3 C3.42478586 7.07794425 3.31282587 8.53076119 1 12 C-1.86076138 12.97868153 -3.38702769 13.22135111 -6.25 12.1875 C-8 11 -8 11 -9 9 C-9.44720497 3.74534161 -9.44720497 3.74534161 -7.875 1.125 C-5.11909116 -0.52854531 -3.14924548 -0.39365568 0 0 Z " fill="#020001" transform="translate(125,100)"/>
</svg>
