<?xml version="1.0" encoding="UTF-8"?>
<svg version="1.1" xmlns="http://www.w3.org/2000/svg" width="500" height="500">
<path d="M0 0 C7.71716022 7.09643211 10.92743777 17.5296905 14.81420898 27.00830078 C16.51116373 31.13182464 18.2704886 35.17709796 20.27734375 39.16015625 C24.01978722 46.68817202 26.69701521 53.20241576 26.734375 61.71484375 C26.73759766 62.39756348 26.74082031 63.0802832 26.74414062 63.78369141 C26.4778986 69.76378316 24.15965308 73.93374296 20.359375 78.46484375 C18.984375 79.52734375 18.984375 79.52734375 16.984375 79.52734375 C16.87222656 80.67009766 16.87222656 80.67009766 16.7578125 81.8359375 C15.82680687 89.14706998 14.29937937 95.17999656 8.984375 100.52734375 C3.38109804 104.46034452 -1.5393412 105.35986413 -8.265625 106.08984375 C-16.48329992 107.06477356 -16.48329992 107.06477356 -24.453125 109.21484375 C-37.24926245 113.0639219 -52.83116575 111.677002 -65.015625 106.52734375 C-67.33344152 116.17412199 -69.56274451 125.83959449 -71.703125 135.52734375 C-71.91735107 136.48133057 -72.13157715 137.43531738 -72.35229492 138.41821289 C-73.31314388 142.80503028 -74.13801547 147.12017187 -74.59765625 151.58984375 C-75.015625 155.52734375 -75.015625 155.52734375 -76.015625 157.52734375 C-76.10083569 159.1340577 -76.12278946 160.74432768 -76.11328125 162.35327148 C-76.10997803 163.35869492 -76.1066748 164.36411835 -76.10327148 165.40000916 C-76.09082397 167.03891869 -76.09082397 167.03891869 -76.078125 168.7109375 C-76.07433838 169.83621353 -76.07055176 170.96148956 -76.06665039 172.12086487 C-76.05030247 176.9441471 -76.02239827 181.76734526 -75.99511719 186.59057617 C-75.97689374 190.1098592 -75.96487776 193.62912781 -75.953125 197.1484375 C-75.94067749 198.76001991 -75.94067749 198.76001991 -75.92797852 200.40415955 C-75.87054902 218.3775783 -75.87054902 218.3775783 -79.015625 225.52734375 C-75.32228657 223.98845274 -71.73908446 222.39974591 -68.203125 220.52734375 C-63.64675802 218.21831445 -58.93497745 216.84966569 -54.015625 215.52734375 C-53.32339844 215.33140625 -52.63117188 215.13546875 -51.91796875 214.93359375 C-37.03580415 210.90978781 -21.80539042 211.70024605 -7.015625 215.52734375 C-6.08363281 215.72070312 -5.15164063 215.9140625 -4.19140625 216.11328125 C2.93692094 217.71585408 8.64070449 220.93394052 14.8203125 224.6875 C15.86445313 225.29464844 16.90859375 225.90179688 17.984375 226.52734375 C18.81324219 227.02234375 19.64210938 227.51734375 20.49609375 228.02734375 C23.17329064 228.83649176 23.17329064 228.83649176 26.04296875 226.9296875 C27.17856843 226.12097229 28.30441617 225.29844597 29.421875 224.46484375 C36.29702992 219.68630881 42.92044002 216.9192744 50.984375 214.52734375 C51.75652344 214.29402344 52.52867187 214.06070313 53.32421875 213.8203125 C73.60459936 208.23818794 99.56759844 210.34430102 118.15625 220.2109375 C130.4213641 227.50251849 149.46930217 238.94742794 154.984375 252.52734375 C155.38403831 255.46959859 155.35770703 258.36679523 155.3125 261.33203125 C155.31135193 262.19247543 155.31020386 263.05291962 155.309021 263.93943787 C155.30051698 266.76077274 155.26906768 269.58121702 155.234375 272.40234375 C155.21701274 274.36352159 155.20009112 276.32470337 155.18359375 278.28588867 C155.14646963 282.33804859 155.09795715 286.3899152 155.04492188 290.44189453 C154.98614853 295.38408171 154.98963634 300.32356368 155.01898193 305.26593018 C155.03488476 308.92144483 155.01755822 312.57630973 154.99255371 316.23175049 C154.98713694 317.95909564 154.9948555 319.68653599 155.01623535 321.41375732 C155.16222182 334.61459941 155.16222182 334.61459941 152.49707031 338.94262695 C150.43850532 340.83674575 148.41789312 342.15238608 145.984375 343.52734375 C145.18193359 344.06544678 144.37949219 344.6035498 143.55273438 345.15795898 C140.98547457 346.87435412 138.37572229 348.49011739 135.734375 350.08984375 C134.80778076 350.65558105 133.88118652 351.22131836 132.92651367 351.80419922 C117.35799468 361.22405923 103.67475364 366.7409033 85.296875 366.65234375 C84.41837891 366.65476074 83.53988281 366.65717773 82.63476562 366.65966797 C77.66985555 366.64600809 72.91163571 366.31963903 67.984375 365.65234375 C62.0211104 365.12528754 58.65691147 366.79124542 53.5390625 369.703125 C29.89367128 381.83762797 2.56948149 383.93464769 -23.515625 383.83984375 C-24.47863525 383.83901794 -25.44164551 383.83819214 -26.43383789 383.83734131 C-41.49368382 383.80767135 -56.14218204 383.0411651 -71.015625 380.52734375 C-72.03479004 380.36685547 -73.05395508 380.20636719 -74.10400391 380.04101562 C-79.30029255 379.21165882 -84.34953143 378.31805331 -89.390625 376.77734375 C-94.41748781 375.28138458 -99.45314497 373.862905 -104.52075195 372.51123047 C-114.75102092 369.77600068 -124.88190274 366.78384901 -134.98925781 363.62548828 C-140.56179049 361.88683841 -146.13971665 360.18948544 -151.75390625 358.58984375 C-163.39883201 355.26512332 -174.86774275 351.67726419 -186.203125 347.40234375 C-187.27175781 347.0067627 -188.34039062 346.61118164 -189.44140625 346.20361328 C-195.54574897 343.83739987 -201.32385326 341.22512288 -206.015625 336.52734375 C-206.015625 335.86734375 -206.015625 335.20734375 -206.015625 334.52734375 C-206.675625 334.52734375 -207.335625 334.52734375 -208.015625 334.52734375 C-215.26077322 325.45122057 -216.73927177 315.5878017 -215.62109375 304.30078125 C-214.77070464 299.00093685 -213.42482308 293.85896197 -212.09765625 288.66137695 C-209.99907803 280.13217678 -208.70301486 271.52326982 -207.453125 262.83984375 C-205.78233168 251.26864373 -203.86880134 239.87775267 -201.015625 228.52734375 C-200.86512695 227.8938501 -200.71462891 227.26035645 -200.55957031 226.60766602 C-199.33489457 221.51298986 -197.80832515 216.55590771 -196.140625 211.58984375 C-195.74037109 210.3975415 -195.74037109 210.3975415 -195.33203125 209.18115234 C-193.19023573 202.88639462 -190.75157201 196.91557767 -187.71875 190.99609375 C-183.35969016 182.46546052 -179.67716377 173.7246976 -176.00048828 164.88623047 C-172.01646697 155.3439365 -167.82273449 145.9590718 -163.13671875 136.73974609 C-160.49232104 131.52820559 -157.99036068 126.25876439 -155.515625 120.96484375 C-152.83712752 115.24545712 -150.05205117 109.62725656 -147.015625 104.08984375 C-142.13667699 95.15504952 -138.09342188 85.84802234 -134.015625 76.52734375 C-133.69174805 75.78742188 -133.36787109 75.0475 -133.03417969 74.28515625 C-131.84535768 71.56642614 -130.65800178 68.84706305 -129.47290039 66.12670898 C-127.18451662 60.88380461 -124.83847396 55.6702643 -122.40625 50.4921875 C-121.5184038 48.59927944 -120.65152525 46.69629789 -119.8125 44.78125 C-111.56429682 26.71768503 -92.69822194 21.20920562 -75.39453125 14.6171875 C-71.28613263 13.04302065 -67.29964672 11.35580054 -63.328125 9.46484375 C-57.9056649 6.88340663 -52.39724093 4.58211474 -46.828125 2.33984375 C-46.00803955 2.00654053 -45.1879541 1.6732373 -44.34301758 1.32983398 C-29.97425639 -4.40180934 -13.75274942 -10.04803591 0 0 Z M-57.91015625 21.109375 C-61.24143746 22.63045057 -64.60920345 23.99568822 -68.015625 25.33984375 C-69.94362429 26.10643776 -71.87089193 26.87483935 -73.79785156 27.64404297 C-75.39228429 28.27907793 -76.98816479 28.91048229 -78.58496094 29.53955078 C-96.68725721 36.72295039 -105.41094607 42.47305793 -113.39916992 60.6809082 C-115.19370407 64.93042579 -116.94791934 69.19576345 -118.6953125 73.46484375 C-121.50649496 80.23129454 -124.58389989 86.79240352 -127.89437866 93.32331848 C-131.76256892 100.96181405 -135.38829808 108.70983842 -139.015625 116.46484375 C-139.68210398 117.88615573 -140.34877055 119.30737977 -141.015625 120.72851562 C-142.34405656 123.56001786 -143.6714019 126.39202554 -144.99804688 129.22436523 C-147.41477259 134.38178622 -149.84158174 139.53445708 -152.27050781 144.68614197 C-154.37127751 149.14537277 -156.44870091 153.6148196 -158.515625 158.08984375 C-160.56343656 162.50259853 -162.67990865 166.86704219 -164.89428711 171.19873047 C-180.49411414 201.78677652 -191.28636538 233.16774508 -195.49072266 267.25415039 C-197.04270557 279.55601294 -199.44251186 291.64321322 -202.56640625 303.64306641 C-204.11778558 310.15042817 -203.7681672 316.92417182 -200.30078125 322.6953125 C-199.87667969 323.29988281 -199.45257813 323.90445312 -199.015625 324.52734375 C-198.62246094 325.12160156 -198.22929687 325.71585937 -197.82421875 326.328125 C-192.07385058 333.39465373 -182.33244386 335.68968468 -174.015625 338.52734375 C-172.89172363 338.91470703 -171.76782227 339.30207031 -170.60986328 339.70117188 C-162.42846131 342.48060706 -154.20558081 344.95639761 -145.86834717 347.23614502 C-134.62891648 350.31178715 -123.49040215 353.60001875 -112.390625 357.15234375 C-102.38738292 360.32223983 -92.35213863 363.07161614 -82.140625 365.46484375 C-80.94743652 365.74730957 -79.75424805 366.02977539 -78.52490234 366.32080078 C-60.86254314 370.33799613 -43.15307355 371.70787355 -25.078125 371.65234375 C-23.82322266 371.65621094 -22.56832031 371.66007812 -21.27539062 371.6640625 C-9.09928527 371.65150334 2.87901444 371.02616004 14.859375 368.77734375 C15.79555664 368.60323975 16.73173828 368.42913574 17.69628906 368.24975586 C29.73937471 365.91375932 41.23711359 362.59851306 51.984375 356.52734375 C51.63650792 354.5519763 51.63650792 354.5519763 50.984375 352.52734375 C50.324375 352.19734375 49.664375 351.86734375 48.984375 351.52734375 C49.314375 350.20734375 49.644375 348.88734375 49.984375 347.52734375 C52.78734369 346.72369538 54.38573353 346.27827394 57.125 347.41796875 C57.82109375 347.8665625 58.5171875 348.31515625 59.234375 348.77734375 C66.10428184 352.87878067 72.97102427 355.01230798 80.984375 355.52734375 C81.69722656 355.59179688 82.41007812 355.65625 83.14453125 355.72265625 C103.85212401 356.7597644 122.14603824 344.31012574 139.07421875 334.06640625 C139.80503662 333.62506348 140.53585449 333.1837207 141.28881836 332.72900391 C143.13353555 331.62165208 143.13353555 331.62165208 143.984375 329.52734375 C144.09692464 327.31294566 144.14375749 325.09511617 144.16137695 322.87792969 C144.16794815 322.19477188 144.17451935 321.51161407 144.18128967 320.80775452 C144.20103125 318.54240817 144.21268835 316.2771282 144.22265625 314.01171875 C144.22673178 313.23772987 144.2308073 312.463741 144.23500633 311.66629791 C144.25587277 307.56806199 144.27017083 303.4698596 144.27954102 299.37158203 C144.29059451 295.14356964 144.32497997 290.91608515 144.36471272 286.68825912 C144.3908945 283.43338053 144.3992343 280.17862728 144.40282249 276.92365265 C144.40768606 275.36556695 144.4192936 273.80748675 144.43786049 272.24950409 C144.46228211 270.06402672 144.46128211 267.87990878 144.4543457 265.69433594 C144.46021194 264.45238464 144.46607819 263.21043335 144.47212219 261.93084717 C143.21291758 253.14410834 134.96892859 247.28827306 128.28173828 242.24267578 C108.59206793 227.91365622 87.17546233 221.84440418 62.86328125 224.99609375 C50.01961211 227.24139699 38.81077167 231.92924666 28.984375 240.52734375 C27.4684375 241.73390625 27.4684375 241.73390625 25.921875 242.96484375 C24.9628125 243.73828125 24.9628125 243.73828125 23.984375 244.52734375 C20.64014741 243.48227263 18.23720872 242.00946772 15.546875 239.83984375 C0.28156632 228.06622193 -19.41720093 223.12067005 -38.4765625 224.9921875 C-57.97554869 227.94070969 -75.24253357 236.80805948 -88.1171875 251.8828125 C-90.99503856 255.89167087 -93.42503133 260.18302469 -95.69628906 264.56323242 C-97.53612689 267.90835306 -98.47326004 269.35080664 -102.171875 270.5546875 C-105.015625 270.52734375 -105.015625 270.52734375 -106.890625 269.08984375 C-107.261875 268.57421875 -107.633125 268.05859375 -108.015625 267.52734375 C-106.69791538 264.04380149 -105.16278686 260.87183458 -103.30078125 257.6484375 C-102.77935547 256.72611328 -102.25792969 255.80378906 -101.72070312 254.85351562 C-100.63834331 252.95005525 -99.54738163 251.05145666 -98.44726562 249.15820312 C-94.6754875 242.43783397 -92.4880677 236.08153152 -91.015625 228.52734375 C-90.84893311 227.68260498 -90.68224121 226.83786621 -90.51049805 225.9675293 C-87.72420917 210.7065089 -87.26299228 195.51379515 -88.390625 180.05859375 C-89.37142584 166.25582667 -87.93538688 154.02964867 -85.015625 140.52734375 C-84.78391602 139.42100586 -84.55220703 138.31466797 -84.31347656 137.17480469 C-81.91506469 125.74291131 -79.36719168 114.35367468 -76.265625 103.08984375 C-76.06718994 102.36885498 -75.86875488 101.64786621 -75.66430664 100.9050293 C-74.72154907 97.60235227 -73.70347286 94.52710971 -72.015625 91.52734375 C-65.89622723 91.86731029 -61.68196741 93.42985683 -56.3125 96.37109375 C-47.34056306 100.88757901 -34.03354076 99.49000786 -24.765625 96.58984375 C-23.65445313 96.21730469 -22.54328125 95.84476562 -21.3984375 95.4609375 C-17.71966831 94.44566517 -14.4485501 94.25340333 -10.640625 94.15234375 C-5.27956577 93.85116065 -1.52963138 93.24107139 2.58984375 89.66796875 C4.99219457 85.9803266 4.96699928 81.89414322 5.36328125 77.59375 C6.06123391 74.1478831 6.78356179 73.12438969 9.484375 70.96484375 C10.0928125 70.57167969 10.70125 70.17851562 11.328125 69.7734375 C13.40585483 68.21023982 14.01431239 66.93363057 14.984375 64.52734375 C15.45470581 57.02432964 12.71112256 50.86635093 9.359375 44.33984375 C8.44865394 42.50158179 7.53850133 40.66303812 6.62890625 38.82421875 C6.1798291 37.92896484 5.73075195 37.03371094 5.26806641 36.11132812 C3.45855367 32.46890081 1.74704777 28.78425026 0.046875 25.08984375 C-3.87838361 15.54811218 -3.87838361 15.54811218 -11.015625 8.52734375 C-26.58477558 3.70832095 -44.22262624 14.63859085 -57.91015625 21.109375 Z " fill="#020001" transform="translate(278.015625,67.47265625)"/>
<path d="M0 0 C1.9453125 0.19921875 1.9453125 0.19921875 4 1 C5.61705765 3.47081885 6.40112371 6.11861406 7 9 C6.10435147 12.91846231 2.80907879 15.25780404 0 18 C-0.598125 18.81984375 -1.19625 19.6396875 -1.8125 20.484375 C-6.03742514 25.34303891 -12.52052446 27.48002251 -18.796875 28.41796875 C-25.42007718 28.628707 -29.5285522 26.64763187 -35 23 C-35 22.01 -35 21.02 -35 20 C-34.09378906 20.03480469 -33.18757812 20.06960937 -32.25390625 20.10546875 C-22.27523402 20.32721702 -14.10949227 19.87858802 -6.50390625 12.890625 C-4.13861396 9.9171147 -2.9532266 6.64221129 -1.7265625 3.07421875 C-1 1 -1 1 0 0 Z " fill="#020001" transform="translate(230,124)"/>
<path d="M0 0 C2.34643555 0.22216797 2.34643555 0.22216797 5 1 C6.39379883 2.93017578 6.39379883 2.93017578 7.45703125 5.4453125 C8.04194336 6.81429687 8.04194336 6.81429687 8.63867188 8.2109375 C9.02603516 9.17257813 9.41339844 10.13421875 9.8125 11.125 C10.21919922 12.0634375 10.62589844 13.001875 11.04492188 13.96875 C13.20906978 19.16270498 14.74040292 23.3609717 14 29 C13.34 29.66 12.68 30.32 12 31 C9.375 30.625 9.375 30.625 7 30 C6.74605469 29.09378906 6.49210938 28.18757813 6.23046875 27.25390625 C5.88628906 26.03574219 5.54210937 24.81757813 5.1875 23.5625 C4.91728027 22.60331665 4.91728027 22.60331665 4.64160156 21.62475586 C3.62489585 18.05503911 2.51572973 14.55082691 1.25 11.0625 C-0.0817969 7.21828623 -0.25848238 4.04955734 0 0 Z " fill="#020001" transform="translate(248,107)"/>
<path d="M0 0 C1.65 0 3.3 0 5 0 C6.49097694 3.20297245 7.96561739 6.41321366 9.4375 9.625 C9.85837891 10.52863281 10.27925781 11.43226562 10.71289062 12.36328125 C14.83737787 21.4041573 14.83737787 21.4041573 15 26 C14.34 26.99 13.68 27.98 13 29 C11.19140625 28.9765625 11.19140625 28.9765625 9 28 C7.7754274 25.4310922 6.82463959 23.05793968 5.9375 20.375 C5.44822786 18.96558476 4.95735246 17.55672501 4.46484375 16.1484375 C4.10845825 15.10973511 4.10845825 15.10973511 3.74487305 14.05004883 C3.01612201 12.04437119 2.19595172 10.10911735 1.328125 8.16015625 C0.04593325 5.10929411 -0.29590596 3.25496554 0 0 Z " fill="#020001" transform="translate(265,103)"/>
</svg>
