<?xml version="1.0" encoding="UTF-8"?>
<svg version="1.1" xmlns="http://www.w3.org/2000/svg" width="500" height="500">
<path d="M0 0 C3.49046327 1.84693775 6.59065381 4.14027277 9.75 6.5 C10.63888916 7.14420898 11.52777832 7.78841797 12.44360352 8.45214844 C14.19621243 9.72473324 15.94388082 11.00415575 17.68603516 12.29101562 C19.54434284 13.66347329 21.41100886 15.01973678 23.29296875 16.359375 C34.71002676 24.52164394 45.59495732 33.19781811 56.17333984 42.41162109 C58.0544567 44.04735302 59.94240471 45.67489019 61.83203125 47.30078125 C68.50242764 53.04728601 75.09744174 58.85730304 81.58984375 64.8046875 C84.33005329 67.30063201 87.11845953 69.73516041 89.91796875 72.1640625 C92.41543357 74.36632979 94.861277 76.62140035 97.3125 78.875 C100.93523905 82.18336914 104.61692891 85.36012358 108.4375 88.4375 C120.77160823 98.45343294 131.7117345 107.66344114 135 124 C135.24613427 128.14727764 135.27096273 132.29367996 135.29516602 136.44775391 C135.31197686 138.4380636 135.35575224 140.42808868 135.40039062 142.41796875 C135.44898112 150.05041452 134.74082897 156.95371873 133.0703125 164.40234375 C130.63893153 175.38999767 130.13452366 186.28208816 129.70159912 197.50219727 C129.4585415 203.72336322 129.15996011 209.94173222 128.85546875 216.16015625 C128.79248596 217.44870514 128.72950317 218.73725403 128.66461182 220.06484985 C127.7240739 238.40704257 126.03111163 256.68709208 124.39463806 274.97807312 C122.958946 291.06703548 121.82217183 307.04363033 121.86962891 323.20458984 C121.87505092 325.39557643 121.86960373 327.58636277 121.86328125 329.77734375 C120.87279252 344.7757929 120.87279252 344.7757929 126 358 C128.1017145 359.65984461 130.15241132 361.15183968 132.375 362.625 C137.29885673 366.01047107 141.97932099 369.52925058 146.5 373.4375 C151.04478847 377.3480671 155.62655717 381.19644624 160.3125 384.9375 C160.86292969 385.38601318 161.41335938 385.83452637 161.98046875 386.29663086 C168.46509623 391.43255666 175.6692358 394.43952132 183.4375 397.125 C184.18032227 397.38651855 184.92314453 397.64803711 185.68847656 397.91748047 C189.51702691 399.23978093 193.261393 400.37420339 197.25 401.125 C202.26360332 402.29484077 204.54201925 404.29064326 207.8125 408.125 C209.81260978 412.96737105 209.98422223 418.06401503 208.30859375 423.0625 C205.47424007 428.56517827 201.41312229 431.05367753 195.8125 433.25 C189.50100039 434.49160648 183.23668318 434.64327544 177 433 C173.81362658 432.88413188 170.87032239 432.81145529 167.74609375 433.48828125 C156.61303938 435.56286179 146.46245538 433.96203381 136 430 C134.00005964 429.27066978 132.00006265 428.5414948 130 427.8125 C128.7315625 427.32716797 128.7315625 427.32716797 127.4375 426.83203125 C121.66869578 424.86287212 116.22537911 424.8483427 110.1875 424.875 C109.32318359 424.87113281 108.45886719 424.86726563 107.56835938 424.86328125 C103.62155638 424.86923869 99.7661894 424.96502723 95.8515625 425.48828125 C84.36824795 427.01395489 72.87049918 427.24699945 62.9140625 420.609375 C57.32743145 416.13064125 53.93072918 410.90132983 52 404 C50.86710442 391.88065194 52.86997052 381.38185376 57.6015625 370.15625 C66.93081364 347.48064312 60.94447931 322.38917973 57 299 C56.83483887 298.01499512 56.66967773 297.02999023 56.49951172 296.01513672 C54.76050872 286.07990253 51.65055584 277.00043125 47.93798828 267.6328125 C35.83459559 237.00055792 38.45544493 207.13366938 51.3125 177.1875 C51.86784455 175.92160798 52.42540906 174.65668719 52.98535156 173.39282227 C53.50194336 172.22549561 54.01853516 171.05816895 54.55078125 169.85546875 C55.02169189 168.82059326 55.49260254 167.78571777 55.9777832 166.71948242 C57.23456724 163.86017193 57.23456724 163.86017193 57 160 C56.44570312 159.74863281 55.89140625 159.49726563 55.3203125 159.23828125 C52.61833305 157.79631579 50.33118965 156.01739628 47.875 154.1875 C42.17475891 150.34828079 36.89558927 148.58327232 30.2734375 146.92773438 C1.9556284 139.7660994 -22.42395968 125.81295135 -43.6953125 105.96875 C-45.78454245 104.18405187 -47.71565897 103.02724103 -50.125 101.75 C-53.40878486 98.60898839 -53.53374371 97.98427156 -53.75 93.625 C-52.25336781 66.28028278 -41.69988215 37.84911983 -24 17 C-22.64480254 15.20911289 -21.29057586 13.41749059 -19.9375 11.625 C-14.53019563 4.95308412 -9.1841067 -1.40429766 0 0 Z M-12 19 C-27.76235564 35.02554897 -36.5125044 57.32190654 -41 79 C-41.25265625 80.19625 -41.5053125 81.3925 -41.765625 82.625 C-42.80948791 89.44881515 -42.80948791 89.44881515 -40.21875 95.58203125 C-37.60109943 97.94702884 -34.88308204 99.96847729 -32 102 C-30.17916796 103.51084776 -28.36661825 105.031733 -26.5625 106.5625 C-24.71262535 108.04703084 -22.8585483 109.52634255 -21 111 C-19.77603516 112.00353516 -19.77603516 112.00353516 -18.52734375 113.02734375 C-2.05005041 125.88829141 18.80693085 131.8584253 38.54223633 137.76025391 C43.74296586 139.36396415 47.97118744 141.52602381 52.4375 144.625 C53.07929199 145.06231445 53.72108398 145.49962891 54.38232422 145.95019531 C62.02921469 151.26261058 69.63467729 157.30970411 75 165 C75 166.32 75 167.64 75 169 C72.36 169 69.72 169 67 169 C65.82424488 171.79371903 64.65628252 174.59039601 63.49609375 177.390625 C62.49716382 179.80057606 61.48931031 182.20684724 60.47265625 184.609375 C47.80581778 214.9381414 49.27360448 241.27648012 61.359375 271.38671875 C71.41602349 297.61470631 79.46292378 340.86367445 70 368 C69.76410156 368.68642578 69.52820313 369.37285156 69.28515625 370.08007812 C67.99111557 373.83665889 66.66675605 377.58006711 65.3046875 381.3125 C62.63269332 388.86448354 61.60623179 396.66452849 64.1875 404.4375 C66.82322475 409.61806245 69.77096796 411.67357604 75.0625 413.75 C82.68285657 416.05881664 90.3240015 415.39333069 98.0625 414 C112.44865836 411.43502603 125.35537566 414.55556174 138.90136719 419.42895508 C149.3383869 423.17732087 157.95500382 424.21259696 169 422 C170.51890944 421.91291244 172.0411052 421.86970819 173.5625 421.875 C174.30628906 421.87242187 175.05007813 421.86984375 175.81640625 421.8671875 C178.00475562 422.00028925 179.87964754 422.46480506 182 423 C187.05888695 423.50922789 190.91474659 423.51406741 195.5625 421.3125 C198.21261372 418.79828955 198.80037128 417.59331694 199 414 C196.02681024 411.48899983 193.73303218 410.51456763 189.9375 409.75 C176.55308071 406.58043813 164.14160028 402.5555688 154 393 C151.76826875 391.02040976 149.51053544 389.07158074 147.25 387.125 C146.65952881 386.61340332 146.06905762 386.10180664 145.46069336 385.57470703 C141.36617479 382.06353686 137.15062195 378.8051839 132.75 375.6875 C132.17048584 375.27588623 131.59097168 374.86427246 130.99389648 374.44018555 C128.37192018 372.59835068 125.72667786 370.83037635 123.00390625 369.140625 C117.75326901 365.81801566 114.9460481 363.44960739 113.40234375 357.30859375 C113.26957031 356.54675781 113.13679687 355.78492188 113 355 C112.83540283 354.11852295 112.67080566 353.2370459 112.5012207 352.32885742 C111.95390009 348.69382742 111.71930786 345.09743743 111.578125 341.4296875 C111.54895996 340.69270126 111.51979492 339.95571503 111.48974609 339.19639587 C110.58737062 314.62466709 111.92900789 290.48070605 114 266 C114.13651315 264.3620027 114.2727515 262.72398247 114.40869141 261.0859375 C114.91269637 255.02476013 115.4206834 248.96394359 115.93994141 242.90405273 C116.79199325 232.90126368 117.51658162 222.8955616 118.125 212.875 C118.16684418 212.19240112 118.20868835 211.50980225 118.25180054 210.80651855 C118.67598443 203.80440296 119.02902182 196.80642522 119.203125 189.79296875 C119.67378613 171.01345552 119.67378613 171.01345552 122.0625 162.0625 C124.08656781 154.4060084 124.44384483 146.96861276 124.5 139.0625 C124.51812744 137.93658447 124.53625488 136.81066895 124.55493164 135.65063477 C124.47343797 124.2843677 121.67095726 115.80913335 113.75 107.6015625 C106.71052494 100.9420591 99.25453066 94.79671399 91.6875 88.75 C85.93194319 84.09114456 80.63085742 78.98232435 75.27172852 73.87744141 C70.5135071 69.36528907 65.66352427 65.14055009 60.52734375 61.0625 C57.81254395 58.84702196 55.25466591 56.50959533 52.6875 54.125 C47.02355463 48.92505016 41.06085481 44.21647898 34.97460938 39.52880859 C32.87420644 37.90260642 30.78782328 36.2595606 28.703125 34.61328125 C21.087728 28.61417618 13.4019351 22.74315837 5.5 17.125 C4.41368286 16.34781616 4.41368286 16.34781616 3.30541992 15.55493164 C-4.25369413 10.24413205 -5.91411098 13.0717765 -12 19 Z " fill="#020001" transform="translate(174,32)"/>
<path d="M0 0 C1.65 0 3.3 0 5 0 C4.98428955 0.92280762 4.98428955 0.92280762 4.96826172 1.86425781 C4.92661305 4.65946343 4.90064584 7.45460366 4.875 10.25 C4.85824219 11.21808594 4.84148437 12.18617188 4.82421875 13.18359375 C4.81455078 14.58544922 4.81455078 14.58544922 4.8046875 16.015625 C4.78897705 17.30388184 4.78897705 17.30388184 4.77294922 18.61816406 C5.01840004 21.19302234 5.82269275 22.7288402 7 25 C6.625 27.75 6.625 27.75 6 30 C3.75 30.75 3.75 30.75 1 31 C-1.28967371 29.15554062 -2.68681224 27.62637553 -4 25 C-4.75341959 16.2603327 -2.29504666 8.35028138 0 0 Z " fill="#020001" transform="translate(259,382)"/>
</svg>
