<?xml version="1.0" encoding="UTF-8"?>
<svg version="1.1" xmlns="http://www.w3.org/2000/svg" width="500" height="500">
<path d="M0 0 C2.81619286 1.54436383 4.15375501 3.40350125 5.9375 6.0625 C6.2578125 8.97265625 6.2578125 8.97265625 6.0625 12.125 C5.80194857 20.96370612 5.82286468 30.1215626 11.9375 37.0625 C16.9558518 42.12249787 22.11192364 44.74162804 28.75 47.1875 C30.44401042 47.8359375 32.13802083 48.484375 33.83203125 49.1328125 C34.67660889 49.44637695 35.52118652 49.75994141 36.39135742 50.08300781 C38.08703364 50.73532855 39.76784099 51.42771019 41.4309082 52.15917969 C47.52944022 54.81900547 52.88483712 55.71863959 59.5 56.0625 C81.83885264 57.70156374 99.71867917 63.68789123 115.3125 80.625 C132.72242606 101.1842826 136.22359993 127.00570704 134.9375 153.0625 C134.20257898 160.53356239 132.82437451 167.90846133 131.2578125 175.24609375 C130.89749824 178.41422282 131.3392517 180.45697844 132.25 183.5 C138.44679695 206.89432977 136.36330662 231.23082183 134.1875 255.0625 C134.10908875 255.9777948 134.03067749 256.8930896 133.94989014 257.83612061 C133.72085318 260.45559466 133.4663157 263.0712618 133.203125 265.6875 C133.13624481 266.47484528 133.06936462 267.26219055 133.00045776 268.07339478 C132.62313584 271.53275875 132.18827975 273.73624034 130.04589844 276.5234375 C127.9375 278.0625 127.9375 278.0625 124.9375 279.0625 C122.875 278.4375 122.875 278.4375 120.9375 277.0625 C118.93145965 273.18355792 118.81180303 270.48458757 119.36328125 266.1953125 C119.50016357 265.07036377 119.6370459 263.94541504 119.77807617 262.78637695 C120.01167847 261.00493286 120.01167847 261.00493286 120.25 259.1875 C120.54630778 256.72550471 120.8405979 254.26326571 121.1328125 251.80078125 C121.34599121 250.03661865 121.34599121 250.03661865 121.56347656 248.23681641 C124.25290989 225.41174324 124.29555591 201.84932936 118.5 179.5 C117.48771722 174.33330867 118.66131464 169.91448205 119.8125 164.875 C125.04725014 141.91556957 122.83181682 117.58317561 111.1875 96.875 C102.88421599 83.82698227 92.09797675 74.67992791 76.9375 71.0625 C69.26555007 69.5935818 61.92895603 68.99039259 54.125 69.25 C48.17709284 69.33655998 44.47931035 68.47835723 39.3828125 65.484375 C36.70259722 63.92591116 34.00063951 62.78126236 31.125 61.625 C2.11222731 49.69172588 2.11222731 49.69172588 -4.15234375 35.61328125 C-6.844005 28.06969844 -7.30103898 20.01073764 -7.5 12.0625 C-7.53432129 11.33256836 -7.56864258 10.60263672 -7.60400391 9.85058594 C-7.63555103 5.9729935 -7.39344037 4.40691514 -4.6640625 1.56640625 C-2.0625 0.0625 -2.0625 0.0625 0 0 Z " fill="#020001" transform="translate(291.0625,61.9375)"/>
<path d="M0 0 C2.74293101 1.05497347 3.74652359 1.54114485 5.4375 3.9375 C5.71448225 6.67456113 5.81581822 9.14428836 5.75 11.875 C5.73799561 12.63627197 5.72599121 13.39754395 5.71362305 14.18188477 C5.42381834 25.89122833 3.88699666 36.45701749 -3.875 45.6875 C-10.30371738 51.06968199 -16.29474355 55.04414092 -24.125 58.125 C-25.75132875 58.78509054 -27.37763127 59.44524574 -29.00390625 60.10546875 C-29.77686035 60.41556885 -30.54981445 60.72566895 -31.34619141 61.04516602 C-35.75924353 62.82195666 -40.04241353 64.55332704 -44.0625 67.125 C-49.01518223 69.64395502 -53.84331119 69.04139699 -59.27734375 68.89453125 C-69.91767286 68.80717223 -82.35502962 70.35264092 -91.5625 75.9375 C-92.3153125 76.3809375 -93.068125 76.824375 -93.84375 77.28125 C-109.54929429 87.12339109 -117.3140152 102.75568201 -121.984375 120.26953125 C-125.11521298 134.71792544 -124.75816935 150.39347432 -121.4375 164.75 C-120.02799468 170.91032528 -119.16091808 175.657223 -120.77734375 181.890625 C-127.25415301 207.02451169 -124.80425739 233.23165228 -121.9140625 258.68359375 C-121.76300049 260.05789551 -121.76300049 260.05789551 -121.60888672 261.45996094 C-121.41650407 263.18982007 -121.21304393 264.91849653 -120.99658203 266.64550781 C-120.18563066 273.8670524 -120.18563066 273.8670524 -122.5625 276.9375 C-124.875 278.375 -124.875 278.375 -127.5625 278.9375 C-130.46131256 277.61985793 -132.12312668 276.81624663 -133.5625 273.9375 C-133.93222127 271.20993721 -134.25253047 268.49471098 -134.53515625 265.7578125 C-134.66668594 264.51034241 -134.66668594 264.51034241 -134.8008728 263.2376709 C-137.59902405 236.25359976 -140.17821197 209.48254237 -133.8125 182.79296875 C-132.33824427 176.35231404 -132.92930361 171.64169362 -134.73828125 165.2734375 C-140.7458277 140.95853387 -136.70278424 112.78444056 -124.54296875 91.109375 C-114.06073675 74.32126378 -99.59966719 62.99370403 -80.31469727 58.40234375 C-75.21726248 57.29448731 -70.33432451 56.75954285 -65.12939453 56.55908203 C-50.72530764 55.89304347 -38.53222837 50.94516472 -25.5625 44.9375 C-24.78213379 44.58252441 -24.00176758 44.22754883 -23.19775391 43.86181641 C-19.37043126 42.05175112 -16.45531888 40.36004499 -13.6875 37.0625 C-13.13320312 36.42570312 -12.57890625 35.78890625 -12.0078125 35.1328125 C-8.69244242 30.09703417 -8.22839248 24.88806953 -8 19 C-7.37854835 5.10328336 -7.37854835 5.10328336 -4.8125 1.4375 C-2.5625 -0.0625 -2.5625 -0.0625 0 0 Z " fill="#020001" transform="translate(208.5625,62.0625)"/>
<path d="M0 0 C2.875 0.6875 2.875 0.6875 3.875 1.6875 C4.77054535 10.31730061 3.03410113 18.79576243 1.42138672 27.23193359 C0.99841699 29.4457856 0.58983577 31.66192966 0.18359375 33.87890625 C-1.81242857 44.6139247 -1.81242857 44.6139247 -3.21411133 49.42822266 C-8.79869486 69.410584 0.50223579 101.88386183 7.140625 121.05859375 C7.90358615 123.78983234 8.20077888 125.87047088 7.875 128.6875 C5.375 131 5.375 131 2.875 132.6875 C-1.11450372 131.3936069 -2.92839649 130.2576246 -5.125 126.6875 C-6.18408203 123.41040039 -6.18408203 123.41040039 -7.1328125 119.53515625 C-7.30376434 118.83917831 -7.47471619 118.14320038 -7.65084839 117.4261322 C-8.01008736 115.95214529 -8.36448695 114.47697159 -8.71435547 113.00073242 C-9.24165304 110.78507319 -9.78949916 108.57526596 -10.33984375 106.36523438 C-12.42587992 97.80513122 -13.79987624 89.52836539 -14.125 80.6875 C-14.785 80.6875 -15.445 80.6875 -16.125 80.6875 C-16.23070312 81.36683594 -16.33640625 82.04617188 -16.4453125 82.74609375 C-17.10054935 85.58168769 -18.07077977 88.11682581 -19.1940918 90.79541016 C-23.36373629 100.90815592 -24.92023788 110.87060564 -26.125 121.6875 C-26.26035156 122.85812988 -26.39570313 124.02875977 -26.53515625 125.23486328 C-26.97766296 129.11327513 -27.39946003 132.99334378 -27.8125 136.875 C-27.94422607 138.08494629 -28.07595215 139.29489258 -28.21166992 140.54150391 C-30.10973185 159.52723584 -28.63772775 178.25524486 -27.33129883 197.23364258 C-27.10965846 200.48223002 -26.89629578 203.73128573 -26.68359375 206.98046875 C-26.61281113 207.9679863 -26.5420285 208.95550385 -26.46910095 209.97294617 C-25.71548666 221.57323 -25.71548666 221.57323 -28.375 225.5625 C-30.80107284 227.12211825 -32.29495526 227.11200671 -35.125 226.6875 C-37.44247209 225.11492965 -38.02462415 224.10577374 -38.67881775 221.37969971 C-39.10007723 218.83788043 -39.354954 216.37021555 -39.51391602 213.79980469 C-39.6038961 212.38112091 -39.6038961 212.38112091 -39.69569397 210.93377686 C-39.78638405 209.41194794 -39.78638405 209.41194794 -39.87890625 207.859375 C-39.94407944 206.79696594 -40.00925262 205.73455688 -40.07640076 204.63995361 C-40.21343436 202.38735498 -40.34864818 200.134645 -40.48217773 197.88183594 C-40.68430365 194.49111965 -40.89547787 191.10105238 -41.10742188 187.7109375 C-42.9800868 157.01222069 -42.9800868 157.01222069 -41.4375 142.0625 C-41.3535498 141.22332031 -41.26959961 140.38414062 -41.18310547 139.51953125 C-40.28595912 131.20725599 -39.03995892 122.94605343 -37.75 114.6875 C-37.55317627 113.40020996 -37.35635254 112.11291992 -37.15356445 110.78662109 C-35.06998079 97.94737494 -31.29363993 86.57208853 -25.8125 74.8125 C-16.36135568 53.82655641 -11.08331244 32.27146745 -7.65087891 9.54882812 C-7.49409668 8.55818359 -7.33731445 7.56753906 -7.17578125 6.546875 C-6.97915894 5.2160791 -6.97915894 5.2160791 -6.77856445 3.85839844 C-5.63591343 0.06293603 -3.71683794 -0.37168379 0 0 Z " fill="#020001" transform="translate(370.125,210.3125)"/>
<path d="M0 0 C0.928125 0.20625 1.85625 0.4125 2.8125 0.625 C4.2163102 4.59827763 5.24370752 8.43929979 5.9609375 12.58984375 C6.15945312 13.71229492 6.35796875 14.83474609 6.5625 15.99121094 C6.871875 17.75899902 6.871875 17.75899902 7.1875 19.5625 C8.9665675 29.41277817 10.88857636 39.04229712 13.8125 48.625 C14.2765625 50.23181641 14.2765625 50.23181641 14.75 51.87109375 C17.88632622 62.02956214 22.19146967 71.68806348 26.53515625 81.37573242 C31.77223192 93.24660384 34.22787051 105.0415424 36.12011719 117.80541992 C36.43575491 119.92577704 36.76413408 122.04388561 37.09375 124.16210938 C40.50542907 146.51188338 40.00795613 168.45317605 38.640625 190.94018555 C38.43557884 194.34439538 38.24481965 197.74922515 38.0546875 201.15429688 C37.92533823 203.3359886 37.79516047 205.5176314 37.6640625 207.69921875 C37.58111435 209.21330574 37.58111435 209.21330574 37.49649048 210.75798035 C36.740127 222.697373 36.740127 222.697373 32.8125 226.625 C30.4375 227.0625 30.4375 227.0625 27.8125 226.625 C24.77714792 223.76183491 23.86014048 222.22430341 23.52612305 218.02246094 C23.60359482 216.63337136 23.70435069 215.24544981 23.82421875 213.859375 C23.89573906 212.73187836 23.89573906 212.73187836 23.96870422 211.581604 C24.12573864 209.17754132 24.31217547 206.77683335 24.5 204.375 C24.60810288 202.80742716 24.71423973 201.23971744 24.81835938 199.671875 C25.02979424 196.53254383 25.24983385 193.39401682 25.47802734 190.25585938 C26.84188192 171.42827696 27.28360465 153.1997938 25.26831055 134.39404297 C24.99883794 131.86409 24.74763441 129.33276501 24.49804688 126.80078125 C23.23781062 114.43704335 21.34182526 102.57660323 16.625 91 C13.8125 83.99202128 13.8125 83.99202128 13.8125 80.625 C13.1525 80.625 12.4925 80.625 11.8125 80.625 C11.78454346 81.36621094 11.75658691 82.10742188 11.7277832 82.87109375 C11.23955433 91.67402867 9.64409905 99.90383683 7.53881836 108.43017578 C6.99477961 110.64626473 6.47623043 112.86736682 5.95898438 115.08984375 C5.61348506 116.51859416 5.26653278 117.94699418 4.91796875 119.375 C4.61012451 120.64859375 4.30228027 121.9221875 3.98510742 123.234375 C2.56215583 127.34887671 0.7719543 130.55046054 -3.125 132.6875 C-5.1875 132.625 -5.1875 132.625 -8 131.125 C-10.1875 128.625 -10.1875 128.625 -10.00390625 125.671875 C-9.07433778 120.50656166 -7.64477196 115.44732271 -6.3125 110.375 C-3.6234274 99.84573002 -1.53154329 89.40608406 -0.1875 78.625 C-0.07921875 77.76825684 0.0290625 76.91151367 0.140625 76.02880859 C0.4663378 73.37512168 0.76964863 70.72000214 1.0625 68.0625 C1.15499023 67.26553711 1.24748047 66.46857422 1.34277344 65.64746094 C2.34368273 55.70066527 0.50376947 46.44427962 -1.625 36.75 C-6.46421272 14.49249344 -6.46421272 14.49249344 -6.5 6.5 C-6.51675781 5.61054688 -6.53351563 4.72109375 -6.55078125 3.8046875 C-6.37095703 2.72574219 -6.37095703 2.72574219 -6.1875 1.625 C-3.1875 -0.375 -3.1875 -0.375 0 0 Z " fill="#020001" transform="translate(130.1875,210.375)"/>
<path d="M0 0 C2.5625 0.125 2.5625 0.125 5 1 C7.15763634 4.23645451 7.55563824 5.24365399 7 9 C-1.50792826 18.4729479 -15.48086278 23.21202969 -27.85498047 24.23632812 C-42.83532262 24.98712719 -60.48988701 25.51735194 -73 16 C-74.375 13.75 -74.375 13.75 -75 12 C-73.35 10.35 -71.7 8.7 -70 7 C-68.98292969 7.29003906 -68.98292969 7.29003906 -67.9453125 7.5859375 C-64.97042609 8.41824644 -61.98689389 9.21195206 -59 10 C-58.25621094 10.21269531 -57.51242187 10.42539062 -56.74609375 10.64453125 C-39.73173051 14.8752942 -20.830239 12.50448143 -5.42578125 4.5 C-2.99625387 3.12974509 -2.99625387 3.12974509 -1.328125 1.3046875 C-0.67070312 0.65886719 -0.67070312 0.65886719 0 0 Z " fill="#020001" transform="translate(337,246)"/>
<path d="M0 0 C3.24997318 0.17567423 4.78176425 0.82187841 7.31640625 2.890625 C19.87334281 12.76070614 37.73743178 13.28877474 53 12 C59.54173911 10.99308776 66.03154248 9.34981548 72.296875 7.21875 C73.13992187 7.11046875 73.13992187 7.11046875 74 7 C76.75 9.4375 76.75 9.4375 79 12 C76.25916385 17.33741777 73.28305555 19.19878684 67.671875 21.16796875 C48.11188001 26.55823932 26.17777739 26.4870492 7.9375 17.0625 C6.27524722 16.06862689 4.62725501 15.05019483 3 14 C2.32582031 13.5875 1.65164062 13.175 0.95703125 12.75 C-0.75 11.5625 -0.75 11.5625 -3 9 C-3 4.94797024 -2.90157384 2.90157384 0 0 Z " fill="#020001" transform="translate(157,246)"/>
<path d="M0 0 C0.67877197 0.00008057 1.35754395 0.00016113 2.05688477 0.00024414 C4.12667451 -0.00194046 6.1959298 -0.02008804 8.265625 -0.0390625 C10.21178711 -0.04196289 10.21178711 -0.04196289 12.19726562 -0.04492188 C13.39536865 -0.04903076 14.59347168 -0.05313965 15.82788086 -0.05737305 C18.70117188 0.18554688 18.70117188 0.18554688 20.70117188 2.18554688 C20.51367188 4.68554688 20.51367188 4.68554688 19.70117188 7.18554688 C14.94122656 10.35884375 9.85943841 9.51373887 4.26367188 9.49804688 C2.54567383 9.5222168 2.54567383 9.5222168 0.79296875 9.546875 C-0.85928711 9.5478418 -0.85928711 9.5478418 -2.54492188 9.54882812 C-3.55224365 9.55180908 -4.55956543 9.55479004 -5.59741211 9.55786133 C-8.65954056 9.13583278 -10.0287281 8.22995456 -12.29882812 6.18554688 C-10.88222314 -1.7069666 -7.46747743 0.03341984 0 0 Z " fill="#020001" transform="translate(271.298828125,372.814453125)"/>
<path d="M0 0 C0.67877197 0.00008057 1.35754395 0.00016113 2.05688477 0.00024414 C4.12667451 -0.00194046 6.1959298 -0.02008804 8.265625 -0.0390625 C10.21178711 -0.04196289 10.21178711 -0.04196289 12.19726562 -0.04492188 C13.39536865 -0.04903076 14.59347168 -0.05313965 15.82788086 -0.05737305 C18.70117188 0.18554688 18.70117188 0.18554688 20.70117188 2.18554688 C20.51367188 4.68554688 20.51367188 4.68554688 19.70117188 7.18554688 C14.94031268 10.359453 9.86171462 9.55426752 4.26367188 9.56054688 C3.11833984 9.58503906 1.97300781 9.60953125 0.79296875 9.63476562 C-0.30853516 9.63863281 -1.41003906 9.6425 -2.54492188 9.64648438 C-3.55224365 9.65470215 -4.55956543 9.66291992 -5.59741211 9.67138672 C-9.00211644 9.05906303 -10.20881842 7.89056019 -12.29882812 5.18554688 C-11.68961767 -1.92190848 -5.7371906 0.02567614 0 0 Z " fill="#020001" transform="translate(218.298828125,372.814453125)"/>
<path d="M0 0 C1.72476562 -0.0309375 1.72476562 -0.0309375 3.484375 -0.0625 C4.59039062 -0.06765625 5.69640625 -0.0728125 6.8359375 -0.078125 C8.35646729 -0.09214355 8.35646729 -0.09214355 9.90771484 -0.10644531 C12.98914799 0.29776784 14.34609162 1.19185026 16.625 3.25 C16.3125 5.625 16.3125 5.625 15.625 8.25 C10.73092565 11.51271623 5.35238934 10.30523807 -0.375 10.0625 C-1.57640625 10.03091797 -2.7778125 9.99933594 -4.015625 9.96679688 C-5.16546875 9.92232422 -6.3153125 9.87785156 -7.5 9.83203125 C-8.55445313 9.79311768 -9.60890625 9.7542041 -10.6953125 9.71411133 C-13.64222219 9.20371817 -14.57417866 8.57670775 -16.375 6.25 C-13.46281608 -1.86251236 -7.75524138 0.03454451 0 0 Z " fill="#020001" transform="translate(275.375,316.75)"/>
<path d="M0 0 C1.14533203 -0.02449219 2.29066406 -0.04898437 3.47070312 -0.07421875 C4.57220703 -0.07808594 5.67371094 -0.08195312 6.80859375 -0.0859375 C7.81591553 -0.09415527 8.8232373 -0.10237305 9.86108398 -0.11083984 C13.23079191 0.49518987 14.4090772 1.78730306 16.5625 4.375 C14.6875 8.25 14.6875 8.25 13.5625 9.375 C9.30637244 9.84449168 5.02598716 9.98539546 0.75 10.1875 C-0.45205078 10.26419922 -1.65410156 10.34089844 -2.89257812 10.41992188 C-4.04822266 10.47341797 -5.20386719 10.52691406 -6.39453125 10.58203125 C-7.45647705 10.6385083 -8.51842285 10.69498535 -9.61254883 10.75317383 C-12.4375 10.375 -12.4375 10.375 -14.8190918 8.49487305 C-16.4375 6.375 -16.4375 6.375 -16.375 4.25 C-13.4103763 -1.67924739 -5.59101536 0.00627147 0 0 Z " fill="#020001" transform="translate(222.4375,316.625)"/>
<path d="M0 0 C1.32 0 2.64 0 4 0 C7.11496916 4.67245375 6.32850857 9.50585754 6.3125 15 C6.32861328 16.10601562 6.34472656 17.21203125 6.36132812 18.3515625 C6.36197266 19.41117187 6.36261719 20.47078125 6.36328125 21.5625 C6.36775269 23.01849609 6.36775269 23.01849609 6.37231445 24.50390625 C6 27 6 27 4.61010742 28.8515625 C3 30 3 30 0.875 29.8125 C-1 29 -1 29 -2 27 C-2.24230023 23.02586898 -2.18519769 19.04319193 -2.1875 15.0625 C-2.19974609 13.95197266 -2.21199219 12.84144531 -2.22460938 11.69726562 C-2.22654297 10.63314453 -2.22847656 9.56902344 -2.23046875 8.47265625 C-2.23457764 7.49562744 -2.23868652 6.51859863 -2.24291992 5.51196289 C-2 3 -2 3 0 0 Z " fill="#020001" transform="translate(247,284)"/>
<path d="M0 0 C3.875 1.875 3.875 1.875 5 3 C5.28055826 6.76330646 5.23183014 10.53998209 5.25 14.3125 C5.270625 15.37146484 5.29125 16.43042969 5.3125 17.52148438 C5.31765625 18.54177734 5.3228125 19.56207031 5.328125 20.61328125 C5.34214355 22.01767456 5.34214355 22.01767456 5.35644531 23.45043945 C4.94134589 26.41953758 3.96938063 27.7859092 2 30 C-1.875 28.25 -1.875 28.25 -3 26 C-3.26777119 22.19318631 -3.23155806 18.37767654 -3.25 14.5625 C-3.270625 13.49966797 -3.29125 12.43683594 -3.3125 11.34179688 C-3.31765625 10.32279297 -3.3228125 9.30378906 -3.328125 8.25390625 C-3.3374707 7.31877197 -3.34681641 6.3836377 -3.35644531 5.42016602 C-2.94121423 2.60086076 -2.19698784 1.73982585 0 0 Z " fill="#020001" transform="translate(248,339)"/>
<path d="M0 0 C3.875 1.75 3.875 1.75 5 4 C5.01639513 6.17999956 4.96414776 8.36066842 4.87890625 10.5390625 C4.83056641 11.84101563 4.78222656 13.14296875 4.73242188 14.484375 C4.67589606 15.86458804 4.61925392 17.24479632 4.5625 18.625 C4.50927707 20.01300219 4.45653668 21.40102297 4.40429688 22.7890625 C4.27428837 26.19292141 4.13931117 29.59651117 4 33 C2.34385343 33.38218767 0.67542976 33.71395102 -1 34 C-3.64141943 31.35858057 -2.5310209 24.34801478 -2.66748047 20.75415039 C-2.74927767 18.70559039 -2.85289034 16.65885684 -2.95703125 14.61132812 C-3.00730469 13.32033203 -3.05757812 12.02933594 -3.109375 10.69921875 C-3.16061523 9.51158936 -3.21185547 8.32395996 -3.26464844 7.1003418 C-2.97618646 3.72102565 -2.29488066 2.43033716 0 0 Z " fill="#020001" transform="translate(248,197)"/>
<path d="M0 0 C2.375 0.3125 2.375 0.3125 5 1 C7.84767055 5.27150583 7.50971259 8.98413261 7 14 C6.21354982 16.83212985 5.19892564 19.3024173 4 22 C2.35 21.67 0.7 21.34 -1 21 C-4.34020619 6.17783505 -4.34020619 6.17783505 -1.5 1.5625 C-1.005 1.046875 -0.51 0.53125 0 0 Z " fill="#020001" transform="translate(247,397)"/>
</svg>
