<?xml version="1.0" encoding="UTF-8"?>
<svg version="1.1" xmlns="http://www.w3.org/2000/svg" width="500" height="500">
<path d="M0 0 C0 3.9630046 -1.27346349 4.75603761 -3.9375 7.625 C-4.75863281 8.511875 -5.57976562 9.39875 -6.42578125 10.3125 C-9.52230266 13.54528715 -12.68774139 16.70075887 -15.875 19.84375 C-18.48582703 22.49297154 -20.89979132 25.2794802 -23.3203125 28.1015625 C-24.98204576 29.97970753 -26.71125525 31.74305516 -28.5 33.5 C-30.87224102 35.83025445 -33.09113517 38.22104406 -35.25 40.75 C-38.6222224 44.66906928 -42.25919015 48.28965146 -45.93676758 51.91723633 C-49.3108464 55.26329027 -52.47753707 58.7283607 -55.5625 62.33984375 C-57.28180643 64.3254558 -59.10564999 66.18142399 -61 68 C-59.63733356 72.03805866 -57.8590849 74.54368118 -54.9375 77.625 C-50.05124107 82.90215964 -45.51542526 88.40497044 -41 94 C-35.12918262 101.25029906 -29.13402692 108.37751806 -23.05078125 115.44921875 C-15.93040032 123.72804742 -8.89752606 132.07218013 -2.015625 140.55078125 C-0.19661269 142.76109272 1.66865274 144.91643476 3.5625 147.0625 C6 150 6 150 6 152 C-10.45286472 153.88585371 -10.45286472 153.88585371 -15.88183594 150.99951172 C-19.12928659 148.35756903 -21.52298743 145.0788212 -23.86914062 141.63720703 C-25.57199972 139.17188469 -27.510726 136.91731445 -29.4375 134.625 C-30.16195312 133.72652344 -30.88640625 132.82804688 -31.6328125 131.90234375 C-34.3099822 128.61993931 -37.0510464 125.39899783 -39.8125 122.1875 C-40.56901855 121.30735229 -40.56901855 121.30735229 -41.34082031 120.40942383 C-42.89291344 118.60544732 -44.44622819 116.80253078 -46 115 C-52.4282134 107.54262923 -58.8120481 100.06533331 -65.01953125 92.421875 C-67.62662461 89.2337135 -70.30282648 86.1121233 -73 83 C-80.80253203 86.26450765 -86.83549593 94.50615145 -92.09521484 100.9362793 C-94 103 -94 103 -96.26708984 104.63037109 C-99.71092383 107.27768165 -102.4517399 109.75593381 -103.51644897 114.11386108 C-104.31109261 120.24040924 -104.15892426 126.39835048 -104.0625 132.5625 C-104.06557839 134.44857879 -104.07270243 136.33465556 -104.08398438 138.22070312 C-104.11024841 142.81690957 -104.05325028 147.4013054 -104 152 C-109.61 152 -115.22 152 -121 152 C-121 102.17 -121 52.34 -121 1 C-115.39 1 -109.78 1 -104 1 C-103.67 30.04 -103.34 59.08 -103 89 C-98.40316059 84.40316059 -94.16600258 80.07435999 -89.98046875 75.19921875 C-86.75409226 71.61647721 -83.2919655 68.27333102 -79.84375 64.90625 C-77.70340748 62.77194512 -75.71862916 60.54330435 -73.75 58.25 C-68.81664911 52.552706 -63.39518319 47.3494457 -58.02734375 42.06640625 C-53.75511487 37.83532243 -49.67158655 33.54004217 -45.75585938 28.97851562 C-41.83339422 24.55865222 -37.53051398 20.49418994 -33.31640625 16.35546875 C-29.1411642 12.2255277 -25.15511075 8.00624273 -21.33007812 3.54882812 C-19.1560473 1.01724744 -19.1560473 1.01724744 -17.14233398 0.79467773 C-16.35157471 0.75802002 -15.56081543 0.7213623 -14.74609375 0.68359375 C-13.89208984 0.64169922 -13.03808594 0.59980469 -12.15820312 0.55664062 C-10.81145508 0.49766602 -10.81145508 0.49766602 -9.4375 0.4375 C-8.08495117 0.37272461 -8.08495117 0.37272461 -6.70507812 0.30664062 C-4.47021515 0.20021858 -2.23523692 0.09820012 0 0 Z " fill="#020001" transform="translate(161,181)"/>
<path d="M0 0 C1.05123047 -0.01611328 2.10246094 -0.03222656 3.18554688 -0.04882812 C15.74300431 -0.05654629 27.13355253 2.58476553 36.6875 11.09375 C49.20551339 24.25924684 48.99844763 41.74006539 48.8828125 58.76953125 C48.8790723 60.41004767 48.8762301 62.05056635 48.87423706 63.69108582 C48.86667975 67.96369837 48.84710134 72.23617023 48.8248291 76.50872803 C48.80419824 80.88665871 48.79519886 85.26461261 48.78515625 89.64257812 C48.76384618 98.19928982 48.7287307 106.75586109 48.6875 115.3125 C43.4075 115.3125 38.1275 115.3125 32.6875 115.3125 C32.3575 110.6925 32.0275 106.0725 31.6875 101.3125 C30.78 102.34375 29.8725 103.375 28.9375 104.4375 C19.8308116 113.45293902 6.66606855 117.23754853 -5.9375 117.625 C-7.3978757 117.55507409 -8.85681217 117.44873422 -10.3125 117.3125 C-11.21097656 117.24289062 -12.10945313 117.17328125 -13.03515625 117.1015625 C-24.23054775 115.77404572 -35.11947325 110.85352521 -42.76171875 102.42578125 C-47.99529901 95.29387465 -50.16926152 87.10960487 -49.3125 78.3125 C-47.20575443 68.28996774 -42.67929469 61.26189899 -34.3125 55.3125 C-20.59520347 47.85343135 -4.65646226 49.05925697 10.4375 49.1875 C12.50259983 49.19754994 14.56770439 49.20667222 16.6328125 49.21484375 C21.6511602 49.23669753 26.66927691 49.27111653 31.6875 49.3125 C31.3963021 46.57591654 31.09699968 43.84063093 30.79296875 41.10546875 C30.67109192 39.94815247 30.67109192 39.94815247 30.54675293 38.76745605 C29.70806015 31.33078109 27.98013664 26.25179762 22.5 21 C15.76146546 15.84220202 8.23040703 14.77245894 -0.0625 14.875 C-0.93575928 14.88329834 -1.80901855 14.89159668 -2.70874023 14.90014648 C-13.98693281 15.19247857 -22.68996793 18.33337265 -31.97265625 24.7265625 C-34.03616886 26.12520377 -36.05762081 27.26057022 -38.3125 28.3125 C-39.54006895 26.57593905 -40.74406853 24.82269623 -41.9375 23.0625 C-42.61039062 22.08796875 -43.28328125 21.1134375 -43.9765625 20.109375 C-45.3125 17.3125 -45.3125 17.3125 -44.796875 15.13671875 C-34.86075928 2.92575548 -14.64408725 -0.04440293 0 0 Z M-28.9375 70.3125 C-32.25354748 75.21948355 -33.17577032 80.44025422 -32.3125 86.3125 C-30.22683703 92.71568025 -27.42694796 97.25067018 -21.39453125 100.41796875 C-11.37974779 104.72075564 1.38839732 105.01011017 11.6875 101.3125 C19.40867995 98.02434233 25.73474772 92.91234429 30.28369141 85.82592773 C32.17370441 81.09563606 32.01510818 76.97420934 31.875 71.9375 C31.86146484 71.01066406 31.84792969 70.08382812 31.83398438 69.12890625 C31.79883881 66.85616002 31.74964132 64.58464153 31.6875 62.3125 C25.3379506 62.2103019 18.98861663 62.14070301 12.63842773 62.09277344 C10.48242263 62.07277309 8.32647096 62.04556376 6.1706543 62.01074219 C3.05504088 61.96171147 -0.05984971 61.93941486 -3.17578125 61.921875 C-4.12520096 61.90122986 -5.07462067 61.88058472 -6.05281067 61.85931396 C-14.65284125 61.85649013 -23.3385664 63.28661165 -28.9375 70.3125 Z " fill="#020001" transform="translate(347.3125,217.6875)"/>
<path d="M0 0 C4.64949752 3.86698405 7.98810103 7.22454874 10 13 C8.58994275 14.15395711 7.17166542 15.29787466 5.75 16.4375 C4.96109375 17.07558594 4.1721875 17.71367187 3.359375 18.37109375 C1.13752508 19.90505305 -0.36743482 20.57130246 -3 21 C-3.38929688 20.49210937 -3.77859375 19.98421875 -4.1796875 19.4609375 C-10.02911553 12.26371499 -17.13563316 6.84640457 -26.45703125 5.24609375 C-40.36200987 3.90045066 -51.62982987 5.57765175 -63 14 C-72.41879284 22.35597186 -76.19097547 33.69126964 -77 46 C-77.12110488 58.89766949 -73.68349406 70.27249807 -65 80 C-55.55187803 88.30621319 -44.748683 91.41501003 -32.328125 91.27734375 C-20.74991347 90.31249279 -12.02671981 85.76937658 -4.5 77.125 C-3.65795657 76.09036153 -2.82113871 75.05130638 -2 74 C-1.22914063 74.42152344 -0.45828125 74.84304688 0.3359375 75.27734375 C1.33882813 75.82519531 2.34171875 76.37304688 3.375 76.9375 C4.37273437 77.48277344 5.37046875 78.02804687 6.3984375 78.58984375 C7.92070346 79.4149759 9.45128783 80.22564391 11 81 C9.67118925 88.49117058 2.33441812 94.08175653 -3.5 98.3984375 C-17.50238233 107.36871368 -34.43514319 108.74633903 -50.44921875 105.24609375 C-66.3864334 100.73840819 -78.43190063 92.10772083 -87.30859375 78.06640625 C-94.93683711 64.23691194 -96.72140885 46.07645618 -92.8125 30.75 C-92.26202111 29.14721031 -91.65893604 27.5613344 -91 26 C-90.47212891 24.73542969 -90.47212891 24.73542969 -89.93359375 23.4453125 C-84.13960809 10.86299381 -75.01630229 1.04900835 -62.5 -4.875 C-61.59314453 -5.30449951 -61.59314453 -5.30449951 -60.66796875 -5.74267578 C-41.3554361 -14.33923408 -17.32745192 -11.7579138 0 0 Z " fill="#020001" transform="translate(269,228)"/>
<path d="M0 0 C5.28 0 10.56 0 16 0 C16 52.8 16 105.6 16 160 C10.72 160 5.44 160 0 160 C0 107.2 0 54.4 0 0 Z " fill="#020001" transform="translate(435,173)"/>
</svg>
