<?xml version="1.0" encoding="UTF-8"?>
<svg version="1.1" xmlns="http://www.w3.org/2000/svg" width="500" height="500">
<path d="M0 0 C1.61551758 -0.04350586 1.61551758 -0.04350586 3.26367188 -0.08789062 C9.80370104 -0.14001839 14.18549717 0.06401974 19.3125 4.3125 C28.25002261 25.16671942 22.3125 49.62378523 22.3125 72.3125 C63.5625 72.3125 104.8125 72.3125 147.3125 72.3125 C147.3125 52.1825 147.3125 32.0525 147.3125 11.3125 C150.11819424 5.70111152 151.83957905 3.04896048 157.3125 0.3125 C161.244295 0.0430032 165.18501216 0.08087895 169.125 0.0625 C170.7656543 0.0315625 170.7656543 0.0315625 172.43945312 0 C173.49712891 -0.00515625 174.55480469 -0.0103125 175.64453125 -0.015625 C176.61108643 -0.0249707 177.5776416 -0.03431641 178.57348633 -0.04394531 C183.61943147 0.6127157 187.0362441 3.56820755 190.3125 7.3125 C191.5187252 10.93117559 191.42066918 14.23756251 191.375 18 C191.37048828 18.70189453 191.36597656 19.40378906 191.36132812 20.12695312 C191.34956927 21.85550538 191.33163454 23.58401365 191.3125 25.3125 C191.9422876 25.29155273 192.5720752 25.27060547 193.22094727 25.24902344 C196.10546571 25.16529901 198.98972768 25.11366379 201.875 25.0625 C202.86564453 25.02898437 203.85628906 24.99546875 204.87695312 24.9609375 C211.29704941 24.87562061 215.08646413 25.50727065 220.3125 29.3125 C224.47742106 33.89391317 224.45096088 38.33151219 224.41015625 44.26171875 C224.40803383 45.42064384 224.40803383 45.42064384 224.40586853 46.60298157 C224.40027466 49.06869389 224.38772333 51.53431515 224.375 54 C224.36998421 55.67252473 224.36542144 57.34505088 224.36132812 59.01757812 C224.35030724 63.11592046 224.33304684 67.21419479 224.3125 71.3125 C225.50488281 71.27769531 226.69726562 71.24289063 227.92578125 71.20703125 C229.49217342 71.17889247 231.05858081 71.1515924 232.625 71.125 C233.41068359 71.09986328 234.19636719 71.07472656 235.00585938 71.04882812 C235.76318359 71.03916016 236.52050781 71.02949219 237.30078125 71.01953125 C237.99727783 71.0038208 238.69377441 70.98811035 239.41137695 70.97192383 C241.9284453 71.42284335 242.78984031 72.28835954 244.3125 74.3125 C244.58633301 76.87696489 244.6857894 79.19303686 244.640625 81.75390625 C244.63875183 82.47738754 244.63687866 83.20086884 244.63494873 83.9462738 C244.6282334 85.47358824 244.61432905 87.00088562 244.59375 88.52807617 C244.56256936 90.86979091 244.55277586 93.21083253 244.546875 95.55273438 C244.53770572 97.03646657 244.52733018 98.5201919 244.515625 100.00390625 C244.51137512 100.70600723 244.50712524 101.40810822 244.50274658 102.13148499 C244.42972786 107.07804428 244.42972786 107.07804428 243.3125 109.3125 C242.6525 109.3125 241.9925 109.3125 241.3125 109.3125 C241.3125 109.9725 241.3125 110.6325 241.3125 111.3125 C235.7025 111.3125 230.0925 111.3125 224.3125 111.3125 C224.35890625 113.83003906 224.4053125 116.34757812 224.453125 118.94140625 C224.48437775 121.39719632 224.50863281 123.85296369 224.53222656 126.30883789 C224.55226221 128.00718202 224.57949885 129.70545785 224.61425781 131.40356445 C224.66313415 133.8538504 224.68554872 136.3032194 224.703125 138.75390625 C224.72377014 139.50523331 224.74441528 140.25656036 224.76568604 141.03065491 C224.76801152 146.57425922 223.58806849 149.79933142 220.3125 154.3125 C216.7978601 157.11714767 214.23716524 157.67995249 209.79296875 157.60546875 C208.77138672 157.59580078 207.74980469 157.58613281 206.69726562 157.57617188 C205.64216797 157.55103516 204.58707031 157.52589844 203.5 157.5 C202.42556641 157.48646484 201.35113281 157.47292969 200.24414062 157.45898438 C197.59974545 157.42372577 194.95638252 157.37444366 192.3125 157.3125 C192.32047607 157.90708008 192.32845215 158.50166016 192.33666992 159.11425781 C192.44337291 172.74452496 192.44337291 172.74452496 187.875 178.25 C181.85683322 183.09389034 177.50622385 182.6790136 170 182.6875 C168.87142578 182.71199219 167.74285156 182.73648438 166.58007812 182.76171875 C160.19175318 182.78427905 156.12833781 182.68242691 151.3125 178.3125 C136.87738646 161.88633632 147.3125 118.26792505 147.3125 111.3125 C106.0625 111.3125 64.8125 111.3125 22.3125 111.3125 C22.3125 131.4425 22.3125 151.5725 22.3125 172.3125 C18.51024011 179.91701977 18.51024011 179.91701977 13.3125 182.3125 C9.13334633 182.88048226 5.02415843 182.87092763 0.8125 182.8125 C-0.86005859 182.83570313 -0.86005859 182.83570313 -2.56640625 182.859375 C-8.88101965 182.82926957 -12.93368077 182.62836268 -17.6875 178.3125 C-21.54099705 173.26309007 -21.73211229 168.26035488 -21.70703125 162.10546875 C-21.70421143 161.20723389 -21.7013916 160.30899902 -21.69848633 159.38354492 C-21.6930481 158.35837769 -21.6930481 158.35837769 -21.6875 157.3125 C-22.35281738 157.33344727 -23.01813477 157.35439453 -23.70361328 157.37597656 C-26.73975302 157.45950609 -29.77565043 157.51127603 -32.8125 157.5625 C-33.85921875 157.59601563 -34.9059375 157.62953125 -35.984375 157.6640625 C-42.03604913 157.74066597 -46.05657922 157.66231058 -50.6875 153.3125 C-54.04735458 148.98107283 -54.084753 145.00752311 -53.98046875 139.73046875 C-53.97622391 138.91628983 -53.97197906 138.1021109 -53.96760559 137.26325989 C-53.95087753 134.67516332 -53.91323712 132.08785929 -53.875 129.5 C-53.85994553 127.74024566 -53.84625846 125.98047905 -53.83398438 124.22070312 C-53.80099336 119.91766563 -53.7492524 115.61521697 -53.6875 111.3125 C-54.87988281 111.34730469 -56.07226562 111.38210938 -57.30078125 111.41796875 C-58.86717342 111.44610753 -60.43358081 111.4734076 -62 111.5 C-62.78568359 111.52513672 -63.57136719 111.55027344 -64.38085938 111.57617188 C-65.13818359 111.58583984 -65.89550781 111.59550781 -66.67578125 111.60546875 C-67.37227783 111.6211792 -68.06877441 111.63688965 -68.78637695 111.65307617 C-71.30950812 111.20107052 -72.16865292 110.34923659 -73.6875 108.3125 C-73.94906261 105.58343638 -74.03671131 103.0878901 -73.98046875 100.36328125 C-73.97622391 99.59066452 -73.97197906 98.81804779 -73.96760559 98.02201843 C-73.95082183 95.55599008 -73.91317147 93.09078104 -73.875 90.625 C-73.85995271 88.95248577 -73.84626438 87.27995872 -73.83398438 85.60742188 C-73.80091946 81.50879922 -73.74914028 77.41078849 -73.6875 73.3125 C-69.8459024 70.74469529 -65.8735825 71.08561118 -61.4375 71.1875 C-60.69242188 71.19652344 -59.94734375 71.20554687 -59.1796875 71.21484375 C-57.34881941 71.23831642 -55.51811762 71.27418475 -53.6875 71.3125 C-53.70844727 70.22308105 -53.72939453 69.13366211 -53.75097656 68.01123047 C-53.82361865 63.95228322 -53.86938718 59.89339294 -53.90722656 55.83398438 C-53.9272871 54.08030521 -53.95454251 52.32669247 -53.98925781 50.57324219 C-54.03802302 48.04605682 -54.06052392 45.51975909 -54.078125 42.9921875 C-54.09877014 42.21382538 -54.11941528 41.43546326 -54.14068604 40.6335144 C-54.14282363 35.39563161 -53.13936804 32.4755113 -49.6875 28.3125 C-44.34003903 24.38828633 -38.65964188 24.96529772 -32.3125 25.125 C-30.77916016 25.14530273 -30.77916016 25.14530273 -29.21484375 25.16601562 C-26.70517951 25.20119783 -24.1966191 25.25042461 -21.6875 25.3125 C-21.70816528 24.20733032 -21.70816528 24.20733032 -21.72924805 23.07983398 C-21.73996338 22.10344971 -21.75067871 21.12706543 -21.76171875 20.12109375 C-21.78238403 18.67561157 -21.78238403 18.67561157 -21.8034668 17.20092773 C-21.57258921 11.45037465 -20.27292455 6.85925566 -16.125 2.8125 C-10.84433055 -0.43714274 -6.10818086 0.05386403 0 0 Z M-10.6875 14.3125 C-10.99048903 17.1635621 -10.99048903 17.1635621 -10.94146729 20.45481873 C-10.94710693 21.74052765 -10.95274658 23.02623657 -10.95855713 24.35090637 C-10.95466836 25.77877864 -10.95057201 27.20665035 -10.94628906 28.63452148 C-10.94899865 30.13584564 -10.9525594 31.63716847 -10.95690918 33.13848877 C-10.96604007 37.21906112 -10.96248585 41.29953253 -10.95615101 45.38010669 C-10.9510937 49.64769946 -10.9557818 53.91528348 -10.95892334 58.18287659 C-10.96256416 65.35118158 -10.95776125 72.5194454 -10.94824219 79.68774414 C-10.93736156 87.97712807 -10.94087989 96.26641359 -10.951895 104.55579513 C-10.96096951 111.66924362 -10.96225222 118.78266248 -10.95701766 125.89611489 C-10.95389833 130.14619279 -10.95348753 134.39622443 -10.96009064 138.64629936 C-10.9658657 142.64275597 -10.96186427 146.63908568 -10.95030212 150.63552856 C-10.94765622 152.10288851 -10.94841945 153.57025912 -10.95282745 155.03761482 C-10.95828688 157.0394719 -10.95022899 159.04135229 -10.94146729 161.04319763 C-10.94071323 162.16388862 -10.93995918 163.2845796 -10.93918228 164.43923092 C-10.68930289 167.29191778 -10.26108153 168.94222757 -8.6875 171.3125 C-5.76701261 172.77274369 -3.12693916 172.59896553 0.125 172.6875 C1.34832031 172.73648438 2.57164062 172.78546875 3.83203125 172.8359375 C8.30480542 172.16326439 9.49708342 170.7893117 12.3125 167.3125 C13.05167929 164.27259523 13.05167929 164.27259523 12.93395996 160.92294312 C12.94516876 159.6330397 12.95637756 158.34313629 12.96792603 157.0141449 C12.9550161 155.59194496 12.94160202 154.16974952 12.92773438 152.74755859 C12.93123667 151.24431227 12.93689648 149.74106966 12.94454956 148.23783875 C12.95878949 144.16137054 12.94174583 140.08557749 12.91826439 136.00917387 C12.89815406 131.74379957 12.90403491 127.47845326 12.90637207 123.21304321 C12.90631851 116.05239729 12.88656701 108.89201537 12.85449219 101.73144531 C12.81757175 93.44875849 12.80882059 85.16641714 12.8157897 76.88365877 C12.82209019 68.91782037 12.81135068 60.95210062 12.79182434 52.98628616 C12.78364239 49.59478695 12.78094223 46.20334831 12.78251648 42.81184006 C12.78339409 38.82101362 12.76921289 34.83051656 12.74328995 30.83977699 C12.73611598 29.37362197 12.73405044 27.90743193 12.73740768 26.4412632 C12.74111026 24.44351623 12.72456378 22.44576199 12.70690918 20.4480896 C12.70318047 19.32907446 12.69945175 18.21005932 12.69561005 17.05713463 C12.53694333 14.29689042 12.53694333 14.29689042 10.91042328 12.45328712 C8.8758471 11.00076538 7.6393584 10.92565955 5.15234375 10.9140625 C3.9622168 10.90826172 3.9622168 10.90826172 2.74804688 10.90234375 C1.92369141 10.91394531 1.09933594 10.92554688 0.25 10.9375 C-0.57822266 10.92589844 -1.40644531 10.91429687 -2.25976562 10.90234375 C-3.05189453 10.90621094 -3.84402344 10.91007813 -4.66015625 10.9140625 C-5.38468994 10.91744629 -6.10922363 10.92083008 -6.85571289 10.92431641 C-9.10226054 11.17741426 -9.10226054 11.17741426 -10.6875 14.3125 Z M159.59039211 12.44893742 C157.7360911 15.15308275 157.93184998 17.23022187 157.92481995 20.49278259 C157.91491531 21.78690567 157.90501068 23.08102875 157.89480591 24.41436768 C157.8990442 25.85168551 157.90360209 27.28900244 157.90844727 28.72631836 C157.90274607 30.23749803 157.89578279 31.74867338 157.88764954 33.25984192 C157.86967472 37.36730173 157.87089461 41.47454842 157.87659192 45.58203578 C157.87967767 49.00909266 157.87359815 52.43610823 157.86755317 55.86315924 C157.85349525 63.9471377 157.85507963 72.03101052 157.86645508 80.11499023 C157.87793686 88.45899339 157.86386262 96.80267515 157.8370586 105.14663595 C157.81491729 112.30680767 157.80826069 119.4668784 157.81413502 126.62708193 C157.81750967 130.90516735 157.81505605 135.18304675 157.79788399 139.46110344 C157.78244184 143.48394328 157.78633957 147.50630631 157.80518913 151.52912712 C157.8088827 153.00616361 157.80574417 154.48323521 157.79530334 155.96023941 C157.78214646 157.97520162 157.79601611 159.99028652 157.81129456 162.00523376 C157.81150384 163.13329909 157.81171312 164.26136442 157.81192875 165.42361355 C158.42927657 168.98643851 159.4408274 170.17063914 162.3125 172.3125 C165.94037434 172.87171204 165.94037434 172.87171204 169.875 172.6875 C170.54724609 172.68621094 171.21949219 172.68492187 171.91210938 172.68359375 C175.56737284 172.61825637 177.2010328 172.38681147 180.3125 170.3125 C180.76759235 167.49619919 180.76759235 167.49619919 180.6867218 164.12512207 C180.69069621 163.48370663 180.69467061 162.84229119 180.69876546 162.18143892 C180.70842479 160.02242956 180.69654921 157.86406957 180.68481445 155.70507812 C180.68724123 154.1612473 180.69095945 152.61741804 180.69587708 151.07359314 C180.70530535 146.87321457 180.69584452 142.67306822 180.68254495 138.47270775 C180.67125397 134.0840589 180.67533613 129.69542189 180.67729187 125.3067627 C180.67817559 117.93575227 180.66707812 110.56483369 180.64868164 103.19384766 C180.62751281 94.66302469 180.62400366 86.13233631 180.6302436 77.6014924 C180.63593167 69.40662764 180.63029818 61.21181043 180.61907005 53.01695251 C180.61441667 49.52415592 180.6135534 46.03138834 180.6156559 42.53858948 C180.61753493 38.42805506 180.60946478 34.31765827 180.5935955 30.20715523 C180.5893408 28.69542065 180.58851002 27.18367214 180.59128571 25.67193413 C180.59449122 23.61442932 180.58546758 21.55733999 180.57319641 19.49987793 C180.57114354 18.34654716 180.56909067 17.1932164 180.56697559 16.00493622 C180.58686365 13.16190779 180.58686365 13.16190779 178.3125 11.3125 C175.45684641 11.08697659 172.7299649 10.98821237 169.875 11 C169.09833984 10.98388672 168.32167969 10.96777344 167.52148438 10.95117188 C163.34408479 10.86946308 163.34408479 10.86946308 159.59039211 12.44893742 Z M-43.6875 38.3125 C-44.14679329 40.26784625 -44.14679329 40.26784625 -44.08190918 42.55699158 C-44.09325897 43.44730576 -44.10460876 44.33761993 -44.11630249 45.25491333 C-44.11337189 46.23418793 -44.11044128 47.21346252 -44.10742188 48.22241211 C-44.11589142 49.25176376 -44.12436096 50.28111542 -44.13308716 51.34165955 C-44.15656271 54.75784526 -44.15747678 58.17358335 -44.15625 61.58984375 C-44.16334527 63.95634646 -44.17104331 66.32284744 -44.17932129 68.68934631 C-44.19279046 73.65516947 -44.19432394 78.62083358 -44.18847656 83.58666992 C-44.18257878 89.9606424 -44.21316488 96.33385364 -44.25359344 102.70767879 C-44.27940187 107.59664546 -44.28235406 112.48542719 -44.27870178 117.37445259 C-44.28039951 119.7248787 -44.29010423 122.07531277 -44.30784607 124.42567253 C-44.32989928 127.70870245 -44.32040236 130.9901703 -44.30273438 134.27319336 C-44.31599762 135.25044373 -44.32926086 136.22769409 -44.34292603 137.23455811 C-44.31203475 139.69602065 -44.24496998 141.9151755 -43.6875 144.3125 C-39.95257842 147.68961986 -36.55326791 147.71912525 -31.625 147.6875 C-29.81322266 147.69910156 -29.81322266 147.69910156 -27.96484375 147.7109375 C-24.40493639 147.27814781 -23.23246317 146.74965739 -20.6875 144.3125 C-20.09809019 142.25916083 -20.09809019 142.25916083 -20.19975281 139.94102478 C-20.19280899 139.04789078 -20.18586517 138.15475677 -20.17871094 137.23455811 C-20.191521 136.25730774 -20.20433105 135.28005737 -20.2175293 134.27319336 C-20.2142437 132.7265374 -20.2142437 132.7265374 -20.21089172 131.14863586 C-20.20857604 127.73288129 -20.23486128 124.31798374 -20.26171875 120.90234375 C-20.26664022 118.53487929 -20.26994068 116.16741095 -20.27168274 113.79994202 C-20.27933042 108.83582152 -20.29991599 103.87198855 -20.33081055 98.90795898 C-20.37040738 92.53307244 -20.38842166 86.15837313 -20.39811993 79.78337765 C-20.40807777 73.71884078 -20.4279827 67.65435006 -20.44921875 61.58984375 C-20.45431237 59.84407201 -20.45431237 59.84407201 -20.4595089 58.06303215 C-20.47104342 54.78276911 -20.48955774 51.50262693 -20.51049805 48.22241211 C-20.5145314 46.75350021 -20.5145314 46.75350021 -20.51864624 45.25491333 C-20.52580154 44.36459915 -20.53295685 43.47428497 -20.54032898 42.55699158 C-20.54460246 41.78105117 -20.54887594 41.00511076 -20.55327892 40.20565701 C-20.57239419 38.2236787 -20.57239419 38.2236787 -21.6875 36.3125 C-24.79158807 36.25442957 -27.8955364 36.21888086 -31 36.1875 C-31.88107422 36.17074219 -32.76214844 36.15398437 -33.66992188 36.13671875 C-34.94125977 36.12705078 -34.94125977 36.12705078 -36.23828125 36.1171875 C-37.40870972 36.10147705 -37.40870972 36.10147705 -38.6027832 36.08544922 C-40.9940848 36.18369141 -40.9940848 36.18369141 -43.6875 38.3125 Z M191.3125 39.3125 C191.00736422 41.34168029 191.00736422 41.34168029 191.04507446 43.59458923 C191.03654449 44.46800461 191.02801453 45.34141998 191.01922607 46.24130249 C191.02013245 47.19670929 191.02103882 48.15211609 191.02197266 49.13647461 C191.01525543 50.14485886 191.00853821 51.1532431 191.00161743 52.19218445 C190.98258401 55.53312068 190.97871065 58.87385664 190.9765625 62.21484375 C190.97013875 64.53268009 190.96341071 66.85051561 190.95639038 69.16835022 C190.94440455 74.02981446 190.94071095 78.89120757 190.94189453 83.75268555 C190.9420979 89.98853209 190.9147831 96.22392378 190.88035011 102.45966244 C190.85813717 107.24742232 190.85405526 112.03507173 190.85511398 116.82287788 C190.85275005 119.12223441 190.84388226 121.42159363 190.82844925 123.72089958 C190.80890125 126.93396963 190.81458348 130.14604555 190.82666016 133.35913086 C190.81542114 134.31251343 190.80418213 135.265896 190.79260254 136.24816895 C190.80777891 141.40784515 190.80777891 141.40784515 193.1199646 145.90357971 C196.37823048 147.99733697 199.04359116 147.80617902 202.875 147.75 C203.54724609 147.75708984 204.21949219 147.76417969 204.91210938 147.77148438 C208.70611014 147.73709192 208.70611014 147.73709192 212.00371075 146.05861759 C213.65126214 143.86054142 213.6873117 142.67109972 213.6867218 139.94102478 C213.69373611 139.04789078 213.70075043 138.15475677 213.70797729 137.23455811 C213.69651169 135.76868256 213.69651169 135.76868256 213.68481445 134.27319336 C213.68846512 133.24208939 213.69211578 132.21098541 213.69587708 131.14863586 C213.70399744 127.73303875 213.69036072 124.31791379 213.67578125 120.90234375 C213.67526286 118.53487651 213.67577973 116.16740883 213.67729187 113.79994202 C213.67720208 108.8358824 213.66675838 103.87198497 213.64868164 98.90795898 C213.62598202 92.53302935 213.62545194 86.15833658 213.63219929 79.78337765 C213.63553446 74.89447409 213.6289179 70.00562491 213.61907005 65.11673164 C213.6152109 62.76550137 213.61407278 60.41426506 213.6156559 58.06303215 C213.61602517 54.78270736 213.60344543 51.50269078 213.5871582 48.22241211 C213.58963562 47.24313751 213.59211304 46.26386292 213.59466553 45.25491333 C213.58758072 44.36459915 213.58049591 43.47428497 213.57319641 42.55699158 C213.57114354 41.78105117 213.56909067 41.00511076 213.56697559 40.20565701 C213.47481655 38.07041467 213.47481655 38.07041467 211.3125 36.3125 C208.33282424 35.86956458 205.32138134 35.98835572 202.3125 36 C201.06339844 35.97583008 201.06339844 35.97583008 199.7890625 35.95117188 C198.99242187 35.95052734 198.19578125 35.94988281 197.375 35.94921875 C196.64410156 35.94623779 195.91320312 35.94325684 195.16015625 35.94018555 C192.89766496 36.16983022 192.89766496 36.16983022 191.3125 39.3125 Z M22.3125 81.3125 C22.3125 87.9125 22.3125 94.5125 22.3125 101.3125 C63.5625 101.3125 104.8125 101.3125 147.3125 101.3125 C147.3125 94.7125 147.3125 88.1125 147.3125 81.3125 C106.0625 81.3125 64.8125 81.3125 22.3125 81.3125 Z M-62.6875 82.3125 C-62.6875 88.2525 -62.6875 94.1925 -62.6875 100.3125 C-59.7175 100.3125 -56.7475 100.3125 -53.6875 100.3125 C-53.6875 94.3725 -53.6875 88.4325 -53.6875 82.3125 C-56.6575 82.3125 -59.6275 82.3125 -62.6875 82.3125 Z M224.3125 82.3125 C224.3125 88.2525 224.3125 94.1925 224.3125 100.3125 C227.2825 100.3125 230.2525 100.3125 233.3125 100.3125 C233.3125 94.3725 233.3125 88.4325 233.3125 82.3125 C230.3425 82.3125 227.3725 82.3125 224.3125 82.3125 Z " fill="#020001" transform="translate(161.6875,155.6875)"/>
</svg>
