<?xml version="1.0" encoding="UTF-8"?>
<svg version="1.1" xmlns="http://www.w3.org/2000/svg" width="500" height="500">
<path d="M0 0 C0.83323227 -0.00311998 1.66646454 -0.00623996 2.52494627 -0.00945449 C5.30922965 -0.01741407 8.09329384 -0.01111877 10.87757874 -0.00482178 C12.87693408 -0.00753256 14.87628842 -0.01109399 16.87564087 -0.01544189 C22.30122729 -0.02455829 27.72673764 -0.02102454 33.15232539 -0.01468372 C38.8318685 -0.00961918 44.51140512 -0.01431651 50.19094849 -0.01745605 C59.72973296 -0.02109466 69.26848646 -0.01629965 78.80726624 -0.0067749 C89.83174401 0.00410631 100.85614778 0.00058605 111.88062376 -0.01042771 C121.34829813 -0.01950729 130.81595025 -0.02078248 140.28362757 -0.01555037 C145.93718431 -0.01243397 151.59070629 -0.01201225 157.24426079 -0.01862335 C162.56056235 -0.02440579 167.87676864 -0.02038339 173.19305992 -0.00883484 C175.14293001 -0.00619294 177.09280814 -0.00694532 179.04267502 -0.01136017 C181.70686186 -0.01683564 184.37074457 -0.00995715 187.03491211 0 C187.80418295 -0.00446144 188.5734538 -0.00892289 189.36603588 -0.01351953 C197.16304936 0.04289345 202.91884476 1.59186417 208.58094788 7.25396729 C212.75439326 12.81856113 212.3272466 19.60361644 211.58094788 26.25396729 C210.01399389 31.12331891 206.94381442 34.63624736 202.58094788 37.25396729 C201.03416112 37.66923803 199.47352205 38.03499756 197.90516663 38.35943604 C197.09523254 38.52983398 196.28529846 38.70023193 195.45082092 38.87579346 C194.83376282 39.00059082 194.21670471 39.12538818 193.58094788 39.25396729 C193.62735413 40.40767822 193.67376038 41.56138916 193.72157288 42.75006104 C194.69459983 78.40295694 184.89376601 114.08002736 160.22547913 140.51959229 C159.35278381 141.42193604 158.4800885 142.32427979 157.58094788 143.25396729 C157.02068909 143.83468994 156.4604303 144.4154126 155.88319397 145.01373291 C147.70343498 153.45429581 139.39993025 161.21516173 129.93251038 168.21099854 C126.90689136 170.83956788 125.82634369 172.68860029 125.20985413 176.62115479 C125.17698303 177.86252197 125.17698303 177.86252197 125.14344788 179.12896729 C125.10348694 179.95138916 125.063526 180.77381104 125.02235413 181.62115479 C126.33912636 187.82747987 131.90779834 191.46165097 136.76844788 195.00396729 C156.7734154 210.2599811 172.51576199 229.17693524 182.58094788 252.25396729 C182.91529846 253.01958984 183.24964905 253.7852124 183.59413147 254.57403564 C186.1155611 260.58917613 187.82476267 266.57433354 189.20594788 272.94146729 C189.41759583 273.9055249 189.62924377 274.86958252 189.8473053 275.862854 C192.97464686 290.43118512 193.85276606 304.37947235 193.58094788 319.25396729 C195.19936584 319.45119385 195.19936584 319.45119385 196.85047913 319.65240479 C202.91218461 320.62989447 206.27388595 322.4997526 209.95594788 327.44146729 C212.80899018 333.23400773 213.25823736 338.83581746 211.39344788 345.00396729 C209.16502451 350.79181803 206.17983735 354.45452255 200.58094788 357.25396729 C196.63668216 358.61671907 192.56775571 358.39902964 188.44709778 358.39440918 C187.20699633 358.39886586 187.20699633 358.39886586 185.94184232 358.40341258 C183.16756259 358.4120942 180.39332605 358.41360738 177.61903381 358.4151001 C175.63144844 358.41972866 173.64386396 358.42475337 171.65628052 358.43014526 C166.25326032 358.44326778 160.85025254 358.44971396 155.44721889 358.45415592 C152.07147746 358.45708694 148.69573942 358.46119181 145.31999969 358.4656601 C134.75767557 358.47933476 124.1953592 358.48900152 113.63302684 358.49286199 C101.44118879 358.49734252 89.24946287 358.51489042 77.05765891 358.54386258 C67.63332507 358.56548066 58.20902277 358.57556634 48.78466439 358.5769031 C43.15616563 358.57795106 37.52777227 358.58385686 31.89929962 358.60172272 C26.60351999 358.61820545 21.30792498 358.62035784 16.01212883 358.61158371 C14.07073662 358.61081344 12.12933448 358.61515467 10.1879673 358.62504196 C7.53267 358.63776984 4.87802574 358.63188013 2.22273254 358.62145996 C1.0769856 358.63354457 1.0769856 358.63354457 -0.09190774 358.64587331 C-6.51460661 358.58713737 -11.64027993 356.95912295 -17.16905212 353.56646729 C-21.52086685 349.09376882 -23.63943577 344.52123046 -23.91905212 338.25396729 C-23.63846134 331.96486346 -21.45994376 327.46979249 -17.23155212 322.87896729 C-13.43900596 320.68771839 -9.69330363 320.00241898 -5.41905212 319.25396729 C-5.43282898 318.53201172 -5.44660583 317.81005615 -5.46080017 317.06622314 C-5.90435354 275.60899021 6.37602283 239.80136786 35.10585022 209.75640869 C41.75232383 202.98673001 48.91615732 196.801964 56.42469788 191.00787354 C60.97440648 187.33797433 60.97440648 187.33797433 63.58094788 182.25396729 C63.95198355 178.32098909 63.89183918 175.88926691 62.14344788 172.31646729 C57.23554495 166.45092476 51.2919318 161.81785009 45.33094788 157.06646729 C15.17444515 132.47731891 0.8160266 100.96049305 -4.16905212 62.87896729 C-4.29707214 61.90467773 -4.42509216 60.93038818 -4.55699158 59.92657471 C-5.38769881 53.01221024 -5.55705727 46.21402706 -5.41905212 39.25396729 C-6.26467712 39.17146729 -7.11030212 39.08896729 -7.98155212 39.00396729 C-13.70177676 37.75591827 -17.26152094 35.74657329 -20.79405212 31.19146729 C-23.88526116 25.60351249 -24.03554611 20.5216561 -23.41905212 14.25396729 C-21.79972376 8.93834592 -19.19399701 5.20988555 -14.41905212 2.25396729 C-9.58680384 0.26512099 -5.15657408 -0.02981946 0 0 Z M-10.87567234 13.10127831 C-12.89147318 15.91289492 -13.34852403 17.79809047 -13.41905212 21.25396729 C-12.04511482 24.13269306 -10.66915775 26.00386166 -8.41905212 28.25396729 C-5.72017755 28.45601584 -3.12331273 28.53199216 -0.42286682 28.52139282 C0.413148 28.52592394 1.24916282 28.53045505 2.11051142 28.53512347 C4.92802338 28.54784205 7.74534388 28.54614232 10.56288147 28.54449463 C12.5763677 28.55047524 14.58985163 28.5572797 16.60333252 28.56484985 C22.084725 28.58256493 27.5660551 28.58720755 33.04747343 28.58848143 C37.61772216 28.5903769 42.18795623 28.5977304 46.75819933 28.60482562 C57.53799021 28.62112822 68.31774766 28.62599287 79.09754944 28.62457275 C90.22998618 28.62337093 101.36222917 28.6444766 112.49461687 28.67606008 C122.04114681 28.70218259 131.58761333 28.71294174 141.13417876 28.71166193 C146.84085302 28.7111511 152.54735521 28.71690106 158.25399399 28.73801804 C163.6203739 28.7573326 168.98641643 28.75757145 174.352808 28.74298477 C176.32490466 28.7408871 178.29702207 28.74565422 180.26908302 28.75770569 C182.95672141 28.77306906 185.64318348 28.76390956 188.33079529 28.7484436 C189.11542408 28.75873073 189.90005288 28.76901786 190.7084583 28.77961671 C194.1909463 28.73518094 196.20098218 28.53376065 199.04189491 26.44181252 C201.18922742 23.38926572 201.44889039 20.95157682 201.58094788 17.25396729 C200.47886779 13.85588703 199.65996912 13.30664811 196.58094788 11.25396729 C193.84188387 11.05599852 191.20418293 10.9757486 188.46450806 10.98654175 C187.20920419 10.97974508 187.20920419 10.97974508 185.92854065 10.9728111 C183.11413451 10.960114 180.29992057 10.96179088 177.48548889 10.96343994 C175.47185516 10.95745805 173.45822373 10.95065329 171.44459534 10.94308472 C165.96739415 10.92538412 160.49025541 10.92072766 155.01302838 10.91945314 C150.44521481 10.91755661 145.87741587 10.91020201 141.30960792 10.90310895 C130.53603339 10.88681237 119.7624923 10.8819412 108.98890686 10.88336182 C97.86383372 10.88456395 86.73895437 10.86345063 75.61393028 10.83187449 C66.07162642 10.80575263 56.52938602 10.79499278 46.98704666 10.79627264 C41.28374071 10.79678342 35.58060694 10.79103571 29.8773365 10.76991653 C24.51504713 10.7506027 19.15309541 10.7503626 13.79079437 10.7649498 C11.82030941 10.76704746 9.8498037 10.76228043 7.87935448 10.75022888 C5.1939588 10.73486556 2.50974041 10.74402491 -0.17562866 10.75949097 C-0.95957534 10.74920384 -1.74352201 10.73891671 -2.55122465 10.72831786 C-6.05522911 10.77306646 -8.03673082 10.96647215 -10.87567234 13.10127831 Z M5.58094788 39.25396729 C5.58094788 76.77065082 14.87250936 110.42780211 40.58094788 138.25396729 C41.21903381 138.9513501 41.85711975 139.64873291 42.51454163 140.36724854 C46.54620835 144.57294404 51.07406229 148.1325447 55.59657288 151.79302979 C58.79414892 154.42977443 61.92901952 157.11692398 65.01844788 159.87896729 C65.98653381 160.73748291 66.95461975 161.59599854 67.95204163 162.48052979 C72.57225845 167.35475556 75.14867089 171.77525403 75.08094788 178.69146729 C74.69409609 188.11560664 71.81837491 192.42528458 64.95594788 198.75396729 C61.31705835 202.00845153 57.56848162 205.08003805 53.70594788 208.06646729 C32.81668036 224.52264266 18.91158576 244.75121174 11.58094788 270.25396729 C11.29606506 271.23881104 11.01118225 272.22365479 10.71766663 273.23834229 C8.84389255 280.50282024 7.86083888 287.88783871 6.89344788 295.31646729 C6.76180237 296.30960937 6.63015686 297.30275146 6.49452209 298.32598877 C5.63500421 305.34615601 5.47052798 312.18183592 5.58094788 319.25396729 C10.86094788 319.25396729 16.14094788 319.25396729 21.58094788 319.25396729 C22.11719788 316.98521729 22.65344788 314.71646729 23.20594788 312.37896729 C29.09723657 289.55053161 49.45451506 276.58046872 67.26527405 263.08355713 C72.8535198 258.84312935 78.33673134 254.48335614 83.76087952 250.03497314 C90.97351436 244.17792231 90.97351436 244.17792231 94.97547913 244.36724854 C98.32953081 245.50873239 100.5013716 247.22418917 103.26844788 249.44146729 C104.41936001 250.35308918 105.57040959 251.26453756 106.72157288 252.17584229 C107.33967834 252.67019775 107.95778381 253.16455322 108.59461975 253.67388916 C111.44761628 255.94338197 114.3311572 258.17276697 117.21327209 260.40509033 C120.28059635 262.78208796 123.34026615 265.16884529 126.40028381 267.55523682 C128.43990468 269.14409508 130.48272491 270.72874313 132.52626038 272.31256104 C135.89988625 274.93281827 139.24740202 277.58285682 142.58094788 280.25396729 C143.42141663 280.92556885 144.26188538 281.59717041 145.12782288 282.28912354 C157.06015071 292.30816432 164.01076453 304.04704917 166.58094788 319.25396729 C171.86094788 319.25396729 177.14094788 319.25396729 182.58094788 319.25396729 C183.61743158 282.97703769 174.53085736 247.96375631 149.31117249 221.07086182 C142.22899988 213.69914182 134.81530475 206.59778228 126.64344788 200.44146729 C120.05441906 195.44831334 114.51212606 189.61127019 113.26454163 181.09381104 C112.87267454 173.72418158 115.64997219 168.48215402 120.14344788 162.81646729 C123.56520423 159.01831774 127.5407011 155.94926322 131.52235413 152.76177979 C160.02727633 129.38992786 176.38235454 102.3689004 181.39344788 65.50396729 C181.51743958 64.60686035 181.64143127 63.70975342 181.7691803 62.78546143 C182.74775909 54.80034501 182.58094788 47.46853738 182.58094788 39.25396729 C124.17094788 39.25396729 65.76094788 39.25396729 5.58094788 39.25396729 Z M43.89344788 295.56646729 C37.2253662 302.55838516 33.58094788 309.47251677 33.58094788 319.25396729 C73.84094788 319.25396729 114.10094788 319.25396729 155.58094788 319.25396729 C153.3687856 301.55666911 141.24539482 291.20561853 127.70594788 280.62896729 C125.97302101 279.30207457 124.23142244 277.9880081 122.48329163 276.68121338 C120.37880636 275.10230926 118.29153726 273.50227309 116.20594788 271.89849854 C112.67789392 269.18689145 109.14760117 266.47851438 105.60145569 263.79058838 C104.18369659 262.71236511 102.77209125 261.62602504 101.36512756 260.53375244 C100.65002014 259.98380615 99.93491272 259.43385986 99.19813538 258.86724854 C98.55215393 258.36620605 97.90617249 257.86516357 97.24061584 257.34893799 C89.32413964 252.1260201 50.9726536 288.77836908 43.89344788 295.56646729 Z M-12.41905212 334.25396729 C-13.12666071 336.49210528 -13.12666071 336.49210528 -12.91905212 338.81646729 C-12.90873962 339.58088135 -12.89842712 340.34529541 -12.88780212 341.13287354 C-12.31254939 343.73589217 -11.50740354 344.6335248 -9.41905212 346.25396729 C-5.70992859 347.4903418 -2.27907616 347.39540317 1.58349609 347.38768005 C2.40811468 347.38994561 3.23273327 347.39221117 4.0823403 347.39454538 C6.85524638 347.40089336 9.62810368 347.4000555 12.40101624 347.39923096 C14.38509179 347.40222193 16.36916676 347.40562431 18.35324097 347.40940857 C23.74985711 347.41825855 29.1464574 347.42058709 34.54308009 347.42122436 C39.04378476 347.42217265 43.54448572 347.42584998 48.04518896 347.42939645 C58.66054475 347.43754462 69.27589206 347.43998034 79.89125061 347.43927002 C90.85266862 347.43866896 101.81403746 347.44922562 112.77544302 347.46501368 C122.1776137 347.47807487 131.57976827 347.48345452 140.98194796 347.48281461 C146.60136521 347.48255923 152.22073878 347.4854327 157.84014702 347.49599266 C163.12356082 347.50564988 168.40688895 347.5057692 173.69030571 347.49847603 C175.63176091 347.49742726 177.57322138 347.49981032 179.51466751 347.50583649 C182.16035216 347.51351808 184.80573811 347.50893715 187.45141602 347.50120544 C188.22368985 347.50634901 188.99596368 347.51149257 189.79163975 347.516792 C193.52690735 347.49258983 196.45253864 347.42052191 199.58094788 345.25396729 C201.64561289 342.59939798 201.57779725 341.16574969 201.45594788 337.75396729 C200.46224347 333.77914965 199.8414565 332.65955819 196.58094788 330.25396729 C193.72153472 329.86115584 191.24740299 329.71327817 188.38894653 329.74603271 C187.55601198 329.73979275 186.72307743 329.73355279 185.86490244 329.72712374 C183.06952483 329.7111491 180.27501383 329.72381535 177.47962952 329.73638916 C175.47732026 329.73096998 173.47501498 329.72384848 171.47271729 329.71514893 C166.03054411 329.69688721 160.58867369 329.70399524 155.1464951 329.71666527 C149.45532101 329.72677955 143.76417314 329.71740383 138.07299805 329.71112061 C128.51383299 329.70383903 118.95479145 329.7134447 109.39564514 329.73248291 C98.34041979 329.75424634 87.28548958 329.74720607 76.2302714 329.72517729 C66.74396584 329.70703044 57.25774917 329.70446168 47.77143186 329.71493196 C42.10334049 329.7211716 36.43538786 329.72198965 30.76730537 329.70878601 C25.4377987 329.69723883 20.10867274 329.70523277 14.77920723 329.72836304 C12.82205335 329.73365642 10.86486748 329.73212563 8.90772629 329.72331238 C6.23802791 329.71239802 3.56955306 329.72607054 0.89993286 329.74603271 C-0.26475829 329.73264838 -0.26475829 329.73264838 -1.45297855 329.71899366 C-6.37595373 329.79050379 -8.99944407 330.67848048 -12.41905212 334.25396729 Z " fill="#020001" transform="translate(157.41905212402344,67.74603271484375)"/>
<path d="M0 0 C16.52756679 6.4030489 33.51359214 8.66565655 50.40405273 1.74609375 C51.88327648 1.04655937 53.34916412 0.31706142 54.79077148 -0.45703125 C57.14803018 -1.30524986 58.33415221 -0.9778962 60.65795898 -0.12890625 C62.47045898 1.05859375 62.47045898 1.05859375 63.65795898 2.87109375 C62.69710307 17.16126995 45.23594139 31.88132241 35.19311523 40.73046875 C32.53357172 42.97612337 29.81934765 45.14160583 27.09545898 47.30859375 C14.69560589 57.45233817 6.57695017 68.94932367 3.65795898 84.87109375 C2.99795898 85.53109375 2.33795898 86.19109375 1.65795898 86.87109375 C-1.63918894 86.54137896 -2.96472492 86.24840985 -5.34204102 83.87109375 C-5.92971505 81.56985533 -6.46279468 79.25454068 -6.96704102 76.93359375 C-10.68074382 61.89775743 -22.91982617 50.87826756 -34.71704102 41.49609375 C-44.9364156 33.33540477 -54.48550447 24.07077368 -61.34204102 12.87109375 C-61.98592773 11.90236328 -61.98592773 11.90236328 -62.64282227 10.9140625 C-65.0273816 7.15285035 -66.22846356 4.30320648 -65.34204102 -0.12890625 C-49.30246031 -18.30709771 -18.37340037 -7.2113409 0 0 Z M-51.34204102 3.87109375 C-49.64579235 16.6617256 -35.45203569 27.68018825 -25.96704102 35.24609375 C-16.5200727 42.80908991 -7.35108025 51.25238059 -1.34204102 61.87109375 C1.26581968 59.46139876 3.11122846 56.80690149 5.09545898 53.87109375 C11.09235778 45.54145633 18.66162677 39.16185149 26.72045898 32.87109375 C30.66461846 29.78631211 34.24718154 26.468801 37.78295898 22.93359375 C38.51204468 22.2055957 38.51204468 22.2055957 39.25585938 21.46289062 C41.63002642 19.50141787 41.63002642 19.50141787 42.65795898 16.87109375 C41.98966064 16.89727783 41.3213623 16.92346191 40.6328125 16.95043945 C26.24485256 17.43797863 14.1248071 16.94253021 0.65795898 11.87109375 C-2.60306347 10.69157499 -5.86711952 9.52066144 -9.13110352 8.34936523 C-11.35498899 7.54560318 -13.57524037 6.73169598 -15.79125977 5.90649414 C-16.81219727 5.52871826 -17.83313477 5.15094238 -18.88500977 4.76171875 C-19.79275146 4.42172852 -20.70049316 4.08173828 -21.63574219 3.73144531 C-31.21357465 0.68658455 -41.80348462 0.87860547 -51.34204102 3.87109375 Z " fill="#020001" transform="translate(252.342041015625,166.12890625)"/>
<path d="M0 0 C2.375 0.875 2.375 0.875 4.375 2.875 C4.92916667 8.97083333 4.92916667 8.97083333 3.1875 11.8125 C0.71450907 13.26218434 -0.80384512 13.29817323 -3.625 12.875 C-5.4375 11.75 -5.4375 11.75 -6.625 9.875 C-7.17455021 6.18516285 -7.07769677 4.52889533 -4.9375 1.4375 C-2.625 -0.125 -2.625 -0.125 0 0 Z " fill="#020001" transform="translate(252.625,264.125)"/>
<path d="M0 0 C1 1 1 1 1.25 4.375 C1 8 1 8 -0.125 10 C-3.01807013 11.54297074 -4.93640275 10.91256088 -8 10 C-10 7 -10 7 -9.875 3.4375 C-9 0 -9 0 -7.25 -1.5625 C-4.25523964 -2.14481451 -2.67580731 -1.37406321 0 0 Z " fill="#020001" transform="translate(256,291)"/>
</svg>
